<mxfile host="app.diagrams.net" agent="Mozilla/5.0 (X11; Linux x86_64) AppleWebKit/537.36 (KHTML, like Gecko) Chrome/136.0.0.0 Safari/537.36" version="27.1.1">
  <diagram id="Ht1M8jgEwFfnCIfOTk4-" name="Page-1">
    <mxGraphModel dx="955" dy="601" grid="1" gridSize="10" guides="1" tooltips="1" connect="1" arrows="1" fold="1" page="1" pageScale="1" pageWidth="827" pageHeight="1169" math="0" shadow="0">
      <root>
        <mxCell id="0" />
        <mxCell id="1" parent="0" />
        <mxCell id="UEzPUAAOIrF-is8g5C7q-2" value="" style="points=[[0,0],[0.25,0],[0.5,0],[0.75,0],[1,0],[1,0.25],[1,0.5],[1,0.75],[1,1],[0.75,1],[0.5,1],[0.25,1],[0,1],[0,0.75],[0,0.5],[0,0.25]];outlineConnect=0;gradientColor=none;html=1;whiteSpace=wrap;fontSize=12;fontStyle=0;shape=mxgraph.aws4.group;grIcon=mxgraph.aws4.group_aws_cloud_alt;strokeColor=#232F3E;fillColor=none;verticalAlign=top;align=left;spacingLeft=30;fontColor=#232F3E;dashed=0;container=1;pointerEvents=0;collapsible=0;recursiveResize=0;" parent="1" vertex="1">
          <mxGeometry x="233" y="180" width="720" height="590" as="geometry" />
        </mxCell>
        <mxCell id="ei1fRvyxPQEVMclzIhYJ-15" style="edgeStyle=orthogonalEdgeStyle;rounded=0;orthogonalLoop=1;jettySize=auto;html=1;entryX=0;entryY=0.5;entryDx=0;entryDy=0;entryPerimeter=0;" parent="UEzPUAAOIrF-is8g5C7q-2" source="ei1fRvyxPQEVMclzIhYJ-7" target="ei1fRvyxPQEVMclzIhYJ-13" edge="1">
          <mxGeometry relative="1" as="geometry" />
        </mxCell>
        <mxCell id="ei1fRvyxPQEVMclzIhYJ-49" value="&amp;nbsp;mTLS" style="edgeLabel;html=1;align=center;verticalAlign=middle;resizable=0;points=[];" parent="ei1fRvyxPQEVMclzIhYJ-15" vertex="1" connectable="0">
          <mxGeometry x="-0.0962" y="-1" relative="1" as="geometry">
            <mxPoint as="offset" />
          </mxGeometry>
        </mxCell>
        <mxCell id="25" style="html=1;edgeStyle=orthogonalEdgeStyle;dashed=1;" parent="UEzPUAAOIrF-is8g5C7q-2" source="ei1fRvyxPQEVMclzIhYJ-7" edge="1">
          <mxGeometry relative="1" as="geometry">
            <mxPoint x="470" y="60" as="targetPoint" />
            <Array as="points">
              <mxPoint x="75" y="60" />
            </Array>
          </mxGeometry>
        </mxCell>
        <mxCell id="26" value="Request mTLS Certificate&amp;nbsp;" style="edgeLabel;html=1;align=center;verticalAlign=middle;resizable=0;points=[];" parent="25" vertex="1" connectable="0">
          <mxGeometry x="-0.0495" y="1" relative="1" as="geometry">
            <mxPoint x="43" as="offset" />
          </mxGeometry>
        </mxCell>
        <mxCell id="107" style="edgeStyle=orthogonalEdgeStyle;html=1;exitX=1;exitY=0;exitDx=0;exitDy=0;entryX=0;entryY=0.5;entryDx=0;entryDy=0;shape=link;width=5.65217391304348;" parent="UEzPUAAOIrF-is8g5C7q-2" source="ei1fRvyxPQEVMclzIhYJ-7" target="106" edge="1">
          <mxGeometry relative="1" as="geometry">
            <Array as="points">
              <mxPoint x="96" y="130" />
              <mxPoint x="117" y="130" />
              <mxPoint x="117" y="91" />
            </Array>
          </mxGeometry>
        </mxCell>
        <mxCell id="111" style="edgeStyle=orthogonalEdgeStyle;html=1;entryX=0.5;entryY=0;entryDx=0;entryDy=0;dashed=1;" parent="UEzPUAAOIrF-is8g5C7q-2" edge="1">
          <mxGeometry relative="1" as="geometry">
            <mxPoint x="75" y="135.9000000000001" as="sourcePoint" />
            <mxPoint x="671.2750000000005" y="175" as="targetPoint" />
            <Array as="points">
              <mxPoint x="75" y="114" />
              <mxPoint x="671" y="114" />
            </Array>
          </mxGeometry>
        </mxCell>
        <mxCell id="ei1fRvyxPQEVMclzIhYJ-7" value="Persys Api Gateway" style="image;aspect=fixed;perimeter=ellipsePerimeter;html=1;align=center;shadow=0;dashed=0;fontColor=#4277BB;labelBackgroundColor=default;fontSize=12;spacingTop=3;image=img/lib/ibm/miscellaneous/peer_cloud.svg;" parent="UEzPUAAOIrF-is8g5C7q-2" vertex="1">
          <mxGeometry x="45" y="131.9" width="60" height="46.2" as="geometry" />
        </mxCell>
        <mxCell id="ei1fRvyxPQEVMclzIhYJ-11" value="Persys Cloud Manager" style="html=1;whiteSpace=wrap;strokeColor=none;fillColor=#0079D6;labelPosition=center;verticalLabelPosition=middle;verticalAlign=top;align=center;fontSize=12;outlineConnect=0;spacingTop=-6;fontColor=#FFFFFF;sketch=0;shape=mxgraph.sitemap.services;" parent="UEzPUAAOIrF-is8g5C7q-2" vertex="1">
          <mxGeometry x="10" y="520" width="130" height="60" as="geometry" />
        </mxCell>
        <mxCell id="ei1fRvyxPQEVMclzIhYJ-16" style="edgeStyle=orthogonalEdgeStyle;rounded=0;orthogonalLoop=1;jettySize=auto;html=1;entryX=0.5;entryY=0;entryDx=0;entryDy=0;entryPerimeter=0;" parent="UEzPUAAOIrF-is8g5C7q-2" source="ei1fRvyxPQEVMclzIhYJ-13" target="ei1fRvyxPQEVMclzIhYJ-14" edge="1">
          <mxGeometry relative="1" as="geometry" />
        </mxCell>
        <mxCell id="14" style="edgeStyle=none;html=1;" parent="UEzPUAAOIrF-is8g5C7q-2" source="ei1fRvyxPQEVMclzIhYJ-13" target="13" edge="1">
          <mxGeometry relative="1" as="geometry" />
        </mxCell>
        <mxCell id="35" value="HMAC Signature Verification" style="edgeLabel;html=1;align=center;verticalAlign=middle;resizable=0;points=[];" parent="14" vertex="1" connectable="0">
          <mxGeometry x="-0.1" y="3" relative="1" as="geometry">
            <mxPoint x="-1" as="offset" />
          </mxGeometry>
        </mxCell>
        <mxCell id="28" style="edgeStyle=orthogonalEdgeStyle;html=1;" parent="UEzPUAAOIrF-is8g5C7q-2" source="ei1fRvyxPQEVMclzIhYJ-13" target="27" edge="1">
          <mxGeometry relative="1" as="geometry">
            <Array as="points">
              <mxPoint x="477" y="155" />
            </Array>
          </mxGeometry>
        </mxCell>
        <mxCell id="99" value="K8S CRD&#39;s" style="edgeLabel;html=1;align=center;verticalAlign=middle;resizable=0;points=[];" parent="28" vertex="1" connectable="0">
          <mxGeometry x="0.3298" y="-2" relative="1" as="geometry">
            <mxPoint x="6" y="9" as="offset" />
          </mxGeometry>
        </mxCell>
        <mxCell id="84" style="edgeStyle=orthogonalEdgeStyle;html=1;exitX=1;exitY=0.75;exitDx=0;exitDy=0;exitPerimeter=0;curved=1;" parent="UEzPUAAOIrF-is8g5C7q-2" source="ei1fRvyxPQEVMclzIhYJ-13" target="64" edge="1">
          <mxGeometry relative="1" as="geometry" />
        </mxCell>
        <mxCell id="101" value="JobQue" style="edgeLabel;html=1;align=center;verticalAlign=middle;resizable=0;points=[];" parent="84" vertex="1" connectable="0">
          <mxGeometry x="0.2227" y="-2" relative="1" as="geometry">
            <mxPoint as="offset" />
          </mxGeometry>
        </mxCell>
        <mxCell id="ei1fRvyxPQEVMclzIhYJ-13" value="Prow Scheduler" style="html=1;whiteSpace=wrap;strokeColor=none;fillColor=#0079D6;labelPosition=center;verticalLabelPosition=middle;verticalAlign=top;align=center;fontSize=12;outlineConnect=0;spacingTop=-6;fontColor=#FFFFFF;sketch=0;shape=mxgraph.sitemap.services;" parent="UEzPUAAOIrF-is8g5C7q-2" vertex="1">
          <mxGeometry x="274" y="120" width="120" height="70" as="geometry" />
        </mxCell>
        <mxCell id="ei1fRvyxPQEVMclzIhYJ-14" value="ETCD" style="sketch=0;html=1;dashed=0;whitespace=wrap;fillColor=#2875E2;strokeColor=#ffffff;points=[[0.005,0.63,0],[0.1,0.2,0],[0.9,0.2,0],[0.5,0,0],[0.995,0.63,0],[0.72,0.99,0],[0.5,1,0],[0.28,0.99,0]];verticalLabelPosition=bottom;align=center;verticalAlign=top;shape=mxgraph.kubernetes.icon;prIcon=etcd" parent="UEzPUAAOIrF-is8g5C7q-2" vertex="1">
          <mxGeometry x="502" y="177" width="50" height="48" as="geometry" />
        </mxCell>
        <mxCell id="10" value="Persys CFSSL Authority" style="html=1;whiteSpace=wrap;strokeColor=none;fillColor=#0079D6;labelPosition=center;verticalLabelPosition=middle;verticalAlign=top;align=center;fontSize=12;outlineConnect=0;spacingTop=-6;fontColor=#FFFFFF;sketch=0;shape=mxgraph.sitemap.services;" parent="UEzPUAAOIrF-is8g5C7q-2" vertex="1">
          <mxGeometry x="460" y="32" width="134" height="60" as="geometry" />
        </mxCell>
        <mxCell id="37" style="edgeStyle=none;html=1;dashed=1;dashPattern=12 12;" parent="UEzPUAAOIrF-is8g5C7q-2" source="12" target="13" edge="1">
          <mxGeometry relative="1" as="geometry" />
        </mxCell>
        <mxCell id="12" value="Node 1&lt;div&gt;Persys Agent on Docker&lt;br&gt;C++&lt;/div&gt;" style="image;aspect=fixed;html=1;points=[];align=center;fontSize=12;image=img/lib/azure2/compute/Host_Pools.svg;" parent="UEzPUAAOIrF-is8g5C7q-2" vertex="1">
          <mxGeometry x="150" y="270" width="68" height="68" as="geometry" />
        </mxCell>
        <mxCell id="36" style="edgeStyle=orthogonalEdgeStyle;html=1;curved=1;dashed=1;dashPattern=12 12;" parent="UEzPUAAOIrF-is8g5C7q-2" source="13" target="29" edge="1">
          <mxGeometry relative="1" as="geometry" />
        </mxCell>
        <mxCell id="38" style="edgeStyle=none;html=1;" parent="UEzPUAAOIrF-is8g5C7q-2" source="13" target="ei1fRvyxPQEVMclzIhYJ-13" edge="1">
          <mxGeometry relative="1" as="geometry" />
        </mxCell>
        <mxCell id="13" value="Node 2&lt;div&gt;Persys Agent on Docker&lt;br&gt;C++&lt;/div&gt;" style="image;aspect=fixed;html=1;points=[];align=center;fontSize=12;image=img/lib/azure2/compute/Host_Pools.svg;" parent="UEzPUAAOIrF-is8g5C7q-2" vertex="1">
          <mxGeometry x="300" y="270" width="68" height="68" as="geometry" />
        </mxCell>
        <mxCell id="15" style="edgeStyle=orthogonalEdgeStyle;html=1;entryX=0.426;entryY=0;entryDx=0;entryDy=0;entryPerimeter=0;elbow=vertical;curved=1;" parent="UEzPUAAOIrF-is8g5C7q-2" source="ei1fRvyxPQEVMclzIhYJ-13" target="12" edge="1">
          <mxGeometry relative="1" as="geometry" />
        </mxCell>
        <mxCell id="21" style="edgeStyle=none;html=1;entryX=0.5;entryY=0;entryDx=0;entryDy=0;entryPerimeter=0;" parent="UEzPUAAOIrF-is8g5C7q-2" source="ei1fRvyxPQEVMclzIhYJ-7" target="ei1fRvyxPQEVMclzIhYJ-11" edge="1">
          <mxGeometry relative="1" as="geometry" />
        </mxCell>
        <mxCell id="22" value="gRPC/mTLS" style="edgeLabel;html=1;align=center;verticalAlign=middle;resizable=0;points=[];" parent="21" vertex="1" connectable="0">
          <mxGeometry x="-0.3211" y="-3" relative="1" as="geometry">
            <mxPoint as="offset" />
          </mxGeometry>
        </mxCell>
        <mxCell id="24" style="edgeStyle=orthogonalEdgeStyle;html=1;entryX=0;entryY=0.5;entryDx=0;entryDy=0;entryPerimeter=0;curved=1;dashed=1;" parent="UEzPUAAOIrF-is8g5C7q-2" source="ei1fRvyxPQEVMclzIhYJ-13" target="10" edge="1">
          <mxGeometry relative="1" as="geometry" />
        </mxCell>
        <mxCell id="27" value="Persys Operator" style="html=1;whiteSpace=wrap;strokeColor=none;fillColor=#0079D6;labelPosition=center;verticalLabelPosition=middle;verticalAlign=top;align=center;fontSize=12;outlineConnect=0;spacingTop=-6;fontColor=#FFFFFF;sketch=0;shape=mxgraph.sitemap.services;" parent="UEzPUAAOIrF-is8g5C7q-2" vertex="1">
          <mxGeometry x="414" y="450" width="130" height="60" as="geometry" />
        </mxCell>
        <mxCell id="29" value="CoreDNS" style="shape=image;verticalLabelPosition=bottom;labelBackgroundColor=default;verticalAlign=top;aspect=fixed;imageAspect=0;editableCssRules=.*;image=data:image/svg+xml,PHN2ZyB4bWxuczp4bGluaz0iaHR0cDovL3d3dy53My5vcmcvMTk5OS94bGluayIgeG1sbnM9Imh0dHA6Ly93d3cudzMub3JnLzIwMDAvc3ZnIiB2aWV3Qm94PSItMC4wMTE1NjYxNjIxMDkzNzUgLTAuMDA2OTI3NDkwMjM0Mzc1IDE2My40MjkxNTM0NDIzODI4IDE0NS4zODM4ODA2MTUyMzQzOCIgZGF0YS1uYW1lPSJMYXllciAxIiBpZD0iTGF5ZXJfMSIgd2lkdGg9IjE2My40MjkxNTM0NDIzODI4IiBoZWlnaHQ9IjE0NS4zODM4ODA2MTUyMzQzOCI+PGRlZnM+PHN0eWxlPi5jbHMtMXtmaWxsOnVybCgjbGluZWFyLWdyYWRpZW50KTt9LmNscy0ye2ZpbGw6dXJsKCNsaW5lYXItZ3JhZGllbnQtMik7fS5jbHMtM3tmaWxsOnVybCgjbGluZWFyLWdyYWRpZW50LTMpO30uY2xzLTR7ZmlsbDp1cmwoI2xpbmVhci1ncmFkaWVudC00KTt9LmNscy01e2ZpbGw6I2ZmZjt9LmNscy02e2ZpbGw6IzJjMjU2Yzt9LmNscy03e2ZpbGw6IzViMmQ4Mjt9LmNscy04e2ZpbGw6dXJsKCNsaW5lYXItZ3JhZGllbnQtNSk7fS5jbHMtOXtmaWxsOnVybCgjbGluZWFyLWdyYWRpZW50LTYpO30uY2xzLTEwe2ZpbGw6dXJsKCNsaW5lYXItZ3JhZGllbnQtNyk7fS5jbHMtMTF7ZmlsbDp1cmwoI2xpbmVhci1ncmFkaWVudC04KTt9LmNscy0xMntmaWxsOnVybCgjbGluZWFyLWdyYWRpZW50LTkpO30uY2xzLTEze2ZpbGw6IzYyMzM5Mzt9PC9zdHlsZT48bGluZWFyR3JhZGllbnQgZ3JhZGllbnRVbml0cz0idXNlclNwYWNlT25Vc2UiIGdyYWRpZW50VHJhbnNmb3JtPSJ0cmFuc2xhdGUoMTQ1MC40IDM4NTIuMDkpIHJvdGF0ZSgtNDUpIiB5Mj0iLTMyNzUuNzciIHgyPSIxNjkxLjU3IiB5MT0iLTMyNzUuNzciIHgxPSIxNTc0LjM2IiBpZD0ibGluZWFyLWdyYWRpZW50Ij48c3RvcCBzdG9wLWNvbG9yPSIjNjIzMzkzIiBvZmZzZXQ9IjAiLz48c3RvcCBzdG9wLWNvbG9yPSIjNDMyYjdkIiBvZmZzZXQ9IjAuNiIvPjxzdG9wIHN0b3AtY29sb3I9IiMyYzI1NmMiIG9mZnNldD0iMSIvPjwvbGluZWFyR3JhZGllbnQ+PGxpbmVhckdyYWRpZW50IHhsaW5rOmhyZWY9IiNsaW5lYXItZ3JhZGllbnQiIHkyPSItMzI1OS44NSIgeDI9IjE2OTEuNTciIHkxPSItMzI1OS44NSIgeDE9IjE1NzQuMzYiIGlkPSJsaW5lYXItZ3JhZGllbnQtMiIvPjxsaW5lYXJHcmFkaWVudCBncmFkaWVudFVuaXRzPSJ1c2VyU3BhY2VPblVzZSIgZ3JhZGllbnRUcmFuc2Zvcm09InRyYW5zbGF0ZSgxNDUwLjQgMzg1Mi4wOSkgcm90YXRlKC00NSkiIHkyPSItMzI4Mi4xMSIgeDI9IjE2OTEuNTciIHkxPSItMzI4Mi4xMSIgeDE9IjE1NzQuMzYiIGlkPSJsaW5lYXItZ3JhZGllbnQtMyI+PHN0b3Agc3RvcC1jb2xvcj0iIzc1NGZhMCIgb2Zmc2V0PSIwIi8+PHN0b3Agc3RvcC1jb2xvcj0iIzZkNGI5YiIgb2Zmc2V0PSIwLjIxIi8+PHN0b3Agc3RvcC1jb2xvcj0iIzU4M2U4YiIgb2Zmc2V0PSIwLjUyIi8+PHN0b3Agc3RvcC1jb2xvcj0iIzM2MmI3MyIgb2Zmc2V0PSIwLjkiLz48c3RvcCBzdG9wLWNvbG9yPSIjMmMyNTZjIiBvZmZzZXQ9IjEiLz48L2xpbmVhckdyYWRpZW50PjxsaW5lYXJHcmFkaWVudCB4bGluazpocmVmPSIjbGluZWFyLWdyYWRpZW50LTMiIHkyPSItMzIyNi40MSIgeDI9IjE2OTEuNTciIHkxPSItMzIyNi40MSIgeDE9IjE1NzQuMzYiIGlkPSJsaW5lYXItZ3JhZGllbnQtNCIvPjxsaW5lYXJHcmFkaWVudCB4bGluazpocmVmPSIjbGluZWFyLWdyYWRpZW50IiB5Mj0iLTMyNTQuMDQiIHgyPSIxNjkxLjU3IiB5MT0iLTMyNTQuMDQiIHgxPSIxNTc0LjM2IiBpZD0ibGluZWFyLWdyYWRpZW50LTUiLz48bGluZWFyR3JhZGllbnQgeGxpbms6aHJlZj0iI2xpbmVhci1ncmFkaWVudC0zIiB5Mj0iLTMyNTQuMDQiIHgyPSIxNzA0LjAxIiB5MT0iLTMyNTQuMDQiIHgxPSIxNTYzLjI0IiBpZD0ibGluZWFyLWdyYWRpZW50LTYiLz48bGluZWFyR3JhZGllbnQgeGxpbms6aHJlZj0iI2xpbmVhci1ncmFkaWVudCIgeTI9Ii0zMjM5LjY0IiB4Mj0iMTcwNC4wMSIgeTE9Ii0zMjM5LjY0IiB4MT0iMTU2My4yNCIgaWQ9ImxpbmVhci1ncmFkaWVudC03Ii8+PGxpbmVhckdyYWRpZW50IHhsaW5rOmhyZWY9IiNsaW5lYXItZ3JhZGllbnQiIHkyPSItMzI0Ny42OSIgeDI9IjE3MDQuMDEiIHkxPSItMzI0Ny42OSIgeDE9IjE1NjMuMjQiIGlkPSJsaW5lYXItZ3JhZGllbnQtOCIvPjxsaW5lYXJHcmFkaWVudCB4bGluazpocmVmPSIjbGluZWFyLWdyYWRpZW50IiB5Mj0iLTMyNjguMDQiIHgyPSIxNzA0LjAxIiB5MT0iLTMyNjguMDQiIHgxPSIxNTYzLjI0IiBpZD0ibGluZWFyLWdyYWRpZW50LTkiLz48L2RlZnM+PHRpdGxlPkNvcmVETlNfQ29sb3VyX0ljb248L3RpdGxlPjxwYXRoIHRyYW5zZm9ybT0idHJhbnNsYXRlKC0yMjQuMjkgLTMyMy4wNykiIGQ9Ik0yNzAuMTMsMzk5LjIxYTE1Ljc1LDE1Ljc1LDAsMCwwLTIuODIsMy44MiwxNS43NSwxNS43NSwwLDAsMSwyLjgyLTMuODJaIiBjbGFzcz0iY2xzLTEiLz48cGF0aCB0cmFuc2Zvcm09InRyYW5zbGF0ZSgtMjI0LjI5IC0zMjMuMDcpIiBkPSJNMzE3LjcyLDM2NS41M2E4LjQsOC40LDAsMCwxLDYsMi40N2w0Ljg5LDQuODloMEwzMjMuNjksMzY4QTguNCw4LjQsMCwwLDAsMzE3LjcyLDM2NS41M1oiIGNsYXNzPSJjbHMtMiIvPjxwYXRoIHRyYW5zZm9ybT0idHJhbnNsYXRlKC0yMjQuMjkgLTMyMy4wNykiIGQ9Ik0yNzAuMTEsMzcxLjQyYTEzLjg5LDEzLjg5LDAsMCwxLDE5LjY1LDBsNC4wOSw0LjA5LDEyLjcxLTEyLjcxYTE1LjgyLDE1LjgyLDAsMCwxLDIyLjM0LDBsNC44OSw0Ljg5TDM0NiwzNTUuNDVsLTI2LjYzLTI2LjYzYTE5Ljc4LDE5Ljc4LDAsMCwwLTI3LjksMGwtNTUsNTVhMTkuNzksMTkuNzksMCwwLDAtMi45MiwyNC4xM2wuMTctLjE3WiIgY2xhc3M9ImNscy0zIi8+PHBhdGggdHJhbnNmb3JtPSJ0cmFuc2xhdGUoLTIyNC4yOSAtMzIzLjA3KSIgZD0iTTM0MS44OSw0MTkuMjdhMTMuOSwxMy45LDAsMCwxLTE5LjY1LDBsLTQuODQtNC44NC0xNiwxNmExNS44MiwxNS44MiwwLDAsMS0yMi4zNCwwbC00LjEzLTQuMTNMMjYzLDQzOC4yMWwyNC40OCwyNC40OGExOS43OCwxOS43OCwwLDAsMCwyNy45LDBsNTUtNTVhMTkuNzksMTkuNzksMCwwLDAsNC4zNS0yMS4yOGwtMS43OCwxLjc4WiIgY2xhc3M9ImNscy00Ii8+PHBhdGggdHJhbnNmb3JtPSJ0cmFuc2xhdGUoLTIyNC4yOSAtMzIzLjA3KSIgZD0iTTI5Ni4xNiw0MjUuMjVoMGE4LjM5LDguMzksMCwwLDEtMi43OSwxLjg1LDguNDYsOC40NiwwLDAsMS05LjE0LTEuODVsLTQuMTMtNC4xMy00Ljc3LTQuNzdhOC40NCw4LjQ0LDAsMCwxLDAtMTEuOTNoMEwyOTksMzgwLjcxLDMxMS43NiwzNjhoMGE4LjM5LDguMzksMCwwLDEsNC4zNS0yLjMxLDguNTIsOC41MiwwLDAsMSwxLjYxLS4xNSw4LjQsOC40LDAsMCwxLDYsMi40N2w0Ljg5LDQuODksNS4yMS01LjIxaDBsLTQuODktNC44OWExNS44MiwxNS44MiwwLDAsMC0yMi4zNCwwTDI5My44NCwzNzUuNWwtMjMuNzEsMjMuNzFhMTUuNzUsMTUuNzUsMCwwLDAtMi44MiwzLjgycS0uMzYuNjktLjY1LDEuNGExNS43OSwxNS43OSwwLDAsMCwzLjQ2LDE3LjEybDQuNzcsNC43Nyw0LjEzLDQuMTNhMTUuODIsMTUuODIsMCwwLDAsMjIuMzQsMGwxNi0xNi01LjIxLTUuMjFaIiBjbGFzcz0iY2xzLTUiLz48cGF0aCB0cmFuc2Zvcm09InRyYW5zbGF0ZSgtMjI0LjI5IC0zMjMuMDcpIiBkPSJNMzcyLjk0LDM4OC4yMmwxLjc4LTEuNzhhMTkuNTIsMTkuNTIsMCwwLDAtMi42NC00LjYzQzM3Mi40NywzODMuOTMsMzcyLjc2LDM4Ni4wNywzNzIuOTQsMzg4LjIyWiIgY2xhc3M9ImNscy02Ii8+PHBhdGggdHJhbnNmb3JtPSJ0cmFuc2xhdGUoLTIyNC4yOSAtMzIzLjA3KSIgZD0iTTIzMy43Niw0MDcuNzdsLS4xNy4xN2MuMTEuMTguMjEuMzcuMzMuNTVDMjMzLjg2LDQwOC4yNSwyMzMuOCw0MDgsMjMzLjc2LDQwNy43N1oiIGNsYXNzPSJjbHMtNyIvPjxwYXRoIHRyYW5zZm9ybT0idHJhbnNsYXRlKC0yMjQuMjkgLTMyMy4wNykiIGQ9Ik0zMTIsMzg5LjQybDE2LjUzLTE2LjUzTDMyMy42OSwzNjhhOC40LDguNCwwLDAsMC02LTIuNDcsOC41Miw4LjUyLDAsMCwwLTEuNjEuMTUsOC4zOSw4LjM5LDAsMCwwLTQuMzUsMi4zMUwyOTksMzgwLjcxbC45MS45MWExMy44OSwxMy44OSwwLDAsMSwwLDE5LjY1TDI4MC4xLDQyMS4xMmw0LjEzLDQuMTNhOC40NCw4LjQ0LDAsMCwwLDExLjkzLDBsMTYtMTYtLjE1LS4xNUExMy44OSwxMy44OSwwLDAsMSwzMTIsMzg5LjQyWiIgY2xhc3M9ImNscy04Ii8+PHBhdGggdHJhbnNmb3JtPSJ0cmFuc2xhdGUoLTIyNC4yOSAtMzIzLjA3KSIgZD0iTTMxMiwzODkuNDJsMTYuNTMtMTYuNTNMMzIzLjY5LDM2OGE4LjQsOC40LDAsMCwwLTYtMi40Nyw4LjUyLDguNTIsMCwwLDAtMS42MS4xNSw4LjM5LDguMzksMCwwLDAtNC4zNSwyLjMxTDI5OSwzODAuNzFsLjkxLjkxYTEzLjg5LDEzLjg5LDAsMCwxLDAsMTkuNjVMMjgwLjEsNDIxLjEybDQuMTMsNC4xM2E4LjQ0LDguNDQsMCwwLDAsMTEuOTMsMGwxNi0xNi0uMTUtLjE1QTEzLjg5LDEzLjg5LDAsMCwxLDMxMiwzODkuNDJaIiBjbGFzcz0iY2xzLTkiLz48cGF0aCB0cmFuc2Zvcm09InRyYW5zbGF0ZSgtMjI0LjI5IC0zMjMuMDcpIiBkPSJNMjk2LjE2LDQyNS4yNWgwYTguMzksOC4zOSwwLDAsMS0yLjc5LDEuODVBOC4zOSw4LjM5LDAsMCwwLDI5Ni4xNiw0MjUuMjVaIiBjbGFzcz0iY2xzLTUiLz48cGF0aCB0cmFuc2Zvcm09InRyYW5zbGF0ZSgtMjI0LjI5IC0zMjMuMDcpIiBkPSJNMjk2LjE2LDQyNS4yNWgwYTguMzksOC4zOSwwLDAsMS0yLjc5LDEuODVBOC4zOSw4LjM5LDAsMCwwLDI5Ni4xNiw0MjUuMjVaIiBjbGFzcz0iY2xzLTEwIi8+PHBhdGggdHJhbnNmb3JtPSJ0cmFuc2xhdGUoLTIyNC4yOSAtMzIzLjA3KSIgZD0iTTI4MC4xLDQyMS4xMmgwbDQuMTMsNC4xM2E4LjQxLDguNDEsMCwwLDAsNiwyLjQ3LDguNDEsOC40MSwwLDAsMS02LTIuNDdaIiBjbGFzcz0iY2xzLTUiLz48cGF0aCB0cmFuc2Zvcm09InRyYW5zbGF0ZSgtMjI0LjI5IC0zMjMuMDcpIiBkPSJNMjgwLjEsNDIxLjEyaDBsNC4xMyw0LjEzYTguNDEsOC40MSwwLDAsMCw2LDIuNDcsOC40MSw4LjQxLDAsMCwxLTYtMi40N1oiIGNsYXNzPSJjbHMtMTEiLz48cGF0aCB0cmFuc2Zvcm09InRyYW5zbGF0ZSgtMjI0LjI5IC0zMjMuMDcpIiBkPSJNMzExLjc2LDM2OGgwYTguMzksOC4zOSwwLDAsMSw0LjM1LTIuMzFBOC4zOSw4LjM5LDAsMCwwLDMxMS43NiwzNjhaIiBjbGFzcz0iY2xzLTUiLz48cGF0aCB0cmFuc2Zvcm09InRyYW5zbGF0ZSgtMjI0LjI5IC0zMjMuMDcpIiBkPSJNMzExLjc2LDM2OGgwYTguMzksOC4zOSwwLDAsMSw0LjM1LTIuMzFBOC4zOSw4LjM5LDAsMCwwLDMxMS43NiwzNjhaIiBjbGFzcz0iY2xzLTEyIi8+PHBhdGggdHJhbnNmb3JtPSJ0cmFuc2xhdGUoLTIyNC4yOSAtMzIzLjA3KSIgZD0iTTIzNi41LDQxMS43MWExOS42LDE5LjYsMCwwLDEtMi41OS0zLjIxYy0uMTItLjE4LS4yMi0uMzctLjMzLS41NWwtNS4yMyw1LjIzYTEzLjg5LDEzLjg5LDAsMCwwLDAsMTkuNjVsMTAuMiwxMC4yYTEzLjksMTMuOSwwLDAsMCwxOS42NSwwbDMuMjUtMy4yNSwxLjE2LTEuMTYuMzktLjM5WiIgY2xhc3M9ImNscy02Ii8+PHBhdGggdHJhbnNmb3JtPSJ0cmFuc2xhdGUoLTIyNC4yOSAtMzIzLjA3KSIgZD0iTTI3MC4xMyw0MjEuNTZhMTUuNzksMTUuNzksMCwwLDEtMy40Ni0xNy4xMnEuMjktLjcxLjY1LTEuNGExNS43NSwxNS43NSwwLDAsMSwyLjgyLTMuODJoMGwyMy43MS0yMy43MS00LjA5LTQuMDlhMTMuODksMTMuODksMCwwLDAtMTkuNjUsMGwtMzYuMzUsMzYuMzVjMCwuMjQuMTEuNDguMTUuNzJhMTkuNiwxOS42LDAsMCwwLDIuNTksMy4yMUwyNjMsNDM4LjIxbDExLjg5LTExLjg5WiIgY2xhc3M9ImNscy03Ii8+PHBhdGggdHJhbnNmb3JtPSJ0cmFuc2xhdGUoLTIyNC4yOSAtMzIzLjA3KSIgZD0iTTI2Ni42Nyw0MDQuNDRhMTUuODgsMTUuODgsMCwwLDAsLjY1LDEzLjNBMTUuODgsMTUuODgsMCwwLDEsMjY2LjY3LDQwNC40NFoiIGNsYXNzPSJjbHMtNyIvPjxwYXRoIHRyYW5zZm9ybT0idHJhbnNsYXRlKC0yMjQuMjkgLTMyMy4wNykiIGQ9Ik0yODAuMSw0MjEuMTIsMzAwLDQwMS4yN2ExMy44OSwxMy44OSwwLDAsMCwwLTE5LjY1bC0uOTEtLjkxLTIzLjcxLDIzLjcxYTguNDQsOC40NCwwLDAsMCwwLDExLjkzWiIgY2xhc3M9ImNscy03Ii8+PHBhdGggdHJhbnNmb3JtPSJ0cmFuc2xhdGUoLTIyNC4yOSAtMzIzLjA3KSIgZD0iTTI3NS4zNCw0MTYuMzVhOC40MSw4LjQxLDAsMCwxLTIuNDctNiw4LjQxLDguNDEsMCwwLDAsMi40Nyw2bDQuNzcsNC43N2gwWiIgY2xhc3M9ImNscy03Ii8+PHBhdGggdHJhbnNmb3JtPSJ0cmFuc2xhdGUoLTIyNC4yOSAtMzIzLjA3KSIgZD0iTTI3NS4zNCw0MDQuNDJhOC4zOSw4LjM5LDAsMCwwLTEuODUsMi43OSw4LjM5LDguMzksMCwwLDEsMS44NS0yLjc5WiIgY2xhc3M9ImNscy03Ii8+PHBhdGggdHJhbnNmb3JtPSJ0cmFuc2xhdGUoLTIyNC4yOSAtMzIzLjA3KSIgZD0iTTMyOC41OCwzNzIuODksMzEyLDM4OS40MmExMy44OSwxMy44OSwwLDAsMCwwLDE5LjY1bC4xNS4xNSwyMC4zOS0yMC4zOWE4LjM5LDguMzksMCwwLDAsMi4zMS00LjM1LDguNTIsOC41MiwwLDAsMCwuMTUtMS42MSw4LjQxLDguNDEsMCwwLDAtMi40Ny02WiIgY2xhc3M9ImNscy02Ii8+PHBhdGggdHJhbnNmb3JtPSJ0cmFuc2xhdGUoLTIyNC4yOSAtMzIzLjA3KSIgZD0iTTMzMi41OSwzODguODNhOC4zOSw4LjM5LDAsMCwwLDIuMzEtNC4zNSw4LjM5LDguMzksMCwwLDEtMi4zMSw0LjM1WiIgY2xhc3M9ImNscy02Ii8+PHBhdGggdHJhbnNmb3JtPSJ0cmFuc2xhdGUoLTIyNC4yOSAtMzIzLjA3KSIgZD0iTTMzMi41OSwzNzYuOWE4LjQxLDguNDEsMCwwLDEsMi40Nyw2LDguNDEsOC40MSwwLDAsMC0yLjQ3LTZsLTQtNGgwWiIgY2xhc3M9ImNscy0xMyIvPjxwYXRoIHRyYW5zZm9ybT0idHJhbnNsYXRlKC0yMjQuMjkgLTMyMy4wNykiIGQ9Ik0zMzcuNzksMzk0YTE1LjcxLDE1LjcxLDAsMCwwLDMuNDctNS4yMiwxNS43MiwxNS43MiwwLDAsMS0zLjQ3LDUuMjJaIiBjbGFzcz0iY2xzLTEzIi8+PHBhdGggdHJhbnNmb3JtPSJ0cmFuc2xhdGUoLTIyNC4yOSAtMzIzLjA3KSIgZD0iTTM0MS4yNiwzODguODFxLjI5LS43MS41MS0xLjQ1YTE1LjgxLDE1LjgxLDAsMCwwLTQtMTUuNjdsLTQtNC01LjIxLDUuMjEsNCw0YTguNDEsOC40MSwwLDAsMSwyLjQ3LDYsOC41Miw4LjUyLDAsMCwxLS4xNSwxLjYxLDguMzksOC4zOSwwLDAsMS0yLjMxLDQuMzVoMEwzMTIuMiw0MDkuMjJsNS4yMSw1LjIxTDMzNy43OSwzOTRBMTUuNzIsMTUuNzIsMCwwLDAsMzQxLjI2LDM4OC44MVoiIGNsYXNzPSJjbHMtMTMiLz48cGF0aCB0cmFuc2Zvcm09InRyYW5zbGF0ZSgtMjI0LjI5IC0zMjMuMDcpIiBkPSJNMzgzLjY0LDM1Ny44N2wtMTAuMi0xMC4yYTEzLjg5LDEzLjg5LDAsMCwwLTE4LjY0LS45MWMtLjM1LjI4LS42OC41OS0xLC45MWwtNi41OCw2LjU4LTEuMTYsMS4xNiwwLDAsMjQuMzYsMjQuMzZhMjAuNywyMC43LDAsMCwxLDQuMzUsNi42Mmw4LjkyLTguOTJBMTMuOSwxMy45LDAsMCwwLDM4My42NCwzNTcuODdaIiBjbGFzcz0iY2xzLTEzIi8+PHBhdGggdHJhbnNmb3JtPSJ0cmFuc2xhdGUoLTIyNC4yOSAtMzIzLjA3KSIgZD0iTTMzNy43OSwzNzEuNjlhMTUuODEsMTUuODEsMCwwLDEsNCwxNS42N3EtLjIyLjczLS41MSwxLjQ1YTE1LjcxLDE1LjcxLDAsMCwxLTMuNDcsNS4yMmgwTDMxNy40LDQxNC40Mmw0Ljg0LDQuODRhMTMuOSwxMy45LDAsMCwwLDE5LjY1LDBsMzEtMzFjLS4xOC0yLjE1LS40Ny00LjI5LS44NS02LjQxYTE5LjYyLDE5LjYyLDAsMCwwLTEuNzEtMkwzNDYsMzU1LjQ1bC0xMi4yMywxMi4yM1oiIGNsYXNzPSJjbHMtNiIvPjxwYXRoIHRyYW5zZm9ybT0idHJhbnNsYXRlKC0yMjQuMjkgLTMyMy4wNykiIGQ9Ik0zMzcuNzksMzcxLjY5YTE1LjgxLDE1LjgxLDAsMCwxLDQsMTUuNjcsMTUuODEsMTUuODEsMCwwLDAtNC0xNS42N2wtNC00aDBaIiBjbGFzcz0iY2xzLTYiLz48L3N2Zz4=;" parent="UEzPUAAOIrF-is8g5C7q-2" vertex="1">
          <mxGeometry x="637.55" y="171" width="67.45" height="60" as="geometry" />
        </mxCell>
        <mxCell id="30" value="" style="image;sketch=0;aspect=fixed;html=1;points=[];align=center;fontSize=12;image=img/lib/mscae/Docker.svg;" parent="UEzPUAAOIrF-is8g5C7q-2" vertex="1">
          <mxGeometry x="211" y="320" width="30" height="24.6" as="geometry" />
        </mxCell>
        <mxCell id="31" value="" style="image;sketch=0;aspect=fixed;html=1;points=[];align=center;fontSize=12;image=img/lib/mscae/Docker.svg;" parent="UEzPUAAOIrF-is8g5C7q-2" vertex="1">
          <mxGeometry x="361" y="320" width="30" height="24.6" as="geometry" />
        </mxCell>
        <mxCell id="32" style="html=1;entryX=0.9;entryY=0.498;entryDx=0;entryDy=0;entryPerimeter=0;" parent="UEzPUAAOIrF-is8g5C7q-2" source="29" target="ei1fRvyxPQEVMclzIhYJ-14" edge="1">
          <mxGeometry relative="1" as="geometry" />
        </mxCell>
        <mxCell id="39" style="edgeStyle=orthogonalEdgeStyle;html=1;elbow=vertical;curved=1;" parent="UEzPUAAOIrF-is8g5C7q-2" source="12" target="ei1fRvyxPQEVMclzIhYJ-13" edge="1">
          <mxGeometry relative="1" as="geometry">
            <Array as="points">
              <mxPoint x="190" y="155" />
            </Array>
          </mxGeometry>
        </mxCell>
        <mxCell id="40" value="Register Request" style="edgeLabel;html=1;align=center;verticalAlign=middle;resizable=0;points=[];" parent="39" vertex="1" connectable="0">
          <mxGeometry x="-0.5176" y="-5" relative="1" as="geometry">
            <mxPoint x="-11" y="4" as="offset" />
          </mxGeometry>
        </mxCell>
        <mxCell id="80" style="edgeStyle=orthogonalEdgeStyle;html=1;entryX=0.5;entryY=0;entryDx=0;entryDy=0;curved=1;" parent="UEzPUAAOIrF-is8g5C7q-2" source="74" target="79" edge="1">
          <mxGeometry relative="1" as="geometry" />
        </mxCell>
        <mxCell id="83" style="edgeStyle=none;html=1;" parent="UEzPUAAOIrF-is8g5C7q-2" source="74" target="64" edge="1">
          <mxGeometry relative="1" as="geometry" />
        </mxCell>
        <mxCell id="104" style="html=1;entryX=0;entryY=0.5;entryDx=0;entryDy=0;entryPerimeter=0;edgeStyle=orthogonalEdgeStyle;" parent="UEzPUAAOIrF-is8g5C7q-2" source="74" target="ei1fRvyxPQEVMclzIhYJ-13" edge="1">
          <mxGeometry relative="1" as="geometry">
            <Array as="points">
              <mxPoint x="257" y="155" />
            </Array>
          </mxGeometry>
        </mxCell>
        <mxCell id="74" value="Prow CI" style="shape=image;verticalLabelPosition=bottom;labelBackgroundColor=default;verticalAlign=top;aspect=fixed;imageAspect=0;image=data:image/webp,UklGRjiUAABXRUJQVlA4WAoAAAAYAAAA/wAA/wAAQUxQSJtTAAABHAVt2zAOf9g7GCJiAtytykj7ob8YxXdt7XUj27b1AwR4B+8gJd4UmZHPw41RhgnDwcs0YhoxDZh+zKcb8f8fyJgORIQEAWzjtlGhdlcEgLJES5b3AI/b/yuu1f7/8J5rrZlMbJJMkonL3vvAAQ7u3tLi0OKuPRWk9q4DdaW41pW6F6m7uyvuUryCnp1k1nXNer1ek70/n4iQKNlu3TYwUMtJzIsLiQSf/QCKfCmlfkyF1lpBTTEVSj1REderf9B2RKGOByESkqdGn3yZPImoMLAkmcElsxEVqcIqMlyyTMOSYhVkYyoitm3Etsmx0SR/ZjuN2VYPbAdFsFuywlQpKGlpyhT5rkyZId+VLQqoIs2QCl1lWamAtTLLKuS1yNMqQSoKC1Vkpa0MUlFZHITaQtumsmUeCQK2neYFYdulwrZhENg1qKyWohpNts2k78aQaTLpu7WkG+nHXOqUq4CKnFRVK2GmLYlKp4RvF1S0wpqqK0V5a0SpnKKsNRHbqVTRYtsZtw2DkLRVJAjSdtIWlz2pQjXBdsNVcD1FmwgV1ojrNGGl7HXwNOas5IMJnoacOx1CPHRfsmKZGtU5oaJkDrm7pK+JiOpOM08dVzEkhLSVo2XFdSoYFCoqbnvgqEbDLBWsFCO3zUOdchWDg0HQnbANgoBtdxrb7nmcM9nFSR2c16OQM5dBnLfclQ8qMs+bSyYXfHseDT20QdnMvJHqe0WU+IabaUZNpEepwidSWbA4B1NtUBYsziEAbuK2c58xZdh2OWPbGVMWLAbbKQtTsBhMGY+CgG2PGtsOFlWFhqPtUnJeXv/5q6JqkZ2SLtWlRA5yMzeUvuQVr31/qXBChRpHMksnzXRea49ULIbGUTp1r5R6L8d7daloZmS7oOaFbVcR2wVQkcxdJAjBNgyC0jOyPWsFbLMY8ytTuuvbyaDJ6TUsaI7Llm5B85hZ+qVGM940Lg2axsZp7pGZ3nusYp5GDVQ0y+gRm7vMINvlMryw7eEFbc/DUsIgjCEIANPcEklMox+Q7cGPk0JGx67TmLXdalIoRr86pJ+aXz1UUX15qKL4vBRSkZ1rAjPlvhuYKdczI6Tx9SmgUf9VkQLyx68GauoituuvkRQMwgw15ecbBtMeG1Sht8NCFcua4lqP1Rt1Z7M1e4Mug63ZkIp8a98oDtneLRNyug3TokCg38PwTkBUlmnYkPNp6fYM9fO73XKk4jIKg7Bj2+XusO0rCNh2t2Db4xUEaHuEQfC+8QaVajJUAK9uz6k8nXR6lJTvTjo9GrJ7B1R0lADnZptISedczyS8cj3Txr1yPd0h0e2WGqTiyC+zIAgntB30BNuRIEyg9pfZGdjmQUC2YRDmVxLmeVmKkGKBV3dFQFH5cdzp5VtdDpkKQWD3npX87NiA8mKYTdIhUuPXhJCaaTeE1HRnzq+zqxI5ge7MmF0RhA+wzdUg20KNCQBqkhXYlkEQBDgIrAPqQfOStwkRB/IfwP0jj8G/9Ciq8Cj8S4+yM7hXqYVD+ueQlRuWncENsyptiyBI2zII3LDsDAZkmxvmtnEQVt5e1TKCtE6IhNeKmtDtAg1VwilRdjaUg8Fo9wFU5hJe/2p5qWTzRAJbol7Bt4CVVQR5EJXIXSr6M8dB+CDbLAgR245I4LJ99EQSwTYMQrANg7AA20UduijXcIod4PxXHgOc/4q9X9H8Z9dx6wnNcROc/9QyL54IYJmBb6LpkpjAKXZc0WTcrOOe4yAcJZzvx63EtnEQtukNg7B6aFst3kPblySYGsOK0CAZiobvlhRQ0f0ZoIrme4Iqqt8vqDf/hXOc/RwJZD0+Fue/XzmhOLx+Y9b520EVw58Oqmi/cRDqb8xa/l4VUpF9YdvmPA0OwhfO/qkhnRvI2sOurrZub25/y4/+PcCOH18edvzo4d3Iy4+wq/1rhKTDuz8wa78XkLXbKhSEvcXZf28jtvvVE2S9SO9+U8sCSSnPFJF1Eu7Iw1BHAz/w3Pzj/OzDUIcDHw31ZPXxjOcB/JaQB7dj/WHhTNOduZz2RGvViYOQHw6zHj2chew+Qdv64rnzx7w1GISSr07TDk/8LkBO8gF3PiZas3sPJn4+1T/NeJxAkgKiLoATyLTH7fNM8zT7AwIjkKxe8MQ+JmoCg1DL3YBstHcdS8QcB6Lbjp9kPOSYg7PK9nhzd3v/Wfa/2/sC8d4HRHzmbwYN5hSfkttvX/Gf0Has6e72Fc+bjl3xuO01QaSQtYuwujM6+p9l/3ujHyA2+gMrvu2F6z6qfLvmsRkPkvZrhGzrn8x4rycZ74VnPL/2m8Wkew5Jo7P/Vt3P/tvwaPYPtmEQMOs0d2yhi5yf9ZOMF2F13zOpBxlv1/cznt4jGW/9XUZIHTQzRbJ//6d/kP3Lh9kf2zZnJPu/wyiLfXtyxzPsOOPduOP5//nWv6cn3/Zhy3/y24O7P//C3144CNMyTBqVYmZ//OCOt/xA1jt3vD/6x4g1kN7948tyc2Y/+ceP7v6lbbVE7v7HzVA3Xoh+7P6KRyK0dm/F88Mf40ScNP4xbpgH4Sc/dnv1h0nXBAVBrP+bThHF7ztU8Aj8K+5RIhBJ/9Ijdy7bEwSxjCfb4wSSlUO2xwl4f6MgPL/viNvmwRC2JamoQg3s77pRTHcN7zvlNS4ikB8uQnp7x2MfgG9iCmIZD7UdFEDWab9x3/kpURCe33fetG12bhuTrgkKAhzvZaWIdJ7AdUe7V0jF0e4NJMWs+d5yp7Lrf3Ldcf0akkbXHUcZCcLDdcdt23YPtjHpmuAgQNt5qp6tO/vvIUI6P1p3ruqn1p1qxetO9Y6tO4NtHIQfW3fmv56sO+3nY++vOyk10X2Hccsh67SXsKunDWc8vzaRjNff2ndQSmv92tbNJAqxYtLVQ9LmMprjIOylNvxLVZ/5bLgKrcK+wxPb8xwhfUFSmt7zDGumb+07wRzXfErEGkjh4M7PBme8o49kvFklhhksSqI0JaUQ65rAmcbvBk50/ZnjIIwgRHVCqlIyXnzf6YFtTLppfZGiiQ6SFrV6tO/IfDmqtLRURVQhDZheTNOAwFsbQxbj/HiLQ057/otf84YLnleC4kBOxUzTdCpQrFGlQGbfN517nnud/94r3n3+uy973/nvPv8dL9oczZXRbisZdE0kD7fIlcl9x4f7zigaAlBxLKBy5rTJF5irbp+waRzxiiu++bdHly15Jfa3Y2iKSpWHmCq/w9Qbbgf9JrFzvTZ8bw+YOWnToDJQwThEDyNt9QBIKm/wVv+RhyGGSUc1AZSgivnP9GIx/3kuHdT3f9f37puxKM2m08lksmy/A4oqaDTKS6C0hjMlqApvS+/XdDLHa5bYx46Hno82QRVAmUmAEc7VObzudL5eS3jj3x5NhDSSWsOhjJofVsSMF4yqhdrweV++n5Q3nUxnifDgJNM9i0NfBJVR415VRI0GKarCOXY6tXO+pnZ6IIxEW9Baq6NEUBE1WTGrWib3cN353WPSrHFnBmpR8sIYmM3OuPo/NrHJRPiuIMmJ7cJqjjsVdt7gXJ9fb65DzTHuDBb7OgNUHndGWPV7T3HN/fCy8OHeFCFtZcx4t/ohhFh3Wyz/GQ1scsm96U+m07niNbOPbR+1lYwqgob9Vk+k3XP5/tN2YlfwmthXwGO0ZVQRVLc6KaiI+po1sr2Mg0IlmwvqNovmlkCKWEmjIFRnsU0yPQaqNbDbF550rUwiP2uzCfmSk8thOm0lo/aM2LTFA09Erfe691mZQSbAzH4XSqLNE14GaF97Q0Gnw0DSfjM0DqCkY8bFcN8fh0hFa2GqQnMuqOnFtLWBwp5fm6b1YSY9aJOJFLdk9tileZBWUcotTrlxUA6kCodOM6stcV+6D/dU4PViAZSSkkF7hidIboqTgkqqa9GpE/D4lzirRCASYiPxKI7ljFfqqS2+PEv/XmpjqQtP/P0bHz3/rOMO3vcZB2+jFKhyVKr8nnJlI02NQ8kzNrWf2GHvvfZ65gHHHvDMZz1z32MOftau37NTJ//roh8DVBklAZQC0UABSwA9V6FacfW4lEjeFGLWI5esNDoOVaqa3LRB78NPilfkJ8kNn33VPovkPgZAvq6UAosONUEr45Iifen0lz4faGvsZxOpfQFydQ1EBRh80E6c/HfYJCMPCkrWkk3qPQftGamd4GNaAmV/VZdEkedOw+rOBpK6o5e8GIUianHEMp5ROO524Yo68Pj33rx/kVIzJjdq1aUdJ6rTSk0ErfD7bDTiXjgsIUteh5zWWiMah8MmtI+PMdmuqiBo2Oky7xUB7RkRlLFKzB1SoYqw7kRVkf/uIqwj1FRbkod6ZZLxlIf+l9J6lkhXG777/I06IaA9oxQbd+ag5l933KiM+MAXvOCgFpRBy4FmyWvhMdppEBQMPkrl8a2ghSAUUp8Gh6w/5RklaJ057kw/n/TJc8eEEnhItQz5D7OuuYjaEUFNx4Eag6P/JbS2s1li7z53c4VKb9gQuzTdThMialvMf+G4vNllD7pW9eEPbYSw52jPITzf9/IQJE3jUoBMq3zgV//nHL31NQWCGkkyrmssCLOOnfrNKg1nk2G3iJWRShU4FEBNz4HWkL/UJuRbFPBvp0euag20J1XYyGW8mEstJSKBhktqu7vTq+k0vfj3C6OQNxEGB8hCWhMXBEn+s2m/LFj0tgn3/mfd6kim7Q9jDmC7j5BmtZbnXRkBW2n2u5WsiJSWxpWVVqmv+wX7Kfnl9ScXoIyKe4bnP0pDylBpaQyUGXZ8yE4S7vgbYVQzVW0keV0qhAYNgsbHmLTgmlti9Y/yzt5s2d64FTSlzYAYKQiCIAXrbXEsVVYOycrBeTPlYfSw/4Np0DjIva9c1PAU6U1QTwUSXCkQVcFmVmqyz4ZB0zUTlcN+SGRq3wIj0h4V8aFU3Otjz6hVPGWcfZzTJ3fqb30Y56mAyhAJwqzYWV7QvhuTUBEpZh3maXeOKw2iMlj/lJ2yn9rl97dRWKxC6E065tJDTH0lQFyZTa3YO0vVU/nGduffadn9tC+KStJThMoi3sDE2r++a3cffruePokZY5K/D4nWCSokHUAQ3heq2RL46sZyd5C0OnpIWurVJS9G5Q6116YNLbe/7uk8CUZhgxtc/qvJGa9RdagCqGyzKddzoPf9zoR7ktgn1pRGBXG+t1Y/mN0SV9Ee++Ie5Vp6zejPsrTWkAa69hgjQZiqV2ThNRyoEo3fPNAo40FSB6o03mmn/NmYXViC0VDIL/QFA/zRSLy13mAsoqruxloyy2KZtpuXf8NKeXxivwJVX6rLtDf6k51JWT753OfsVOiZJ7LmUtoZQcCk7y2LrDtnPyeQ9fVmklHGE1EdqMG7uU3tPQdDU6cb3V4oSa3Xq4le9Lvi7QsXSvs+YKfM85980Cbswso9WPu/bRF05SCYXrg+ZSx45vxk9+7JN//RTiXVjSzaEVL38r1CJVuqK2YS+acXpDjjSe1HuBASY3/2m3XwKIe4r6VhICKX8SIRVQQN12CXR1jEUs83wzl2xm7jVBq5Wfs8BIM6CwJvMs1ldkYGeLKfs2TD8dj6r5L2ywsy7T5C2hyZ8j0o6VQQSbDWxIyJM55gQK321pQgsw+UOnVQ6xk+DKSOE6+55SXQjNKm9leb+AZnOxXb4En6IN53ZGoRDYJAWyF42xNi3WS2fGx+Af2/CWRu3FoA5cIlKY8ifCeBbM+H1RTAiaRXrpyqiPpqyd4AVXJDBwZElLvN/WZAVCVUyRScukiKLcpfXt9JSURCEKT7Zp55+T+dy7MMG2mNvnT5twFMRvYHaI4MvpNCicuISESOswKvdo8kUMbb4LnThP42mZ4Go9xYlaEylVCd5xKq8zz7+hdrUwPR2TThV/dddsAI7loKgvTYqqBa2/sT/3WZhlXQDccWRsY5PxB/OaTKggBJmyODr0SRLlIiiXdxouHYbzjjVYbFruOtseWDdsbu9kkgib2YgRqMylWhpXD5j6BybZSXlGg/35gYYPCSp9M7mRaT2H+8tAk0x8W+HISgG4teqNLWb7grdXHmprUePZLYPKozs785RoeCoKtUkTVECL96nIx/D1FWBYUGY5Ykk2OpAYUM1GA8lDPecBwAgvbXqK0fFGLzs00CpVgUsPVXHk8jOfnN+gKUMWhm0I6WmhmgXYXoNf+YpY7ef8Xa5lADgk4Yqb+0ocjGSGPZP02USRVkXZcEaQwZT0Z1oBqfshPWSVrPDY1eX0btZ3kh579w2Fq6XkJdiructtKItj355CO28qCMcrS7PZF2uycGQcW9XkEpBDsefdyz64iG/SK4Dv9pp1KvJZr93bZBUpNporxU4Hrp4W6ojWa82IFqvFwI2jugAY5aGIdijgsk0No4EPNfOC7jIuHB+PGanJZGocFCDaUS6BVpMeKhJ9EmzYfQb4erP8yr3kAXR1y9UAR9Diac/UPkIKnlT1zlG5NZaA3A3sh4QGUBW6fNHeV0gVp0XLmrxbGEKoCS0ggHbiUUbuCe/2hNTkmjUHevlOoOPZF2c+Bx2lIQiKtsfVAbozuOtqDNsXKgVD5XPC22fWSQNO2s4GyVeImGAOx+L+OFw19wStcoNx0vOOpUQmVKgSQW4biosP2EyMz+YMlVeaLU0WzaVBltxok5KvQF2BwjUeaoRqoz1zTYO9Yk2HYgCmB/mY2Asu0Vr8C5vZnxDN5C68zMXt+GRpgqralUBVQaR4bKmLNBKw5i9qOFvAJ4HPPDcE7aTYoqB6HbVkJfgE2xMmUjTYPOX5wm9n8DUsi2ZDXbRFTMGcwwPUvx0vk7u5PxKNa/SdAS++QuMEB6WSCoXMtijgtGYXWcF+r4oFYeF5HKvkSm9hue0sIoND+szE07HmShBoIBlWGeTLEK2iC1VqP0GyoPN0gJ223NFw/8l0PxghWoD6qiF82laL6Mp/B19jNhOjD8Qr6Jik+oCGcWyXgFEpONn2JvH5SOvLcXwxXQbizKqNFiSwZdlE8aFsd9auF37YxQ+6MHNV/297r9vGx+3GkoyYtuCjpPxjN4jp1R+zYvvbHtJU6xO4xfu2MV4aBfS0VB/Zx7/yGu+V4vXgntQdcTs38/A3Qgx68x6BeJfcdOaVFXwEioImih266K4rUqkA4H+QMCmp3xFHK/Zc3Zo+ugOar7lJD1IoWskDQcF2j+MzidFTRJVSlaQ9Gen3Y/zgBtZ4D2VSg923FKO/1CaozYzO4FLaCKoMVhwYjqNcog+U/gDcc8M+N5OI3ezhntcXDnOLi4QIpYASlxjjFS8H8p6AdTdc7NQbvVF2hngLYVuJLSeGvKnSuOC+XvSLTq5FmjzgmNOd1i4sUhE69WBChzzptqZsYr/Z3V5l9Fw7zgmoAIh4AgYuCucU4aO/Aph4m9CA5oHtqqzWlngLaVwJABUZXuTal7rWB/rOZGIXdN4MR32Jh6iYgOCwBnTm8OVznjLeB0+p7YA+GUVg4ZVT4cOCSrgPRoUlZhtPfDVJOpPQgL4Xy0VZvSzgCldZNwJKgCqGAGZ9ll1um8fgxFaQ8DgbbYQzPVgiOYDwCBeU4wF1df4A3UFv5sZ4TPddCuHjf7RmxULlZIKln5pJKiiqCFUQV7ppes692rzEtbtTNoxwOKyjXXEmi7IFBUKNRvt4lgmgyCU9QM2kIQTMnPWHcEWgs1Of+JGc/gRFZZ7DOgHaqc8erPZjEp72j5y1FBzHD9FNRzmtDasQv0vLRVvNCgDmjjebq9cU8rSRc6Iu0wRWXROYJGZ2avX4Dh2T+TtvDSgYGXkzPeQMx/pj0U8x++x96/QgLVyMh43b5DO90RYx2UJSmS/OfhGQ+z7teLYOalrQlt7bH4BkXHjG3mVPGw60nSGLJpZA9vsxNi/0iN0w6zaEti+LhTqpbttpIzHn+4Nfam1wnNZTHJeCIqJO0+6UUKx6QIWhxRUB8vslMib/bMvLR7sWqT+Ytg80NOe/0lV77x1Sevc24Y7eqkTkFFVBYEg/em4u7oHvB4nZyDNheP7LhXfNzpDSLa/HPekNpWr/BhFqdvQxF3hOZMtCbAWgOkTI4ASto8Gl+NLzN5YaHDGsU5aCtTCXsnf/LGZcteG/5x1XF1wHQdbaakNB4ED+8i/0ztm9w7cWcu2oxoNUcAVKWiyGgkAihzxhuC6njj21hv+SgYispUBEBAEAUgVsZcaPL9QQN78inT3TGIqTPZtLXC9p9J2ye+/XLqPLD3Xb5FqZkT+BIgIQgG68ntTOy/BlAkMvPRJr/06wFAtVZT8PsRwJlLGY/EWPVKhxBL7K01KAl1GIj+FzEWrBySlTEXM54/Dj5J4jOzfwkoR3+QSVtpbPzp9PvTCV2SYVN9ae1/6jNLMAqMcXPgiUEIt32AtWdvhnY1Yw7a/AnLxVJLqRt1vxcBAnNikrZ7+Ch7ni8J882MjHexYtJPDkkBK8l/UsZT2PVxFp6XwYPpN/1BJm0F8+r/kdWFrBeZbH74dChNtTn05CCMcQH7wz8v5MNRMCdt+P1qrlMEJG32q3LGGzfkgd+4herdlkRgsl1+sZOBuhqsYs8g6XHAZBQMJC88tnqc2JvJ0QrdGdeyaGt0v8lX4Oa5SOwX66RdqWXS7uWw0X9YDXlufRxk0xaId3oliGKanUZGxouVGIZhDwcSMjP7c9UYdT05xW7QXHtg0vo4IGvB5T9jjOd5vsn9iSXxs+GRYfCwAZl2B1veYsnGxXkvJvava5w2Rr3MIGjwBPHp+lKoPc8YzWiLQQi6nVC2ONTdVkbGaytI7UCnTOdKJ/Ycf6SjoS+jnhlcaV4jDY7Ci1TMePlFxtzgWSyHPzJ07/4w0r1YXBT3S3vfZyd2Ra+JvX1T6PQb2UEoYLcZ5fRAG6FmRB1tETQYlk1bUl0vA4Yr+Ybq9rTUDKL5e9ZPPjDyHUFfavjk5CZacxxMACBlbZ7ZZO+jTzn11FPXH/dt9n4VDCmNsBVMY8v73cOzUr11oTLUvNkXgjAK8CM7I3rx0We+8vmnnnz4Vj4KC0UBlDngNUvcqiVCuCuhKo1SVSlmGguP2YQ0E2MN0ulUgKaoDKAygJYYBNvo8ruk6sNHcIYCCUpK61y/YiM37c9jCDcfQhAWcXqm05O/vnkzKFCVSvKiAtt+WWAoPY6qFDY7/OAmFL02OMwmtC7DiUHj0CM2RjSUMh5jBe2KZgWIKaz/r1tWm03da0bt9h5DZcr6G/gy/e3KLz8Izb4rFlttb0r/2M6mhGXi5p+fCU2/KxZrqvmscafpt6mh/JFJMvvl1qAjXQ9vZ6U+H56zTX6RZv/39rIyXg5JLg5IWnD2creWnhm4iypNfxiJII62IQ/Oqrxm9kgYokNfxKjF12X5ncwm9sn9YOggWMQwZR9KXnfUHYKq8QE7TWb2tp1D4pTC1Y5JYifbQMNgszttekftuTDc4frErPV5FDFShd02JLPssN0/Rn9Uy6StMLzPJqslN9ahSKhlRGUOm86S7Ep6Zx+KgpYzxp3Kz8kZbxQraGz0hGM+sbdtA+Ms9w87c3JHCYrYxLF+IIYSULcnhVC9NqsqkYfwJAS9OcTg0tX5meWjizkE1fq75zj8MbHnw8whJjBQ+ULGg99WGvvbhPK6fVuYVMbpfSArRQqesymlvRO0MNK8SG//ZlQoLAZrnqRtAf0NWSx//HkIhlH2hxbWpM3Gakli721BZX+ojPLe+e4xIQSFNu7mIhT7kDnuLJcyGr62wboNsmrsxe7dVWEB64iRrZ/bQkBlpPF/AojC+inZsXz0U5s7m+NPhjnSxq3e2//By/gTxt87/Jv/y7xFy1tDZf2JXw1YQWV2epXS72h8wS5bQXNuyokOEoL65vx62V4ZjH0BlSHWEKjQeC3xdmY/d9z6U0993ivO2L8D0KWuzIL04i2r9k54/FKjLhQksVdea9ODTzn15DNe+YITfmhnRPdJgyAX5DcKQr+rwowp4t/YiaR4HfEisYdhj/uYTex3y44yZj0y0C4TAJZ6Hs5gchgMccqHYit9Wf0ug/1W0eg4qEC2VczRCay2lKtS2sOr7ITJQgUQNNcqif3umuk0Aa5drP2zoHfsQPb6unBsu3CXZBVoV+Mha3PG77vPElReyOQYBOQU9WLF4yAZ/W4P57nPq/nxreX8vIOA6mIxXKqoPM5h8txmTex35zIHHr1IRlysxr+VdKt0bycZJRx4c5a5n2JKd2DKOqzCJJF7Cgj6Qw6ZOe76gZ2trnwNau5BYJnMhXo4i8mJRonjrq6ICOhGP8oY+LbRkvSvf6J14bF77SzLUI0tfM/ouvtB8XpjIf+L426F6F+r+2FmbyhKWs4IQmE4CDIEkuR6vVKGVb1eI2PioyepPO+TabVxdN+lPjPEGkjnFX9Qk/p/4ryLxtaT1RO2MXsHZE0CybRHgSDWHtIscwlGGfMuKqoAXr8hTnxlqNCL4/azOrNRnmU8zHpkmJXDw2kZkkZZ6P+z0qga0uVZXZkcQCchCWMSBJn2MDA4S/qTIrNhTZ53U7whs01o4xMgo6nn1/2Yo7KMJ6AyFYDCcVZBx8OwTMuUAEk4ODb9zSrrvsWxx/iyIMi0hyVB9kOZOMO3lvqNgFolhqDZJ1k5GOlcVkG7ZwiqkPFk1GEg8GbulMJXMDlDa9rTYioYiDsGL159eQ7abN5dCIJMewmvFUQRd/KjWsa8O7rvNsfEN5wA/vyHqPI34p5OUbPWXcT6XxgV5XWXJbyAyUn1mogajELVT01Qv/zS1ZeDYWKCKgZBpB2V32SnTIxrjHLjWka/21jEad9H5LnbVx/+ch5jS11Z627ZGU/QwaCGFzE5AuOBiJrvDxoy6EL+iFRWWfeCzg5CXz4giHMF0WQQmLXuFn/uOuAN568XCZqNurJ11+Ega901FGWUgdpdCGUvloI97Wq/T7ZMJRz3ZVQ5CDpLgsEoa931xnN3H3nuvhKdx6Lsdfc5Mp687r5G+HBctVEYhyJqBmgrH2+fDnFXVx6s83V3ibYchFL5beKH/Liaue4O9t1Ea2af8LkLAW4/iUCCXRtl7ruYK+OJbWtUeRmT032N4lhGzUugLt/TYdeqDrwMKmzfBactByHI+JO0tKx9F9K8qyQKAJUA2PWwwU1wjQDNl/ECKbdqnMX/RDinQIAYqGCKTHGt6rDLfgA194wTFWlHA8+RyI/qYkHFUU3cd+NFJXnenRMJiItK4td2eTpddr/ttRVHpc4R1OyMx1SIqYczhX6XrzRKC5FyqDIon+J86SoKrchYDACmIu36QuBaoKoRBs37YLGWse+qLGF6fO7OHOLAAcDSH90Zw29UoNO7g4igivvu5sh44op/Zr/7KBA+uUjrYZwBSmlrbJrOUK3mbx7apCsFQaKtDLya9rtFeOK4szH3vjsiE3nuZt575ODjqBm+5ltff0kBClBxv0eSirTvcq6MJ+34YHIKa/xu+up116avL3/8FVsEUCIoz/cK31zNt6n9ar2Yse+Smcb4xZ//5ne+fc21117DZnGTowM1/75LomFrIweOxshR144mbBSJ7WKb+jTfvlsBNGvHj8azkiTziXn4VVopAXWR4xgcY2er+c+JFZFokYEqFN/1P5tkefjkbhrik9XLZ1h47o4PPu+xo84do7RRFDXf6igiwr7r+TJexo4vhfBWdven9DWZJfbTPrs0PWnftUL+L6unM/uzXKs/x75rhUa69DadkGUXfiDd/rA8ykvr7ln7rtuen7tAs6kFpJG444+UJrTQpDQCOmfGG4YSqMaFdjkzaMv2cuhUCCsJ1Cu9eDXlIHhz7LtP5at2OclOUCcg4n0Bb9CQ990r14pzN7ICUhFHpgyIKQMiKmQ8QUlpgvrd/u/miMXMdYUETgFV1enju6v166n9EvQ85y4CnGgnmfVz2V4NNf+5ixKeuxKXkQC6jIyEKigFoq7yjMddzY8qAg7gp0zXpGs3E7LikKR/R+N2ra/YM02V7rbENqu08jCz9y5BI9UM2vEg92P24Cb05ZYeftyEmvvcTVYoQitfvyaIFI0imB5DZdqRjOzCcxnPeJ7xPB0vBMXFSHnGGONpdu5KI/7Icnar+e+d8oah8u3nKW2DM1blLZnZo2HY9nMtGHT5gDn4PXF+CWrec1fKpnT7xL9d35H37vri4E7FPTnFNlIvlNCu5yoVT0xNI3LwTSts/tZv/fWmW2696aYbH2MV56XhuEWMHz/oGIAuva3KlDPMXEEwOJ85/d/b777rrrvuuP6Hb94YWs197k5Z8+CNj+H3kzc+wkUJBygu9DyYHV9+0eXk9dGPXHY5fV3y6j1y0ULA+kJQpri4cb2A17Fu2PfjpYpIpk29UEp/esWaiGcqFEoLPQ3uREC3xyf2KFTLYbGxpqtg1PznLkkX6YMXjooNko4K0hFBVEYloaNKKn1c3eNHszkj9JejNWuutKd0JyoNitiYji4Tu59eFFS1O8UhVfifsJMV4cym9qNVIX7FYUk4fmRwOLPbys4xv19J7/uKzt1S4rIIq0D4BCClpZmeiEpABQPOnrntkXO8XNp/ozfOC0NroLJQBt0aMLUfQXkccusZDqq1vsIm05X8NHk9Oh2RthJA9feJTOxl8BTy4wioz3HuOuPAgekK9N69hGjNEGVAqYqoRBlv7ZYm5w7TdGpfocit50OtcAnHsIfjf5uiRJRETgSNw+MfTF2ek8jM3nUQtEhbclvhCJazprtCuznGVTh3T2TGgDFUCUYktTJUrhSIKeM9uHclnaWZfWzLXKrSSLMybF1PwjOxl0IXU2UPjqDNvo/RZ2d2llkMOZs/+XAbJoM2uOOF+JusSfupYVOsTAVUBqobIfjLztVVoy8cI1IR1fQIqghaSnl7/DymTTJffIeQu3NaasWi2jvslLzdXQWcdoR8H4wqpAUwCnt9e+pq2XRGScwmk5TI9Du7QWmZNsBBC+2d02ErkRfVgmBcE4fEDJVdqriace7Oz9EXzjFpPy+CijkOqtXpFaFgfr2CdxLd28uo9Lpixstv96BNnGzYHBrFfooqgnaIF1oDu7zn9iwKt3xwvxyMkmnzl251R8IA/6+FesYRg1qvJ9IOOzH1Sbov7sF/OFBfiqGko44iqkLJeaHQ/jev7cvLk2XymmxwczUzKstbwu8viBkvF37CTolPz4CG6kg4UGjxZGw0UD78km/88YEnNjz9+L9+/8Vzdu/GoRIMpYwgFBbGeLedEDkF5fHQl8QfjXKSmG4/J0s35avDrJh0WOrFko3KHRF16EAVOUtKpgG22Xfrzbcgr3Xb7LPzbjt+zE7Z7vqMjGdG/utYgA6FUe1OeSRp3GWggDKqEiGOKwubbebmkBD0wn4MmbYUhGBY6RYvZvIGLNQakvrDRm3gSxaVOqK6MaFsdxFWBt4aAZUOzudGfS1nvLbG2qedTOx7EfEnVjVLMO4xIPKMqC1mPNPr41RW6PPI0FGajHXfkE5hk8Fi0Ode1BfypPXOoK0Egx+8lT3O9jxPqebAE1HrVNkWk1LL51J3WmY8ScQBiDymIV0mKFSglZTxutiYyQfhtQee0hq5UQPax9upTA8va+f2kIG2PTyX1NSJfR36rjRB456ZJwjDlIRWdBDHlNGmyj3V2HfGRyVnwxClYWMkBAMKDY9K0WjZcZKVQ7BKnoeLRXSOPPutLzu8Ay1lvG5t7VNUPgDjAke8FvfXW3sgNKjS5O3hNXZK5J3+yACCxhJodhCocaW0mXI/FfAj9jZ1injgcVRGQ3pu81VDGFYaZbzAikgZq/Tkhku56KKHSb74xykoCaA62l0SMhnL1hY9vJFKsgcVVByoi5Omp69n9iXlHMDV2fxBEIyELgO1I4zzDfaaJQnT10IjJqgiqJj9A1cZklTBjDevFpNuuQjaGeu111uX/acptffHBUjHSDaIgmanG2FeQdjrtjQ0tl1m04/rxNFbP0WdPwipF3L2b/dKImpbyBoGr7JTqnSXVyMDNep2mpDIZK87jt8doW4YvpFiheomxc3usqwfOJvaq5TWhLXRWJchufHQzC+mv1CA4g5N7dVGCUQd6txBUKhlBKG81BK9KCz2FAR9I9OZvbXpgvDBrEdQEVl35gjDWu1NhBXdf4SLek++6c6SFuNjSivSNQgPuY65crkTf1Br9My8Ynot9wXFTnEm9uQoBJfYgc4dhMpADkJpWO5wUPKNVkfQQvVtdkbU/Sg/xhGyrphUFWzdWacg0DZkPMx6RNzW6E3vcpalBtjy/NttwuSV8EgT4doP/ie8d8XHLWSdsHKPTWi3u7hQ5EZB5wxCOBSCQEtzoIJVRND8uImzLXv7iX+xhsZkxaSq5o5tx8F7JDucrJyUmdrsbmazWcJVq72vedryIWcy2RmKeEpUlsOhpHFrONb9x5xM7WehKuOiYBA04kFgFvAgcCCmDIgpHWoZvJ5oYh/dpgtqpgtIac9VqEZ2ajpm7G7TSB+SlXvNNmE8NbVfvMZFe8YfxO8SP6WnyOBtVJb3aTJU4lO1s/AfKl+Gh9ApBSLKUMUghMOAB4GhsjDyW8OUjTSV7xavnEx2JUUcUqeMsOpaNHDngrrNwozXg3tkf1Anxn87td958X8sK96Ksw3TZHIQAl43CKgfHZKkA+XldHdgdeQ5VN5urL2dfnh8e6rUmDpUMQgOVQoCRRU0P6qIoAEZaHs4kp0TenLpKgyCFWHES6vcD4vFGS/C2hrL9pONcMBjVOnEiODB6cVulxsB7cS4krSBR0OnGa+lJWrfZt2OOzZ12m91jAgqo+b7zYwgNHupce22epUM0Iha2g0mrG4qiEJThLVfxkFF1p1nTQpmvJ4UZM1verdgP17b8IhmTQMm9q7DUVjs64yhng/v5b+/9bv7Q8MMFwKBjCEzr1wNOktlkWicgRplBCFcE4telNf2lTHcizyh7eHop11UWD8ABAGz6vee4up8vZZ4Eb43kNXsca9kawrDpnE6Fa5Skss/fXkDwaDW6igxxxFQk1fQDlXMeLqx+R02IUycdjuVUVFEDUcyqhyE0jAUQJUqNFRYBlhw8yNH2+CYDdQS+9T20DIImFQtU7MYVKrJyNMYorX8cJhVtJzrgqf6PzuZJfQYsL31nVsqpFYX8h9r5eKe0QrKkNLEjNce4nQ7YVxu37kaIMWRUEXQcCgEgZbGQZVRaO/92o9ffemhITQrTbV7OHaZNwr27WFOBgGS8uA0PpGlGAxRgKw44y3pzTJMgeoeruVM0k/2r/9XhdKaJAWiAlOQ5lQpDhQRddExCp8U9O51MAidct+oMiDlgsCN4RgDFE788YQ8XreeDIM8La1w2oaE2wXo9hMZBEGKQlMPGq6/ODgrzniLZuM7M40M5DTq5942scnjPzg2V449DS9F5azEHBf3DEXlQaUGhcJ1gv6hAuWUogo4RqVAPAgiqj+uAdH636W/m0zIEv6VyI8p0InpmEgw7SZjRRAk0NAoW4a0TsBVXQVWnPG+Ct6v7CTDqMbKqza33G+vkQL8flvsFKp2R5l+LIKKqNHQZ1OsCkWidPANA6ciamkcIDcoSkEQUJXGwnOvuFfK+bOJ/XCzppydNElmopHJWMYqYRXaNitqRSrJNKAr12nPccbbHc6UbFEaovr9mD9nRrn851AFbbXjDNCWArimLtL7rImy7UMDKKDSbwqoCsXDX/K8JrQQhEafmcqdeb0LxEweA3wcWns4OeuaTs1i1uk9wyBk4bljggJG03cbyXgjqR/ZGUeNlORhaakD6PRFM14W6nhoJPFGY1/MeP3FPKOmUbiWk3oJPCi01oRQPNt/IfXpb1syVaiuqUPR4HzLJsIZ1iSxUoo9dZZxzYJwGlBi2Z8oNaRzFKN+b3e0nG+O9ii66R4Auo6xVBxIz1Z+UOXjHtoSkqdZyHGxDBqLW3NUuxMJVUujld5VIl+AdqhVnvzIfx8wndp/8h5IaVDtO1AF/7t2Wfj76Ux40D6SbUIQoO2Xh6SUh4FkaxMKbw3c1fJpoJz3WLaJs98u5knbIs5xDppib9j0RNQM0LaCwNy1g2Lb0m6OHqK0fm9Im8RBFRYfdw5N7EnwWJNIQQ3OscvSlZ0tM53Z3/1HQH1fSSkxCMj2ohAplZWC5y+oO3I+uaNHq6T2YnLDEMYNqsQ04FGl3qQqoGaAOgCmPALskmxu/K6dObk5T28Hw9HYh1Wnt8BjwVCUbvNuUhHYX//6oP3/bWdMxW90O1IQGGRFpFQ3SlxFo2U1I+IA/hU172EfftPiSrsBXMnN4CEmOS4D1MEwZQ8AVT7PcD2Vv3u1oS/cbyj/yBk7mg4jPAtkVHeUnfH3p7++r1E4+r9cM1CzgsBtiyBMW0CDptHCp7wKVOA2UOMzdkLZ/JZqHflRKE3GCpWRBNmhyqAElT9jwvNPq1jcM/TxcvIdYoLWmnszeWcojzSDJfBjubM/vmFdPYfSGvMsXt+yUDsZQdgSyDpe6EeYKSrfvzO48Bvk/JdgX0Zq4lTD7zV6FUigTYcqaCyiqnZMmHJtxz0jgjZTUIMr7IRwurJcEEca9SF2T6i8Hot1caGzVPu4k8QmR7mKOGr0I41n/8dOhC0JAmq7lRGEl4dBmJZ+gpVoOPHCb/gDFn4K6RYYWctr5BnP4lJPSV4ECwx1FTKe6i3moVG6md3VY7VSYvaPsCeTN6G5UV0KiTKfpfLkInxDs7+HZ9zvFuiTZJpm4/NT1NXI/u89i6w753bNYcd3W0WyjG6yUxKbZfv9HAqDarcuhbYfiaCm22i3lfgUCreaVPpGV4pD7EA1DmSN2t9bffGfXjRW0j/jmjzurF1F5elNoZEfRi4IBmu+yXeYvUxG7Yi0Pb7sp7mLrDvnlNyeoYGPSVub3Cjo2VioiC2NP6gLoLSV0yJoWynhNqTf0BIo8aA+yONy9vk8RCOB9iiPWmvfKftxuSqOQoNF9X4ma6Hyo4gGQUPt8+E/3n/nz965U36+7M8UwGkvjPkOrjtHKzf3AFEpUByFWGKa2Lu3KvFMQwEoKGfKQTmAwJxydsqNFsY6tcnuUJVhII00lX/UjMqFMBA0SAP9AUEKoxonrzX0cFzS0INYCAKjDQgC4AGjBqw7O0sE4AIRg2zOw9JNND4zewIMLY8Xx1TKcWbQ94z2h31P6zkYxxnFVRdvsIlj8ycfitJm39PYW+h35D1PV5Yi5anSUt3HB5lspBZSY/QVgnEDSH3TvVgMgmo/6v26ZbDOwCu++ZSIVDRtsMS3Cb0NnlD2MBJBaY5TngZKARDmARKHzCc+7huBt0LrNio/UgJtWrTGHuzHZ1GiquJBhQYG76Hy1JbtenbtV2B/m5X91evG6IcHjpM8wTPeAXPcJsk87EdE2uzo9+sZYI1ODLIGherOp5z3nqs+e/k5p+zhHFPGtXgymgCmoNPtOiSJbAlNaQ8KoLLLjHXI33XJRRdddPGFV37o0g+878KLL3739dTVJ3YrqflbfxIEQR/N/nmmyDxad/7pRV/iYjsl8lZ4HLVD/RXGnUoDo5dcc28i7BG6/xuv2AjwFzIy3kACNfgo+ZOpfT8MpV2BokzG6bhjZTuZ/rUItYLsP9Ay6tN1Z5JpfMez5Xe+KSzRfUUze/ic/5hus9cGdvu0G6QmM7r9kjTVT3xln2ql21GZ/3B5np3S7YdroeV/APVT1tRNMl8zS9drm7Ws3t+K/nlw95dlGuw7idaaM4v/sbB8lNg7alBZP+ZV3a/s9uVZGpCp9LS4He/p936yM9o9NdePgeqmN7H6fC48+ccweLmdrGzT9aFYnKf3P/+Pb9/9F7XC+47uLDlp9GMK1bR9JGwvgob8Nc5UwbzxKbcncr5NohvOzUU9NdfXogW8hr3dGaEifg0oLP52JbrBfh3Izzv6W8HXuGHemNx3BPvOxAriVG9xJIBqHG9nJDr3jbpVzpECUI4a/e+tbN/trxeLfcXLEwCiQQ7Nu9gdPZGfH6yMCO0Fk671TKbJXK/pxF4/hJ579B8LxbHyKIBIW7W7hs47i+sOzqSpflK2Nh5J+VVca6ckOOejOMrsd1Lb6lY7WUEzmUzsfbsWBoqWzZXMM3jpMHJKB56dUHvuheqI0FZY+yubzPud7wyg55v9ocaVPW9MRdqqlWolNuK4oxn2JdRKvzooCccotNk0zQEkPW5OJtxk1EHUSW2H++1kpWck/vPsYreRAUqn4LGWcXpqHTjRaFAZlACN/PrvPeT2cU4my+LrwW8e7UHNO/tH0eYbd3SyZv9a1ZaXMe4cZow7CejGx7305enrZS+/jtWNa6GVG3dmoKZsNrvHTld+RujRnaI1KWjGuFO54H6ZvX34mPWnnnrqKUftWERtbZX4pKAa69btesBu67bgr3U777uR84jRLmVmfwY617jTDFc27iy25HXnYr8xxA7XPZUdu5Pg0XmHDNRq/HdnK9e7tqx1Vda8w5zHLGc3nbdFMOLdVsBrVmJfPiHcqcqz/1lBWMnsf5y6oeR151hLUmjlUev7Iqr/xg2uA0FfM1rbH2iBzzuJlTuof2U1zKb18tvodFTWvBN5xu+lrcuMcXR9qoO8hUDYS1xDbbEMTeb4CwsNlMYyan5UkbL/ylZ/jAOV9x00BA2abN+JlGleNEcSndiPQgvzjlKKxwtW75Tgq5Gx/EbVuIFU1tvETg7VTINRRRoLsrXF4lhAzQqClBJJadwXSpH6Iu874fOOuUjcd0RRN3vUzrIrzr+3QM6xolx5047unTZZrTPCD2+EblvReWchGho7P5XNcWrvX8iPU1AaVKbsGAVRhpoZBDBlIWbeyKhtJe87ovPOXuhLK97EDN43x7Mwsy8m075gXCuUk8G5tPTV+dGHYVLmdN1B0ChK+15zPONXSqv/XKVTJCiOCaocBAZLWwbdcw0wVxE1g7YqlxQy9x2GwxIUKuxZEk6PJPa/L6pVexJqflhxOU5hQM5PrNbbE+tgOm77hQhaGRbxminnOEtYG3dXFdWMDReVYdU99FyHKWp2EARtNEIoI+z+kFEzaKuCG3emJu54CaE0tp9kBTO5+71rUWM7XuRxp4ez3PvqvZ0Po/uLgeA+0Flyj/muV/838xZNd4bK2nATrWmKXoQZqMUMLwqtjffeJ4IWd/8IL0pb3neaue7c891cO7GZ/eyRRx948MEHH7hTBQjm2vGk4P1+df+XgFtC1DMWfiu9Vgqqgf6+hxzy3OPWn3ji1YRHYg9CKWPDVb7f6hflvWD9cO7tV37hpDusvft4GLbsnbHhKoN2LtBk97WIWh/4WphleQlixe/QfDveFHZxJa6mHuCPfUj5rzLK08I0IVMzGq+wUyaLFXEQnB9FbkpMRC2Ow4wgcPXyZ24gK3BnEo0z9h1EQ5l2nn63kLHvJBoEgrwKzcWiMkbDI5W+yNT0YjYL+vpV/EznVyp5Mf+Fw0DIiUaFi6HKCXJEvSaNQl1pHJQDOZWDMAwFc67PZk4dKe4ZTXgi7WKNtUeluhH3HUVj7MvkFTDprefpnKnEIz8uXG1X9W1mf+VDUeZCUEla4JQ8nM7keUYJt4YCUeWoRGXUYBhyo223y5QdYd+RYALtckMoP4zlfWeN+kGCeCvc8eyvudUmq/vhgToUZ15xxpXdUQ9n8H9g+L4zispVRC2OCaoEKhjT15TFfWcMVaAtD7yq8r5DlT9RkpXteNfY+KnVlsm20Cz/pdfyhvthCRlyMIyw73AooVZGoYhaHMmo+VE9oCboS+DNueG+3Qw7ufnXHTUOl2RlJx40dp7ZZLX/EIaPOwuQD1yktOcUhSiDdi3jwEU5AzWsn7nM06DwSzPfgQvdyRp35uNGx5cIHCf9s7ITLwYHrLKlMTmGSdhri7uQS712x8zxj4Dayzj9I4KajgzqB2csJ6nJ6nDmOnBT6zQjJUnQyqPR9/jT3DjCWi4rO/GkcdLqy0kwHLXTVlK+d4VlyHNhJNRRIJ/+EkBNTwR13yA2p0YZ+85rw4DsO884d9AYUA0WvH2kr1GgcBhwpiKoXz159eV4GEqD5z9Ow6ksJ0NRVAGUAzmVgzAWUVObSz0CJDXRNUK7VgWkcyeCBinT/QTJO1TKnDKVQYfhXold/X80CyNVfheZengxkxOiDNRhwFGpykEYh3NakghfiIc+JE9ro0A+d2LCHMDUd2MYJcjLsRgBQv4zvTgDtIvNl1f97YiKoahcqXHVOJv3O3NjX0Yd5ikqVzkI4wzURGrlmb46zANMiUnnjrLGnTE56mWYTO1rirHgU2VY7MYZoG2N6P7VlcQ+vthsE1SurZK40Bl3w/Kr+Z+4IMiog8zT3yJqUUad8Ug8tkE4gPlSEbQ6ymecO/OMCBsv1aC0IG83GhLXpRaUlPEWO1BQP7Oz1f38d18NFkRU1VksiWRaa3GaILqxpi6jZp3+zwCtNkT76AM2cUH7zCvtNMnEgTcY57PGnV4gscn3Ol1f/OdNxQJU+qI5rpMB6vKfhytXe9zxKdT63ZY80O20JMv3h8FLBCn1O135EGwWbRnUY6j0WVladjKxH8Ob51BHu5Fx7jT73HE88Pg/E/syLHgA38+QAdpxoNrtAlxdeQGW8rovo1JQ7enURhWTO0cad0biDJU3yKItg3pFes1WBg9jQXsn8EZZNcg3RNBcaAj7ihLPnTfFcefZaA1ySitA9VsZoG1Fo9ZKH/LV/M3/tukUnNcSKi2M3Pi8Gzfg1cK4s0FnKDlqBu0YENQLT5TsfBReaWfEhdMR4A2SngBDzlRIDXa+xlqjMOP/HYhH2IM6a//9y5//7ne/+MXPvva2vcvQjLkUuOKojHQb2Gq+f6tVkG4bB1LdFjZ/09U//MXPf/CjH3/3DpsQOSlQoMpRRdoxIKhq9X9vp4L1i++wE+L5c2DgX8B0am+rIhrlM/7fAf5Qq2rDIBjwDlyrtfjf7Kdp+pEG0zx7boguYK/V/Gdm10ODqoiqsPixzOFbYje4ARpTh5qd/QVV3dqWG2zCrT3Ep+3UeT7dBao+En+5Z7CQggpabInjkKiZ74VCa9xqf8dOqbP05ZZD/jyApqDibtLiKPiena6e/dYBMRVQFdq/sY4ZfSXUxZ+Duxj1C/35s39lVGp1sfkGdv0BPx4o8wc7c3L/5oXa0FeCTg6MiwDXeqkbZIw7hWsAuvBCOZh806WCIhmvLWa8SutIm6yeHAojUOstMFSFb9jlTNcndr3kYn2piTmyP79c7Cjgp3bDbDJJrxcHHob/s4kj+ZP8eOhDeU4ns2V748Y5QNJ+XjY/brWM5EW//gU7mWXH4gUuFqbT6+UljQfRZ1brbWq/VxZR+z06pWlwip3McY9/5gnBtetbkIrsH7G99osauzxqk8Seh7jfr4HPGX3AG/VDQLGXsP/7f/7r7/2AinvPLa6tElpdpmSk2f6WTaaTrLrwC01aDISjQNzO7W9z1+ogzOz9a1stwUZFBypvMEpmrJZPpvYv65oC6uEBT7CNSdXy4o2te/8Prz4Srb4qrMFbyW2c2teGebJopzT97d/+/R9/pfToQT0L5RG8RoFuRmAWQSF6xxwZdbIT/LQ0Kf+RLTwaJ6UhW5X3ExAMmoKxwjS2X54jP3+mBbI5iAMFAFZse1GiMSikZoBS74f0Ns4OgmKpVBN1A6mweQoqkR6crLUC4NRxZd4pBFu96GM/+tVv/vy73/7iPvYovwujtgJlzoy4+A47XQ17Oww8ohSIqrSl65Ebb7/pxptuvPF379sNWrl5CI7KIVix7UWBRRhUxzmqsIakzMTeWYMCUzVeRhUJyBM2uqvEujMAwOIo3RwdhYDXb2mfzS7N7I0bxVrIf8SYw1ewtn1FO2+uhGHdRzfSlHqvwd/tjMjhWBjl/eqaiG6rcEpRJTDrkYPKLul9MmyL1NR+Fhogil4lZUFFN6zaFXzxBXDtBv1I8KIzDroxeQT/ScjMxGxQGeZbgsFcZmcr+sJsai+HVrQZaZCBNtNhkfaSE3trCSpu5gZVGMNHoQHZRC1JWRCg7ZcCKsYFtrZocJWdEnkhPDaWcO0nJ5Lo6g+wras08twRaC1GoheNxRhKKQ/vshMi34PEdbGrIZ2GeMOGFfwwmdrpWdDMY68v8Qa85g/ILZ3YS+FBdZYiiRmaiw0AIULqfi1YxQI1hcZ9bBvTJtBgGuZphE9BFFl35pQ4uOt3jCCmPeh6ADS2XpamjQXUvpz/KofcZJM5L6Yze8+RMEpAHTQAeYabercLNIJeP5aC4HUHbTkIKyRVHmd/NPqDIsTPM/tjwad2x7dUbt862O1s3VlUkKqltCvT9GPEQ6dK2Hj3TSiOqiRQxH0fay97LL2YZpeT2A3vadWa4DYqeMNYOu/1DUJoZr8Lhfw4gtCYwLkX94UgrJA0fIIitnU4LooBmthz+APSfbLsbGRxn8IgUlszcaWyokxdq6RS5Uz5GT1DOzOO0HbQoM7x5p81kSpf2+5D6YV1vRWyhWBGdh4/ffUOSFEJV1IaSSbM2js9YRMiR0OTSTZFlTsXy0EQ4OKituFUY0s2gHn62aQ2kdLAipK3hjJL2gkbIdnJ5bnSuNJGnqmC/gVrzs+G5veGMpeCU2lh8Q2/25Dx/scL9/JgNOXKgAQNFnEqe/9jQOcYmUr3JkZB4BCsMdssphrvZp2ub+YWKgADEmBEojH+tiWgrEYKPgWiURVzXDPlGoTH24Sdj6OoQv6Tng2UFwLo3V/7ge//8/7//PuB63/x6TO3japkOz6oUiAe1fwwcp0OIiegRKZYeVQ9AdXLIEiwS/Oe7XAhF99rEyInpzHmqAKSVV5h+Qyn43rd70UQanXPF5gC8SDfLV/A94erhVxLaA1cH7gpeVFcCKsuXrlqu13L5SMEZBcP2M0uUFQGGowqBm9l8naM6xLtdk5E9TwIAOmyqLu2o+rryWOc2LvrQHFcpqiSFLLavc1f0XVnFWKrviBnvHiRWcrqNDQXOlrOeBIoUBgPfC3dhkWJN+D3acYTQEN4WE8ClZK6OAclZf+FOiCCYtbua6a7thX6d7Kn4zwYF4ShGNrsOLHt95rj6jU7DYm3bg/FjOd1alda1qvasAXaw64nSUMGRa3fJ80/eSHMyHjFvpzxgv6wAY11T4vdciVk/6EImkSCoPz+tndtG/A5y8c3hQZqwyzUvUaleC8OFhNXIG1LNb1YSaBev3ShndJv22vQ7Wsp/yHOAI2Gnli3KiOX8TJQI7EauLyqcLWdsL7ZO2B4nWyqthSEjZFC1tu2Fdbcz94/RWycK4xDERUH4SgSCF0vAwJX04tl0H54PrOZ/fdW1YGBxDzuGSH/MXeKVIk7YsYrjuSMl3fueAO3YZ+dmk/cCTudiistKwjSH3E5921r70PsfbIjNC2tOJZQcRCOMgy1StZqSSLlGnkZdFh8LbMkmR1THGqAMBd4E+aCM0QFZwhXyRkJNGQR1jh2mszY5SmpOqDMIAiHQsx92zp/4NOslE9xY8qIcBD4jp8ZCvH4rQDprppeLIMOKls/QUuYJdOTi0MjPGJyxhsG7GlgMWYPI+PKHkYGKjwN7PL5bMg2s3dvBIc6VxCYR3YxPrBd7/yYvW/YGUpALX44670gJG0Qp/IBIHBNmWaA9vAh1jIkyfpgZACBeTMDtDbwxSamLDVGwahMGiMJdByKoKXqacsJS2rvyuWHcUYQZNBwZveB7Wb5FXZGvX9vFNZ4wiOgF+vdICS1oYxxp4rHjQzQFsq3k/fELp8RDYyYYsYyaHncE90vDOVdLcFgWMgAFdt/r5cSPXlqE/L2s04WbdkLGj9ePbC9WN/qERafe3v5BZl2cRzF/SDoLIHnQ0YVyen2qIstlm1CnuZT8ksZqBmgtWFfpFoeDERyhayMNxhkgI4aBqcSTeyjW/Wa8wdB+WPR921Hg+7P7ZS+vwT1oUy7Po76dhD4mdt8ATKqCNrW3WiPNCZkz7haMM2hJ1UDHQ19ETUFFauB+HAXRxkZbxyKoPlxLQX18CU7dTLdDYN43iAECX5Nbtse41Ju30d9HKQ1TUS9BvrdIJjwG6hSCRIq48qmRU3tWRvYRMbpMG4UynkboaUlDggtLXOgyLU4ysh441ACpUMtfzF3zJOM20bwevE8QZACLty0vYATWPa2T2yfX8gLLS1xgE3094Jg21Q8disLy3GUKzcojPhC4IZj4SF2KgSA3HoWAKJCSYIWR1LGYwHgykaaBqctM2o3FWi85ey/KNGS8Itt71bUHdx5XzrbbpbyAFFWkvB7Jwh2yIg4ooqzrIxHmWq8305oWctMBd5KN4c5pcjiOPsuK5aRFIslT3t5TRXGU0S5eTh6QzKzdKkEhn5Xzv6LAs0yx6JZAfa3C7fxEr8XjvJCuaxYDskKkHo0OelGzXSaGRmPMdXY7N82YXqc0yHLeMrQuYbCIC+CpBhiHRcxgnGtwIY2RsEf1YIxN6HO0LVW02tmZP9Fg8r+buJVXPi1sWn+if7RzN63XVsGETHKD2eVqNNXSQTRizIyntT8uZ1giXjZoBlPafTPvOpr33r/0QUoo3gbP3/G0zpXGxxy7leu+9jpPWiFYMCuj9kg7Bg5CzSgOhM0wjpGWLtzYCo/SWsGlfXVogg5GhZWAPp+lxQvMqpEVeM8WXVj5DKeUv7Zj9Lm4mdH+IAxaiWijAHCF/02oQss5/gKuVQy7QJo/D+QX80qX/ie2gujcbAC2Y86XuK/EVDlR111Qnc2mOnRwciBKpS+amfTyXTqjhv/6WUdKJi5PygDhe7//dPaxPmZ3sOri7nF9EOkZbuSTM2v+ocvGv5asK/GjvbcH85AGv9N9J8IpuSM1/ch6eQ0Bzryil/nC9Nk2PDIVYdVUBnP+ScalUOvejj1j/u5bL+1EGrkl8xRkl1cjZ2t2p+Auv/OTpjnv1+TU472nH9yctL4P4k2xI0RFkZfeKegDtREo2/YSca6UmLvfOPQqHkKGhdyr3Vn66czcQHXfrcMo3H6smAXpsFoAqtc0PChv/yncH3LNprRziooEgQXbyh638Ur7nFHURmcy9WmX0D4Xdmsq1GzxP64BZ3d71K5zX9sk9kkYf4lTL9RVjha/oZxQ06hXOaAaotBEMplDjSGOPLfQjju3hWaZ/+sfpdgFYjfd8Xuu6dQ8YgPTomeL/3y6Py3mCVkuVGoTj/wobL63Qr+D+2y4Ns0EfSb5qhlK5amyIST6a1av7tv4ti8IxFu3L3PpK02oZ3d7z4xafy+29jblKT8uWiA6YXCLX70ZjtjtmGW/lbaLnI2TNa4y+BsuyysPyZ28rSlOrV/fiTD6GzoqLFq4654XN74+3bKPb9nT2rsUoCkuTBG6iLrLrHuvpfxCGY8pfE+pkkiBOzO7Q//nXOA34Y7Iih53K0Q3cEDnTqd/HTf3R8Ubl+S8G9wIL16426l863/Sxlwz2/ds5aXUVc27j7ryHNXvO+SbLF9F7zVoePKFVw53bvWQXkHXPMUKZKflpDnXQyekxp7PfbZvbTCwQ+zuzbj3l8Boxjtpr868y7KwH/mt2wy4634n7Z1q0Myakb2j+27QNKkMnjfTa+LAhmPt6YAmn1f2GQs1HXa3dr43H9MWATOgedaOd78e+ln5tIvz1qAQnGNv2N6KXt/SRSxKPTi1Zl3U0ZjcMlj/L4lU/uNjZV2o1ABNSv739h3k0jaHO+7Ju9FgYwniADinia/nCRC7rxrs/yiB2VULjLrbULkAhjSyDPmHi6gMntBDjAqGNU0dnlQuH2zSfrb4rgm2MrnXTtKKwRn3iV1YhJ7ectXdPTLUTOyPxSTHQ5v+w4F3ndP3nN03z2e8VJ9f9rMzhK3I83euCk0mYeoLITYhYTBRbHiGnnO3NBRa2KfXNeusZGmh53vt6njycz1Wc+Hdu4wtkwJWykIEqrpNVBc/1ebSD996PTIlUGVo2ZmfyYHshYBZqoQp3f6PUefu8QzHtGz2Cz09KoWDBCTCSeFPZmcj8UixPxXu5LK02u9hUKOPmAeNv0ZcT6xj5xJSsuPa9o1MStcd1HGQGGrt/4zJc1/OrW/3LFaFGe/Usua/cped5Gok9iDp+kdf+4Wz3hM117021tv/tnF20MRXxpuwlFjdybvqTA2FHQB53FBaTCsMVrwD/3En+/8x7fOGsBIq3DA3Otug46Bp517+330Iekqmdinzu83SuIobDCQUVMvVrDutr5wJT0+eu7aEEEN8uMFR1Urdj/7nigfqOShmIsojBYF2QT5wUio5xpmuNZR08yR7kIVyFh3VcR3pbRqb0QeyeKzL/yHFa/Skn+/sxn3tRjpcd/PmP1e0brrVkZq/Ln7gx3/xjjX7GijhYe7MfSUIBd6awJlyEuFS9VGdDmTjdVCVawG+XHVH1S1BkcNRlHGuntLa60I2VIR8Wj70z51a2JtQpt9Wty/X+MXF/PNvhHr1hyrHytZd38jqK57cu4iZqBS46Y7PSNsfKAHNfZgch7KEfPQa+Rg8B4qT23VrgvNoDDvFhKjHPMZ+y6Cdo6uCzR2P+G0C79+z4yObax0tfzxJUSLAWmTpbZVABWy/6NzF4WsTRM9dxPPeEwJLcE1gVY8wk4zm5CZ0w9/4otfuMq9PvGlz3/8qk986Gbqz5O7lwBB/UHEg8EZUuUMNda+95qrv/6939zw0JRF2v1EKmf6tZ1cFcgLkWFRFVTK/k/O3UwZ0cNzV9IUU35XqXPkrsoHNVZ24Oa+PpQQDn8QCU8D48eU8TPYUTzPN51MKSeh/778rUMUVGPkUGlshIeKxaYoZv9H567EujN67u7pE/+59t2puMc2j88m0+l0Ql4UIKGdyy9Dz739QAmHKoR9dwreb+yGlADZwJaxj8vxePSDO6LSNdE4n7Xvbv7dD4/O3TlDd85dPj7xMd++S5N7nZ2ubNP1ITBzbj/Jy7sw+b5LjV0myVzbV50zs9+8egClTKvfC7L2XWbufhFe7um5S2Wj525/7MRPZTFjw9Hib+1kflm210Jlbz8SUOX8316swcneSYYk9Hd2+tcLdjOA0UBtjn23YhAY6Crtu71x7noAxUdI63THl7zvWtxw5m1zT9okJHO90obin1t5Au8h3X4molYE2p1W3oEqNFISdO/mbDJhD/R/v3PuQT7YHH80mm/ftVC1a0NfHGlCUnvEz13jc/chknbvZI2Q1gY+AZU3vncNIGzk2Po3834lsV9r58cBpKa9OCzKqKxRJKzYGAQvzuDw1PVfvfDkARA1jCbEa6O8HIRRUQBlrKKBJ6Me2LY7C3DuHq0/+YsniJSmSwXajY76HsC4EiLMUYGpRv1l37rnqQ1PbZhsIK/Jhqc3bHj6yfuuOVQrwpxzoipxClKVOAVDh4Pj//LgA/fc8peffecL71i/75JfLgFKe2xZvjYMhCAIcWwKQWBxklChbShUgxWL6Qsi5V8JCXXChggOp8G4svvIVGCqkYsbS5tsu9e2m2yavjbZ4ZlbbrLJ1rv3AO1cHQTCLWWumm5TeDY4I0HznXotzHvKkL3B1WFeaRoEakIQxMeoKQWBRyqgpcVtu70g0n2NZqOppHHWUsXa0QhoTaeBWk9AbbVQ7geCFx1dEEY3utlSXhwI9b+udKMIbRjXnNcTmvzUWd0RgIJ+GS1h2BsMUtp9I7QbLRX1PDkIg0AOgjSr1pCDkMbKyxGgW7brLVejI0LohxGlETMvHqnQcbsl5SbVaLeDDC/Edrze7YXQ9KVQ66ZMeTRR6rQrYm5ot8UMF7TbDSV60Wpq0L2bCl6rJdLWzVYG7VZHpB215CBU2m1xTFot2HY5D7gSNXNJOHNjVaGcqlHqNSDGrx+LoPme2FFBrtvxIPZiujmINzNj42ujL4YIUQbtyqCWEYQoKwhKph1rmXbbrID25FNcapeOCN1oPXIexn6jJt6xIKorgWkrX2tqwYt2sdISuPrtcjkW1IvLhbYv8a7mW4KqehS0ZNpBW6TdDOKq5EU7kIPQztcyglBtaol2MYt2OSPbg8t7Czus0mSHXHobNBmwn1FqeOIZvUIzBa1VGdegmYeqRZp5EReBSoOp3ywDZe6FaZSBYtPnvCviuEdV3bC3WRBp+02Ztie0EaXUcyMGIZ8RhACo8CD47jkq1TntoWIvmsNX6tIaXSGZYq8fZtxbq4PSvuDeIiNNzYLeLVUJCddclJOObSBHb1y5pmkuIw9SkXqha0XqtscWOrnbxO+KIk2fTNvjtGtGPCJYiDwxCEE9N0cQUK4oSju/EtoN021yzUtiec+ZJg1SuQ1KmjxIrRjQ4DjPc1UGWi4pcd8SGbj6xGviuHYc2FOcd17okHkRVDzndZHd74pPlj0zaJe5F3nuNQBdKZIgcNokCM5rUMcZB3DHvUqwMtqReGtAk1QWvoWly5TSUjMvVDGAVxJcLORhSp7gRSH1IifU4qLSRZ4cHBEleEGIFDgIIZIvSF54Im1Tkmk7IrmSyQiCJweh6Am0C9BFf17attTiORP4rFJwOk6tRTKUNREVfk5u1f2ckbzws73wJC88Xx7amZRahhe5+Wnr3By05w9Cthf+CmgbC2yjv4NCtPoxFVihF3olXqgVeqH+vwzCI6NEAFZQOCC0PwAAcMAAnQEqAAEAAT51LpJGJKKhoS4UnsCQDolpVMZGh2ACf2jT/oD/O+Yzw3/Pfll/bfUHyl+0/3D/Nf7v/Be6XmH7PM4P469H+5H+o71fnvqBfkP9F3Yve/9/6AvtP90/6vqXfaeb3239gH+Z/3f/q+v3/I8CL7r/uv3I+AD+Uf27/q/5P/Q/td9Qf+H/8f9p+Xnsy/Sf9R/7P9n8Af8r/rP/X/x3+i977/4e1X9qv/d+4nyN/rJ/2fzwGrV/7x6lSiMmQ48aIIZhRLqP74A6uyC04/pmUahYIbiwaXntSJEdV1y91OsE//aQkibQPA5kR9nELVtFm6AN/600015Jva9UsUFIByT06/ZrwDC0M4kIiWb+/n7Sc2LmHLR9+ynCbTW52h2GGS2QKqRes2GRYdPxoYBwz7FpUjXKnA8r8R3ZqF7G7EvTPVtDN6uJNT7H6CAOw3UAJ3wepWMTfJCjuoR14XFItSWnqwTJMMaxZSJkVyrfC3u6981mKUgVeuFLaS/My1h8yOpCCGGew+HEbgmXEpPSX2R+vJXabiZjYYmQkf2sHSdg/8PoCX+GICgGuI4gVyjC3ocMviU0Bkz/eASoZUjYynHO4JQVSOY72fkqMpy4NwFe2+A/M3kq3e4dTmvQtImIHFc1NTb/SwuN3grxER0Gye4dj6fQJRUX+B0qpZW/k+cozjcvQcnpzT0NxvN5/pR2auPH5D5248CEI5RkzSqExx2Pc7mj4IxUCL5oMv2A3trBfbtMzo7dF9/63pqxMlivNs/3lOvncWfzqB4dksJwDEyOow/50YJ469NUP19Sv6LSh+MEzQ1HLO4aNZk7JoLlwbhFMP3qgZthu+GpuvR+azBusNHG7O36v/D6XFTq5eeU3j30qF5eIkF8nfvtEtycyjt5pn8UtAoHPluqQtsxqoQNy3aaybgNBTvwYrBOCTQ4pjKpf6wIAjXPgIX9969DtQV6uY30w0NIrHgpJLcSzvhN3NMsGENTCt2q5wkK1XT3/Sx20AOObGoUa6SUyV387ouWDfSG/a2VsLsuCGt8LFTtJ2X/j/+OBqiRijCSTizh0fUGsP1rpa5XsaAEJ41aik6lCFBEojVAkTKUb/DNu69yDSyC0fVuEC8QmU4YI7hLcjlR37LRDpvT+TIRTPmqqLxw2MFvUOph+2H0C2gd9/G0EoZkH1JAWS/nWX/9rRdShO34mzFtm2qs+sdCu3RVn8uI8DBsOia2N7UaxMtHX7HEjgV1HeAHdUY/NE+dzqhEHc/nnyQK2x20QVF4vXjajIVteLoBePrZESZ3DqgHRx1Am+irpAlSnpofydLyFJXgeX8khNcosdhi+3czN2/vhXo6QkIAEDOuHRJZaKQfIGPA9eoy/Sx20Dx0y+tktdIQPTTIwHM6M4tXbeoTpYKaUx9xP4rUuNO/Bv43gjtASt4Z+YsIKvWerg9DnaHgPo15AS2PS2bc3ihy6HgxFDsIfP07P+OCBuHqQdUfkfnYVK/gA2A5rVj7g1UjQKApWVompOqU/0nippB6v/iGD0bzDa+XMCgdjf7NB16SMpf7DiaZeCtSOKsfbYaswcL6vV27GCTbo+JLwOGANxUOzO6R6g/zmLrCsUifLyyaQR3JxJ4iasjFWXgzJeyYYfSSoRcpH/v0BfiO5vLjgfzIYL/b5WaV+Rvn4cwOUQOAbTukr8ETGoRXtlo8O+dEJrDBcQSBTL170HgNa6cTcw8mLZ1b8xaj9bmPKbPuhDY7VnxlrYSlhhA2WOUqZ4bO+b+vfjZGb2+1s6/e1xwVNGCWP+5WiNZHA4j52ymC2cV0bPjDKjd9AKJA0iQqjaNu6ivn2ZXT+aL8LtlqL4n6rqkAykRNRg14HwF+vYoSNXzUETIrBXE32zEsmCA+dE3C8/rZZlp1AztyluzmzobeuZbfq3huxWJdpNG+HTP1lLE3pwbZII84zd8ll9Xq1almYI1J5RfrE5JmN6TLa9xyT1/Zt4bPGIyEFp4OklHXYt5P3Cuqbf8bpPv4AzI5f0MaxDtQWIOIIdMyuDtoXL0TN+1U0Jnqln/RPS9QAP0Xug++WUXsUPRIbqkjVfQi5mw3MNENEzwld1BqH8w8ziAg4LXfrSsC/1uSauoADaRtC2JNROhmEv0AmKThszG0PKkApH5cGKQ4R/K0pC5ILW7aWxKDAAH76QY9t6rs1FnFIwQlUFfkz844Yo66IyLG1o3ah5oKuZgYVpZVToIWykJLeFHi6RiS1QUj3jdZyuXHN//NsDOQkyD1F3D8/svPFMOtoECQObxEd78gTgJz20Bcl5OAqJRrYLMyQG+MDir6bf5hxq8ZALHMbS3tu7kvFP22CDwWhSKj/KzWYKxRZrOnSJ8bQ8GgIfFWfQoXqw4rCKoWw9S5F5iCW4Rr7LTZsOFBRf6vX7i6lHycQr2ElVTroyX9rVyfx1JnoDzCDie+Km4gkbph4JySGGNwfDxDFij4Y5Z3IzuUNfobMxAT7vQF+YUzmKunMy9y86s8hR+SpxLab+cDx/prMEjeRtNDdDx/bP8XTcPoHA27E/9ndmdoUlyVu8x/w5C0RoNalcY5E9vfIY2Z1b9dwY1ux1XdKx6+ZXZEx9h5awWIerf/TZHJq2Zf12bTRO+ezqedt+lJhlARYr+iPrAfxEnpjJNknHCHeuw0RyfVn96CvX77Ar37j3K6BpsEeIJvZsZcnmcgCZ7gpB1avuRP/Zmbn8U0FNOEEVO/1pC19W3qiiPmbbtz8nBs2qv9IFveQiPru5aJi2/dn9pNE+PhaSeDFOQZ+pmRk43bg9EcTiLax9MQDcf/4hysulkqZTBZC+0aYuLfGSE6/6Zggl9DOxd/Yt9W55i+gPhbavDsF+qS3mnN0OtlKs5T4Ginq4Xkh2CV7oFGjrf4F/KTGGpIagZw0WepZjxs+090wrihNriaxNAkVbHnXZGwMRIjEvcnkAWauXOoIR724//W9Daq+RT7mUf+dqvNUIbFwRuYQZDNrfmiUJI/GW1+KlV++iR/uq5SM9KNDAgEzCRBWoHB6iPRJQ8KR1GeT7yEc1lWiK+Z2KJzK0FhoCo4LMGEMuI2LWMjF7adOY+lfNTec3htzxdNd6bMwBrNnX77/bsTUNAnu1h6XRxpgbJrf7XrYcfbzg/Ym7IYn2rSUxyoa9hCDjLvdt/efGOzBQFk/Jkx8ooR543msqw5lfOdPsWPWsuUgfj5cjvOZL+3k6q/m6ZE4h2MhQeyozUuyfO8utYt1uXQyGRsZJ3OiF49WxAYsm+6rSPyp8iT+vLkcKWUPtWBdNs9utJwbB7u6JRF+ba1TsoWf15qag1flol+frpfIx7PcDs2eGAuyaknST/DrG9FTB+q/W0D0QJX9Db2ZGVHE5k8JVbuDlA6JVP8gQ1ht12FyuRI7c94pZuwpu+l5ZvJ8B0S8/Glqt45VQfGkmELr2vGBmQjJ0AuxYmpXDQ3EtnDlPlbc49/vHratbcT12bLAlXt/jBqfZXyxpq0tBISiC17fwCe/gbwNRmTK+ATY+pZ56+XQ07jLfAs5INsNWoST0lnrOBus98Yosqvp7eNNIxyLk+6wCWw/bjedIgmP4eseVRytnJmGT/QR+sCavGpQEf4IwZHzORvm27J/15YTn/BU5qV2kdcjrhsFNAqVd06D9OqpEZAhww7GL5kMDut9olidmL0CYUSFe9joTCkB7ilSq7n+ocbkZNSPcqTpEk1PosgCalmtFlREOsNetznv4rnALYQITnuqOt9olik8B+vUI15rCcZJWEI+VQsnGTjxPyQeRsCdYxkhjedtYbRJLNVZm+4S6cA3W3ZKHNgYQpqAMUfmSxMOFCV0yDTWQKQ0UfwUaGYyXRpagAprD1WiEZP4G3L9Wtf0xKU8JOyiO1xAAa2p4ey6V35aK2b2xwh4MWSxawzM+Etv6sGuzVN5q708fkJoNkgPJ/7NgcmCNSqPC9CCWLvbUvElSgoBJ44Y9gUQiOhid5eb5FCc2+e9ljLj5HlI5pHmphic1VgT7KkFegsJxwYooDlY79LoXscmBiGGQrQdTWCoHVu6XKAoAKKJHQdL+/N/GT/KW7Z1THyJoXrcJXXdH3iQ4njoscOr3RgnAT03/QIor3hpR0jq+UJR/D32EscoxRoa8yQn3/Y+U2wooo//hj/Psd5JkoSNVlaLDyIdKW4UGTDYt/ILi60BwiPO3JkzMqkUe3rGhBpRhIYlrIeKw0T1NpQy7UoWQtTj7Dj2jjfIw3tScMGxBlIrz6A39OVqtULQXt1HUrPysBKFdDMelqTUocwwF6Nvt55c678OxUoTwYuPMPG1HrT5Ms37JiBKUj0VNgpHC2tKS2COBM6GGoLm56BNzhHvxySgny+EmMq7t37pzjyWKv0E5dtO5BSY926Vcuy7NDlFsTSXPGF1/4DzZoUDBJAOkz1rRhJDMs6qMNaOfOuXXeNLuxCmI4zBueI2UGYJK6VPNTLzYf5ZIS9cpNgr9y3iazZAauH2HmWok2oI0IrFnMzus8OXD+TaqKW/KoXsc+M32gJQ+IJyphGAByXm7WjbG/X+N55SxjLtmhQmEWWtWcr9xnFtcoUrCtlHQ9enDVVkO3IFH/QF3G/L8vDRqimaUeX4aFS5Bm023kztuBOiq7BKas0OoLN8gMA3zZf4tkAIjHodtHP8waQGZdiROKFF4dlW/gWUde8kLrWY7e4tXrOTc2Nux5dczhAPvYbcXMRwhCDtBHK0Lux+sCcnAKvBt/vHNg9G6sAlXnAPFMpJ3J082BUcfefPFZMHha5BJ07v3IQde5qQYkUbC5SKw59bElEtJeJsC5Wmask6kuxgzta5S9zo7ODN6BbwnXilMCN03WBh/Ia0AWXGkjILGSYS18yo6WLv9VEw6wTL+i0l26DIkUKGWhxcMPr/QLb6cpTqhlWXgS3TwEUH42W1qx2I+m+qF1T581VOu6IaiysYGutd4qDo25Pl0l87vokH2WKaK3gp1NpARLqyiXkFXXAUkQVN9D+lq+jZSZC5yhPDjiQ0e/HElBBnoESIzVkb5bUTB2ovNnybEudP2P9TlF2UAf1Tk05N2hV/XeNKQPD7Ti6b5fJfrOAhN1FXU5pj2VcdFW2AeLe14ylmox+Fd/AlbO8VDF71ycOFaA4+id6IHcBPJA/FfLsNsTOwdeKD7orS0pubXSdSC9ScLk/TkK/kE/C4uylbG9ACvl2P4yA1ALcZ0aF6NSQn21ilmAlCBhBnKw6ZBwRA+ZzOacvhmTThSE25mMQjB+tVGfoedTty9mqCsy/TcyfoU1IKZpindqa0Wf5oo40Xt/ofqPin9iI4nFdZBdhHnvShnGZyIILJVhjIomnzYwRUrV7foeAAEs9Jg252idPqBIOY89J2ucNJFdRW7hq2FoyiMD/7zYtMMOwbcjWFf+Sue8+hMSseYx760751P4j7pihpS5j3RMWMlD155isnRItgi1i6JBIxvnBqjETpQLCUPaiJn9saG1p9Srh7tdPEhxgbx4OsCPg8s73c7WX1/aukk4JN9IQH/TH7U2mx1EIUxADEqqtReysCrXzaARDSt0ftGUDMYuLjHAVTNShpmFVfRUNcEmB2g7wj0tkaoJB5GF8xK4zfeX0TPmbMAxKJReEppfi6j/L3dIB6PbSFt3PklynJ2LJUst1zqGNfhhnfbi46zK+6fPvwOA+q01I+hs3KyF5KvuLMHprymnWftM+GK6EcemzH8fRPdSVMRAOKu4nWZXScc5JldFJbMpCiVg+vUd04mPYf4p25oNK5cRjCAl2Oklnyz9I8SGQ9OWurIkeT2no0ZWcFNNtYmALSghBsv1z29M639yV+/Ev8OuBGOsa65R6vUepy9/3U1QtJn7ywD2tayqaHXwslGVfeF8CwS9jy25rDUK/HMXIAzb9bMowb8sdcmQwBvVIGYAX1gIsekjuqEasJDrDDTsjzbdEya17+JNviHmbBNPMNo7hKllOg4g5fSnTcV9oVt0fKtq8JkNECJihdDWE5KSEnv6NRW8g0ykkGeQIjGMHoJy5f/MrZpCfOdD84ASMa1k1y06yIQ8J9kQutxvsVKVcXOgzvjGBrw22BzYnBR1ninXc3cn6I/8yZVW/vjPRUP2s1qYH/e7kmh/fx5ey77+llXkYemOpnruiIpe41jRGNBmNcaIfoOTSq+82NCqKE+oBdLPeyGQ22TBEFRPWoN3zrYVgR5cXbQidchkuJul9BkHnxBIBAMDAs5ahaJ/n8L1RAphXKKCwRjiGJe2DdJdeVKwlvvr4mSzoXRSC+qJITnU1op111U7j3fOlwQGyx3L+/Rca819Bzyp+MacQgRpieiAEROrrIPRH31yXZQxGzfrFvS9X4D7S+hLNJbLgRvWEuQpRvQItjRtpZUswaRbxgle/L0a1r2tywSP7+qmB+qLRWCun0IvgGuaJcdkAiEU9SVSdIHsNp/TTDcbPB4bgJwghiao8fSa2dHCMEt3w+8DiNB6L5A1UBiqDV+y6V2V79CibfMQ8orTUnS7zPzyPjATtxHPXZuei90fw1rLNWtEfOYdXsUTE/J7EDex4/mDusXHNjZQpqeNxSX8H1ZWbKMw4YlF0yXdSgcEjwHyW0lQKFyHaHh7ivZZ2JH20gt4WtkHKXVqWVbgpe6Hn9IBWL+4W8TR4MStIxt02h8P8OEFONma2DGVD2+3gD5mpKi2Jm5ghyyjT3I1Om6hukgASvQrVhyHxmZ9Ha6qL6cf2NPrSyVROLtaa8xkScm1XrohXbG73i5h1aGBAdPx2cAoz2+VkQ+44CJ84v/4f24QhJzQPTC50diYKDUABqzRZe1MNUHWh8AKMAcesQm+0Rge0Pm7+pjQjBuXYqdf/+q5xiOsD4/tDFuliz+gk2L1dG8Q/qVJDigNwjprVT+2raVRrbXCfzX00tlryIK0W89wOABZwQo6ZcQcK9p59DEr7ALgD3cHWbIAkjVitcxHkAlDS/IvWXP6tTgRO8y/81lRhM5s/rTZaMtdPjAe6schuF3jZhZbjSrt58210nqYtl0YZn6U2/p8qOxGfLaGjGwLaAUkHl/s3FwcNB6b4eZPhZwQiBg/mbcSoThCJScYFkpbtPv+BNZXkBH52PIGqaorvFUD2xdlXGisbn6qFBhCqyeMrqa+yEFjlrsKBKuM+37xkv1BhleNdHMa0f1whKO+M32zmykstWxH51pYbDshhCjniFT3d+aiQa4p2yBRnDcEnhwL7In6nC3sUWF42yL7+hshtRrsdfGT1IohPicuhmE5HbTq/BQOB9jzG+dHiGxztb/MzEhhf03PnhgPTUf7yyL5+5hhnPAIKGgk7WKHdf9LeymWrG4p+Pzfoq6lH1gBLioTuYDXSd50nu3BVo0kxkFarWIAGdG+OGNb9QJktYW+53QuRsH7JFfHhQ7RNPLEvVhs1hgrQ6qN2tlSUPHh4vwYZdH9+jVoMJfwBTeCCBZzjOCLrl8Z18YmxT6ICrQjmuYCXvhtuRm+HlBeFNODUBWZw1D9B7jtTFKCxtCVPBwN/Ow38qWl3vWtqoL2inQmcB9fBgOppgYt6vvm+uxLjTqgcboXfFzmUq9UrxY9qOiI7QlPNxERWEpESnZx6Dk9Cq7CgehtZNTe9XbN1Y0BDKQ3X7mKAaSVgLJ6uWCk30Ba1PcmAeMW/3BGxXuRH6Oh4Am5pmFcuGt3cfYHARG9lf3enOPO0mFO4kewWScETtszT3waYDQktLiNvjxZ+FkTWHwVJ41Grnb6xfnF62JsuWm6e57BZphckHkfoh5fa6ACf8no21C0VnaQAP/7Ro4CHbSB6p9UX1w4h7UgNVRJHxs4uXgGXqhupVXSx0X0ZRkF/lr4BdTjrArlwovxHx0GZHbrkxUUHTBy+cHfj1ONfl1Pxq2F0ijHdhXK6q8F7f4Bi0fTBdZxQ1hKpOKKVm+uz03UL+u0PXw+wBzgHfx6SACnD+2AOLFnrGuwmKPW/g892fWuPBqWL58ro48cbwBWZ86t/XslNWUrp5wYfSK4ACv83rN8oGgOVvKiLxD+g/YWuPdx7lwwTYacU7vo70FipOllu32K4d87kyebh+KDYjKubmNk1VcSq54T7KYelCeW4p8KZuW+d3Dazc8vLSBa50+BJE82fMuTqV573gJ/4rOiGPGR3CZ6w9vwXGMbaAH+lcm4nGkl5M5N6UXz7b3WHn0qAuXRr2S8b64HZYnTz3aqcYj2CTJdShpVJRsVf1lhHo9iondlOut2mkGHkM6x9oGdsPupfcvmpswosECt0V0AAplEYc28WdK1jhscXsG091Vb3IEZUgfWm4NSAYfiBWSR3zVjkMlgV/K3Y0dsJsq9eV+ehvmVZK8KHHIIEE/tgRU+mQYTfhO/mW/X6wI6EgE6sBgJuPjKqQUj3XU9vK/dk8MsRrdDAPfkIm+H6Yl+POP58GZ+xo2Vpf/7fNEqk0gUY25dVp7sbNV7ePxGYDLn/gpkRuKbHDG9qY5320+vH5Nfo/fGg3Y+6syMyprly+P2Y9dCV/pYuyY0gQa4VxRdeF0JhBLPXXJ1/HBh0NfVuykfY2WkvQs20Td4REGaKf6htR8JRYcZQVrV1F5CsyDTUz7yRYvNnFBE8lnNAk03Lr7GnzR7XpN006H+p1poVSmxlV4+xRgbvbYGOVn8iOX1lEHr0jUXclWs0P2tjfrDJOyh+rnIzfVC7Bvc0ebaOzUseeugIY0T8ksyICSzLwq09dwPCwf1qjgi9dV4Zip6vf/qPSGnnBzoErmj2wPqTrCtrFL4MaEf0qTBnPBTM0NzVjma4+uS6uyuehTjzZpqmBy9ktdkrXoIGspmq5oM6FdFw0XXJ7zi+ZAu2Xd70v6O4qu4KvzDPWgLBm80WDMwDAuv+qFVSgeuQ+ld/x/YMgVFqRScSgQofyic00tOBU8HvPtphDSctY96Si7PFZahnXPe5OY74Bmh2UzfxAobRHrYBeKYaghN+eU7PRhI34ZoTsL9k/DiRfXEV85kec7OcVGSqFQ3eJFk3vui/nc4dw/c5x3aRCtAS6ywXtVADUjYdtmc4FGJ9mbJT0i6qBvmHcvZY4auqmRLlvx/NbKQEPyO8YjYMTgx+KkVw1ie2sWNIjx4QDs2O/LPQyjvUtqQgdUjwQvVM1AS122vPi4IBcMEYimDpbg3Rhna3+5FkOXGGP6JNxyiHUCp2U78EP9yANdqudk2dSUeVT8spagMsnDG9QT9bwg3Aq1RmgNshf2H14Fo4ylpjpD0jUakwjT1YSTH11Jq/Z9NOUb6J1QKEshFrIGfwlsSU7ZN5TqbsxNUrQrNNxf1Cb0Ixcn9ZBK6YNWOAU09l4SYhscWUwMDojI+hc/fRoefYP441zXDAXxPiZgsi6ev5mE/8UrOelc057PCzbOsWkicN0lxwYwv2cAEFWSo+PzuKRkgednAl5lKSjLcMHM/nb5kDPV1T59szgk3+zQxaa/7YpkD5BmZbw3ctsKjWtWU38KkDhpKx2OrFArf4oFzikLdtadGxwVtSj77JtjyYQS8ra19fPDFPJVGt6ff9YbxcJ4NWUs2oPKDS2JFdyeIdYk4jZF61BThBs+nqm+m/C1SGEwJgiqAk8yfBfeWesA0b5ssgz7s6xLkrNfAKXihPzC/Ow5IRU7uvjI03r0ZwVsLzanqHmuoEgsuNMOK2Tf90lovi6X232jyeY+OH00DtW95e9AH4O8lumaBWqhF9sW4kiibkLqRLhDyS7QF2p6wyfK4OKdvYVxiQ/CfxTmHWB3iv3rgz7dI6MAUn+ZKTEoLgMKMKJidBxS57Mqzyx4vBTzD8hM67rEUEOyQgbGgTCyUSZGRm/R6jY4/sXyIM12h7rlp8P618BvbTNPU5U79MSKuSS6JHuhyYY9jpqiV6f5BIo8uTMwq9MQeHl9KiBcLSC2T8up8ulpD5F3G2jue0/7Fum4cCD0IKOS/cQocXaRaDgo042W5OH/EUtyXnD2qyUXCrWsl7d7d93D7gdI+sL3ntVlEcKQUJjXE8fu0AS6oSf+IWO1Zkghw+tPd5JSzEaiW80BF5o4Lt52Fbn3R+nubPsqvuvLo0luZc96iqt2mBL38fjgkLJhXZ97qQGCmvT4epYH0kZvFAA05ja9wv85a8oANAz0mAnrqNtBK0uyVflWNzNhsurz+jHrXA15sqH9+P0m0gUHuc3Vsb8j0VOmcwfDEyccVNtMEjxKWRPb2nqFfr/Pbb/OviOcr/WzJtB2AmmbsDWtgNryNtTndPFatPMxL6Oet5MIYLouHhenEJlGNuIL3P/0YuJTe8pAN6MM986lk5bnrulJ3/Tk0Ghl2bvKdghXggJ9wLUVm9WAmh3dk5Ho+n8WPDrWk6Job8DD2iiK0Aaoq5pXZeoCiHXBuxtr/80QWv38u1ZdVy/1+rfWOX1oXjLIUdHcuxD5yvN2Itih6EwIF0Y3I11LrGOQ1e96q+c9vHH96vk59/y5VcVKLsbWLWnyHTLudjywirivgKGGlFrrnvGNEW/O+LU9D3WrKRKBC0VYbQwFSRljyCvG/XW15WIPJkX76RzldHqMIy6dXnkwDPeB7monoiOWjnRWYwn8hsyi1i9TtAwY0IVvTVsNDPdp2tV/paUliQjKrzs7+lrv3VkzRg6/jyc20IyIm6vie0D+Ba91MYK/PosgZZNP3d9YSoUAJkJpSZjHUtj1ZrZcKX+zk+uRwgcl/pcoqQaH1iOLqH9+02qHx+9l//3mef6vSB3uMKVRly3yMNJJ7UGK9N0pFw3HFVZtQFB5cdxUdcMGb7ZWG/Vz/6rB9tEPMtMrE8UUbFUrEgs2GrxJxxnHqN5AlSlnEJT/4+Luf+jbuEOgUp9Ig3l4PZJoy9K3g/G0bxxRE07gV2VJh3jspPXjNJWEwz8h6RqQ9Ed6ODDvSE7SERjWiYbmzIurJk2Kom+UBZ1ynEbxpW1JOLiHC1iHesAGPlYLBtOWPoXq7nLYnH2idvWDeuE7omg9Jno1YhGRK5SKveTt/fDoytRk4rKzUiZKHz0ZOXDgIjhi+b7N/hKreEXJZqa63FROQ2gHMAJ0abYmqbk2DmEseISFipjLJRTOR/+optkjn7MS7yMAhLCQrfE+wYydii1pYQXx9BNM6m3+r/WFsJyaN5dYhkkeDJIM+0LAaWyhFcKlIJgtwO5nHG0LmvjGae2WsHAfozufzvvaQKL6ucmzOHoY26GoHcBU9P3KxaBu8qvNlayEBonXvH6ALFo+T84/ixtVQrHCHMXIxqmHlGpsgRns3r8mMdfcOb7tJX/syFa9B0qRfZqD2UQWzUnwOomUFz/G1XHPrZ27r9W5p5uha/fCdJOjtuiusMR0Fw1GlF0FWJgtulAQ+7a8CkcSQrf9mTY6Rf/pxQqnVfqDwAzCXacy/p4vcJSiUnM6OsV4gqtexestJhtKlDccgcHeutxwelwybvXmaWkdNcUvQfe1UU/ehRyRYzg9xEETxm8l5Xgu+HbOKSIkb8vPB9qH7pl/w9jVGlz5iPRs+/dUEqVaiRst59vdmM+l+Zo2+3ShYRxCMRl8eCGcE1Tft8HzB4YBRCDRyI5tLMzyySDCI7elyQyJrfIQAmMQSGsXtw12ChNVlJTh6lXRQI3qGVDtyCUZPSqr1QrumSF/p/X0xDwZ0X2kyYcjHIlvbcXSTaXtquFn047R0HvFeKci0OHdyHzEQ8WUkjfTHrGjKNNm9U+sgqx/WxLFZ0n0yirHKc9BPK6nOlYs6ewk1yznNK+E2BpBSZ2PYgRUhtPFwisVuZIYQdCcs67F0CLayO1Xn9TW+Eezr/3FZ4UFLl7SvnLV3dplY5TWIGUxsoPr0kpNHdNdEqWTDQWLqEhLn3j6T4LwFd31PitDeHjbCK52Ba3Q8E0Ku8h/PLgNcvEOgry8XoDwRQgl29cKSCBp7mxRQd1pUqEPZI6rkzqt1dfHFUwEHks6xm/b+61Or16ExstSO4rCoEwdKUjO5KSUbWGx/a3LKhDYpK9kcznSYDoliGJYE0IDfR7kU1uvjj73ZWuJaiBaz1q6J8EEPCc0hpeXQvJpvUrxb1+RkQPz2HDI7AfXsfP20DHvvRQfHxLBL765sqFhAPPuzpuvldh+DEgvxYy8NGf6lxHCBY22ua/k9VQhtIffLVNkXwNBzj4IDVLYOrKw0bSoawj3+x9UsAHeCJdsfR3JiZwEBHSEPE/XP9lAPrHS2UQ32bltxboPth71vJJXpTR+xCuPZp7qzrKqS+NPALZ2blv5aSOagIZ7p/BpGtvO8au48CvLowQ+g38Z2UOY8TqMDAoskqGNegwgvK5EvzT25Y2+dQ08Hz4VmTBR+E87GaRtaf4VPLDazzXI1hX3pujxRrLjCO+P3N/cFSv3SKExuCyPqzx0vz4rofgW3pyX+iTS3IeecOf+U9QjNOM0dp3Dk/eS4/5kZuCvYj5bM5mFA07HBWkX8tJKB8CFC+FycypD7jcwDAEetjOppVEv6ymA8DfY5eWIr5C7Ze00+AHaVadrkmep82WsJWK6qNAPKbX0UmZ8QsE2e2wuHF4K1evsC2FlHKp8cbU9MSHgoxVxKwGbytIEEDfpDQfN8asNb6WIz7wurxi912tkBc+U3eUatnReG8K5MoY6JMHzK9BrVMQxgfQSXDmi3aedWZPN9EBcl3zO8vl4sqAQq4DjuJhCQFd7Nf8fE2Ppc6YQLPQMGCZjn6Wncx6qsL/dqWUBNtWcXGs7IcDtY3abUWGdj8wmUYQeWEfCnMIpnHb5G/Bt2VUN23q0igaBSI1LOKhk+wAsqZUrxVlsM//mQvLgoSB2T/GrvaqmyvctrLlp1N4tOwXeJgpcQpb81ag+wLSAeRcx8BNjHrs29iOL6x+1JaSAmztKpkiCA6LZIsD0QtOaAEE7HVCEHiBfnFH80YACz5rH2AO4KopT8Xl2+LwC5W6Pwmg20/YN5VMP+1KGZaq2frcNVwueXz+16GeJB/8C3ki5UgNWQdcGgjKdJ/3brJh1lzxwYz4gIw3u5Dt2FQfXNLH6WdzU2I0YtJquPG/LNDY3Zi3PsbVHQdevlczlwQT5Ivu1RccmCNQ8t6U6vvg/uNaH67vW0ALeYwTMzwtF8NAuH+1SVS/V88IZn9eaaADivXP+fQpBn5wY56Mue3nx2Col7TVo/rA2WDg22vdUs887lgIAtkOUDAdm1JMwoS9NLlRy9avsYl894jh640ODGl1ZuvlShLQXo7bm/AmlF1mUUMwCkH6ONQgwHbrpf+s/La9xAdhzFMPbpdcztMLbe1uACkFyl88ehBxwgfa2t/x8BFbxfTH0lX79WZIQZXEYkog53e3lbRQ/kCQTGKIorqVnIOqFU2G0UUnf+WsxbBTddCPGqtqzjib6/HV7NwDmzyqavWxQhuxSxCQJA6VbX749GrKN/NmC6HiuJSuIPldDb7lWYS7EuS3tdQ5knUoefxq5huSvdap9iYz+dfViAmj3u/kz0ccq8cQjN3A50YMK8hMY4K8tga+WxclS1vG3ZfMccxUs57rUL2ExQaeis8XI1sdD1BWiutPI7fdPHspZZMs+rirS1Jtsw2VTby91mqkZ0ZeNEAbfhC1w3CQV7Ogkf94NvND/hNmfyuAP2CPd4fsCN7IG6V2KBI1ysyfp0AvSGEbzwSgPBdWKDQY5EPxndOYZq/yJei7R5stfFzHOwMIv8XdcDC01iNdic4PeWfahTI0xtQMTnRdGHGDJchNXvsxKTzwvYlMaK2sNfrJJwFW0eThLzOxk5koXFaJZTRFXobwOq9c9Xbx5eloaFIlDNEzLyXX6uuxp5cdUGGIYnmpDIVgcEbgDrMTwepwwUEsqsMV3WCjwdqnpjT0UNJYUd1lMpWub7rkRoR4EspJpH8WcRieXTfgmFRWeu/4wP3Vto1rAwcpvz6vYbb1ReUEqD4+F/1j4TEkAGN/Ali0E50uWty8cKHYPDHzCNz473V/8AwzxQWQcHXKBtsbTz6vZbS29y5nQl1yaekPGWv846+m76HlhwbJBWUwD7aPf9jqW2sSuB1YNDiZswL1I0+KdMN7DVnepxW42/KfEzx1eqvnbcTvFYldVxwvmd3VhwZYLlFgMbzBOU8XwQGxj2KYR22PEsYazbsAveMToRKX+Qggdqn3cuwdoNk0d2gYxyRpAG9lb1AxLNPjtOyaAWh6rNPv2zJ3vvtbuWgLSSnwWrn+YKCrkNgBplccjlo0j2ZS9FSln3359wNfN9xkcIiEpuI3kTWpv4685CglHBKdE14YPu0ye8FF3ddjx4qDouFEQs2yrPBdBCi9LlpovNrdfEjN9axqh5ulKBn3r3V+EutYw0Ngz6acOaGkNvvU9uVeVr1lgkMe4uOnng6umL01eFlrr99qaCflnPMys2JSLQuCBiP4Xg3aIi0FuMTE7OqqQLWsXSc/gAAuF3wSYHgHFWvdfROtPdDD9HVHtDflYqZLvCJRjZ1ySJ5hbpR+hs0vMNQPYRzFPqrPA63wdmZlwFSxSrtaHxSuspB1TCeYPEb6L1FkTFT70T7EV5fizzzGdycXq7WcDxCjnK6Q4IYuEV2sHV1V6XoXShBYfQINLQGhYZvM2I+xHqLMr4SdbNP/CwfrNYtkhSn1ocIgOPhTwDXKMwYULs9ooE4iVFX5rtTLhxp5t4iZhk6e1HiEJ5ECgBIe1o18AHpEXsCrQI4B5tvwUMeHc6iktKBH9VagQEGSicyTSkDT5JqAnRlN0zg/PvnSIevW+wYUkJJ+IgZq+0s7WOKatxq4Uxp5IJ7IbZc1133cqwd3uLfPpuSxnbP3n9zJU/POYpzB/N7gaQQlSDThxldxGTEQPC0oZYSMhshIo7aMqa6PFkANh5V7D7bYUV2gf3djtILL5S0+/Dr+33JEgBiNA0y+7NHGySuAwWYBTPCG91zIjd9y9jpfYUiqWjTIyY3kW8553BOzByzlBq+WdP/LLnr8tvZpH892c7rltrbYBfsQrBvkPD0ZqspCAyiuLTP1D2D4O2FhF8aonEOsHdsQmof+3fjiLVmf7Kii7KarDFddHAVZYfM8Qi7ezXsMySPWig6xxo+NnJYDmrjK2bHR7UMrYSyL7hxS1ggXZUOYg80YjCE6pvZ/JjFjRLFyF8lrbu+csRTvQkAMBPAu4gsTMN6cZ0NwCM4Zng5BJyOYM4I2nsginjgHQKBQozoFmWCAwtsjr5M7gm844Yc25YBCSMr7zFxXO0eYaU6kcVmLy+AmZtA6wBK0nRjCdQf1lJ1iSpEWJkdgHEQNWWX/EPWfha0nvFeWCYgQZAza4OTiBann6vyLdzQ0IDKJY6MIRpZIAD0QfHM4pFO/iPcsvC5oYkUg5o9kG6ETqbbOrD8CTCkUKmLuVJhcWZtbMLK0jAdsB8S2NdT+Fhd6HekRK3O+/QeQ13E5w25P1X4Ah25qPTUHM7NpiOswgTt4WBfWRWqPpYP/EkiXK3XNggzVXUZNnCO719yyNJoHPK/yRCltVwRG0kzA2DtP7enD/7KEcY6Khor2S3bHduZ53+0/h+ln0MdUVLzjkulWOXFbtOrhkzxjaH+C729ch0xUFx2xlPcozvwYHfUQIhBzgV7KnZI3rPg6a0xtw2IyRUGTIQHDb1UmegvqLyz5J9ko/UXVN9W93uKL1ekfjVXMEHjIrDZdfZMIKmhb9id+cwiStThFpTzw0/iq+ng7I3P+Gvb9DgE9K4e9cgfdzJqBVrvBv5jwJSLrgG/dbWNwWJVl7plwxpc4ABUiGRAFv7Bdq1oXybKrQldRcsR+V5j1Z/caB3sVAgT7ceRv8psQYDwqzKYFMVO5Pjtleyw6MHAGIIIGaN36eF3Ok3TptV2eZqzQxEOrgW8gqKbqtOMVhwCPhLVtU6anFM9IWx4ROvzL6YNTuCEsofw+O89yUZg+JaaXyDfv/A1XkHcuXDiHTHpjMjJyDnBS3Mxfj5U+hAh7UjWaXPRpXxG/J9/FvjYadAHQQuLt5gazImTfn/hEG4wUWVi1bfbwcZrmINDa/YnUuO1TuD+tGwx8nN266aHXX3o7GV9h8TkLmu2NEA/S9myg57FZvdvcw/X3mUg47rSkI5U9z3ikdkraFd5UUqSPzjXnyeFjsPFs8BOIjdy2kh0w6wXtcOAcQOdN6vw6J2GNmA1k1vLYKG0bHjCRoivMEImbb85I7gACp+f79ipwLeEBUsbIJswsT/EMFwXvOoiFZASf43oQDZyalygD4Wtu04i7a3fO3KKCG5YPtxjYXWeP8KIQqHg1w117m6Vy4gjI/xTWF8i7HYUvDJc7ExeNjoBxi9ioo2w9RvJNFR2kYVPzLeEjYLCQrpoA6DMplQAAV0c55OHgVlR4Bc0ACk6kwCJfljnqioRB7VIXWt4AaV2p/WTXnBHkP71ABIxrz/NVN5XpuSqQmyqFU9hOdWRVyLgDCYjII0d0GR+a/JaITeaTf1KGA4zCG8DIsGVSQrG1sItPt8OxUzde4NAHWoLTP6zgHfr25n8GniBwEkvDt9v9fGChh76Ger4SaKd1W8hdepaFHw+Zh+/QPABIclu0Ve3EKSFMRFaf8CkaJ1UjESGcLBRSk0tL6b4o2E2374O5V8ido+lUDeR2U6OYfZt0CZDF+SCwg3HF2niv3f3/ATT2cFKmMyjkB0kvrhNa4Eq9+advg0D/4jAVCuuNsG8sLsUwe3/FqqmtF0MXxvSBbnSa5OnY2qYhaAu7SIHV3En7hPetbk6hSPXXFiHQ4BerFMly5qxYSTK5+04OSwivTJ9bTa5gm3WG+QbtV2BIH08gAPOQ4o8sVLXlw9yeC1y22iyVNgcc8loJi/NcI+vLyPYMZ4/O7jWM4yuAQFg2U161yDuqap4kHswWlKkKTYyIyy5RRBIVMT8LHqNbpwB7IQF+tWl/Dj8Kpbk3NNXbP4/QBdviJwWXXxxAXs1EAM4TenNZSEip398TYiiv0iuWOnQVeq4TTSthXSgsyYw/aZnPMnxeRTf29a5/PiwhMzXZy3s4/AeDEOOHTtfW8O0HaTYEWt+IGJOnahCZlxv+coXD1LfNBcpRKRAzMbNL3j96dPuFNrpFNwd2SkZ7OLrLDEzccehf1U4bXyi0+kM0/H/u9YGHsdgnjmDh79IkEm9W7kZUO0t8teLadDp3oJJ+iyNeiNk7QTnPT+rk6s/zvkXV0DJ+PhG25KYixSDK1DVs/bixd9zSFunZvAVR6jK+zJhIGdRGpY3srg+DHJxZJwLxovFHP/g6+GMDVLH5GzIxstwARs7GJhjpmYwMPqcPA00SQVEwA6HNWreCMY+qV/8Teh4ZllrEfytZoPk+ISMSIKh7UU50k5CZufB7p9GFP3MsAy8n0akMH0kiwm8UGwbaWsOvtKYOXViOvwqHw+nTrZP6SpQqUDNfFFefBOMe1UNYea8k/KEISH+EwZy0Qe/EoemBOQMmCC+Hvkn6odbJqvy1H4cNHn+Ov6A7df5U3joOTINKBEdm/PLAdI/9BxWw/n0nH/ChxMj2tf+OmdPOrm6IdX59RlZ3bZTdXHdAawSAXitU6CYGNQyGpc7uHpBcceNKUaIvFNHDVbb0IgDTA0Hmzci6aXBBWjiUv3M+BaQxCK1+grbax95Ly7MBsb2O+Dxwp1GxKUIv6sn1lIsNdIzXibcC0g7G+5r4fNJIMola1GyeM4v3c+YqO++3Z7DtX1ScSgphcl2QCgaqcDp48en/jDOiu55qB5VPtjd5Mi+Bo0wOkrHbFMoOlKKHPGsQlWaFqNfhYlfpssuTgoG0E1PA9UXxqTTMFu2FgRETop9ML2aSBKS63kFdDOWmmJcAysENymiMJSY4X5kmAEbXndivtTTbOygefsAJRZeUkI4fSG+ip4QMkf0+EKd6s0sv2kCCLwuDeQ3xaW73Mzw1WDSahmXYYxOQyMaOEQlpPaziIQtLZOMVTPXOQ/wOJuDaM0asmdWdH+hAcMK0wgqxvz0gDrdCUJMmdqzn/op0Wrsrc54qAU4Zj4zYelbDmfiRosr4RzZ90FcezlqsDDDe+lbeBDpT/19F/o9eerZbDWjwKgHR5RMqN7t4UgIUFkQqLGKpDbX/n0F+YvwH8RpOGaK3loxdYixoVBA9ONcXqnknKhQMGJP1EN79zTziws1OPax2Kr2yfKh49HTdx9j0K6/wInR2sEDg4RMO7JoDem3Fet0jInD7JWHZR9H1wRFE2PNIdIOvS91gX0nOPuitsx4jDGd5Mb15qFcgMCQ1i0sAgPriz1y9nYOHOe5if1wYfSYn17vrLhrYFlKMW4gtPQ4akOtdbk5+2tLBRcS2VOlclJuYcb3Gu/HDoN9qONcbk9RFBplAqcgpucI01Ft6dnURhLuoVfUeZpIKc8BO+QUsxtxjeIbPL569bXraR6BLb3t0dPzJBlfq3axPsW8/BRhgStCKcIFIMTzNSqtmJrtVjSktAtOtCU90nCfnA+MbXA+7gZHCLWq8kuDI2rxapDCSmZ3chSqYdGv3E6/0T21incqT3tx1HzciT7sv/nNvaMZP0ufov/iKSuGQqC8zGMJsbxhGSlqWcgaV2O33vNiQEbF9FncR0wLTKdrg77MvpjtZA+I72MLPO20926yQJqyGt35Gz24ItvgihiiMdrP1UzDAjOdJ2gNVCftbkspsDUUE5W2OOtrJmgufwMIDb1uktQiw60rFHkxo6ltVBtPar7h+BiSC/H3wlY+SETSlXOTxxB0S8fHASxV39k339HkatKJ1DN205gPpxhx2ErnEdf5TZ8UenzguDIDG8VzYUaNBJKIpJG0lJETUMqpDJiXe1cX9uWtyD3Cg3yS5ZOpf/BgVtU5y3yiFuKvGaScj5CIoT0D+xEo455frnQvIEjb2oYMwFEE/2L/BWXNfCCpsHE3y6SzosgWn5X4MWYDV5OqrU8Wg7WN2f7WqOJGzfekXU6+rDkXMsR0AGKFysgXN4YUjWXxraTEzbDALtaBT7himL9KOFH28f0m2+AtGxKTS/4zrm5FrFTLtGvbcSYej4AmNE6SHNtToAipCLWExvfoAgCjAg/d76Jp/dNDPe/qr30oyMWQejAYisy9o79NjgaSG7nn/u1jXNsz+YZWEV7qy+O63Y0YBc5vkJ2KW9kqiUo9RcwukbzmUK+VzNHUxb8Ct0TeENG/N/gg5UulwH/IpSRAF6L6zKFIHVppMfNSFHoMBK7feYoq/TCtsanS0iBGWhPvwEJv1moBiZqKs0dfrCC+RhsJ49YIVt0htmuZGpDwBTvZxZ1fF3E1oGp7PwRo7vVPskKbioV+fpU2wOeofsFieHMODaALxkbpvFYg5ZCMgU0Eua9l37Mws3qoPvg88qijcS8yJmexfvusvi6O/CWffv9ClVFrXG8uZ00Ns8YOWlCxHvZBdcVdJJ4t5PqPxQRqShC8u/K0YNZgokafGoGs2x+2FynxDmipRKAYnbj7j5kCXbkCx8b7E1QTPzqXYWzn+1rPzjsFw1vMEtivpO0i2fGUJTAHSqtvZ9mMl4NJt2I/xMnoiu7wuJEoVTwu5yaVjUkvDpfzdY8BK+kgCrYAmoHutNDZVB7I1VvjtePx1ANGbYLLnnZPZsPsLYmUPQJF1qO4Igf6HFUimn+jmQlKiCpDAbVgGbFszkht35Wu3cJ0w0PDQivEUs1yiPFArw5ohEeKDnz4yWXDxkXxeRs95Wkbh48i25VRphHjcU4kfhAAUWw5GUjrypwdi/xH0//6EeG5vFIYZBra4ZvOQfFcEZbrPTB+mDcAuDLThAWuAlakp9WMOlTotYBcoeVJcCS3W0fTyuZgLmdUlCDufnbihEoeBe7cy/blNbdv6VdLc24x5ywwAItRaiFpKDi/TkMm2vnwI9Y8rfFriXno8pUa1qlCO26JkVsMTWJhuLENvCktwA80/3sT/g70bsnl4PsHPtLOEhRr9nuKSRNKkjxNm9/OArbBCM92BZtqTNpHA7oBpcBn3Q3HceItEOHakSf6LAotcz0ppixp7sJ5QUokqW/uIPK1yEHRrwxfSILIJLvsetkbQq/PTknCHnvt34jJXj7xiGeps+C+KyL+0ER2cYtAMDPg2ZtI+vCkqFQkZhxHWGG/D5+4PzVj+pp16SL0joIIzJaOPQstryqaM0FQnXQv8WWWcX5C9g/n2WI6LoE1lHhBTWwA3TgH1sIujwQBdS1vhaSYDz3B37CSCNiGgJyrGMGvQHdA/TpnM+Kml12Uug0wYxb49IH9tUA9dflIXbk90MtdIqs0ThoYcIHxETx+X0DMiT2XSqXYZsGVF++ITbrZX+5S8uBxMF2qYbhWqBvm97TqhX+xe+HtDs25O2S2ffR1PIumI9c/e5iZYEnkTd9+dZ2BNhJx/25kywwV4xcuc0q2T3WlBKyoE5HpGyilJze/8dVsLFpZqiw9l0nQqSkw1nOSV45UlAt4RrYpI9Q1+3sFLwnjWiiyCJdbqjKyAv3vSYMdZ24sl2DPF492pJg1fZnw7ijsb4c60+kg7LMbyTnpmKwRQ+SsXAikF2/snic17MBGXV7Up6GYznxIa+Ldbv3ZCYVU+b3DBz4csOyaGlKCA5840LzYMTG7wYGRWNKDky+3hqIwmsfNZmeejEjXRYNUzAo0WId0xIo0VgV6Kvj/eO0aFLV5jyX91fpWv4ph79i4hl4Q7jY+iEQZGZxOmeLoMriVOCkKbx35jCkWZvgwbfNbotO/AN2mIYQth/EvNq5QBuKPPyyGHNNNIq9t/F24rLG8Hd60/xSrusRGJo5uQBcD3XSNr/pDUNc5W8H4y/3bgQS0oetLinFeTaLdZYTYbHfV6deY3sCiDkBf5wq/Zcuv3kmVA+3vc55WBxvtkfrDI932ytE/M/JwGUPJK7/0JaNZn3BTD8Rn9kKFYlcVIyMZnbpNMmSZt9RaeCjx1fJ1zDLygr9PhdY3VA2h//yII12tVD9SENB6+H/DswHHMhGAfeXJGYJYUv12oikEEbYgGjLCCRllpVf77JrzSAzLVR/eNh1W3CaKA7hcNu/OUuUESZ7XxwKXONIY5gAAV2trmkT2bKpul4CyiOZf3TlQC9GRDy+yj2Vuo43mP5m2bbhjBbfE3B3baJWeHRch3/F8SLYPanX+9u+9MKYb5+dnfzuq80MMot7jhkM4VofDRFSBCB1QQjkINDRpXjfH6R3sS4x/kQyFXYCMdeyS7UpIJ2Hbn75poRSlG6iHeK2A0c7wp9NOcrGL2n1TPHE5vQ15XdK2IDO/c9IsvHGO2QTjxGXucGHKGCeu3T6+j9QyysCafRr/YSwxBGCrqG4ar4/2OrtBTwRYcacawaJ0K9cckoj02N1T8nVBbR2CrH0dBka7D/VSDVyI+x8cnFLKRkfsqKrLJPSH9YB2hC9IH1b6VsMw3shk5rxvJj8Uti9aRXtufZ4/r/7btHBoMQPAGMc9WAPGX5sc0zMFSUoEdxPf7KFhRUaEYAPWhs5hZGcXRNcNtehCy5OtkEp/GXikajO00tBlK6T11RR15U5zhlTiUR8PjuapkurxNaPncSdtjdGaYCU5YOZL1csXP0nsESfP8Odv6yLUhj7L2KBFCS5gIDP5B+VQ8P5w2L0J3kC/ky7U0ANRfBYuSWEkyEcRvC9pFccd/wdJCh1HmMnm9u4QeMxbCVqwAo00VS7e5KZH78NIXlciaJegNwYQtm4IzfLnbNH7oxtTuFXKT+GpGBNqzH9bdAWrkEyW1wvrbnqZGnkZFfamjwtrDeq+W2nx/i111wYxjwJU5d6YuDnlf2wm+wey6CAARVhJRroAAABFeGlmAABJSSoACAAAAAYAEgEDAAEAAAABAAAAGgEFAAEAAABWAAAAGwEFAAEAAABeAAAAKAEDAAEAAAACAAAAEwIDAAEAAAABAAAAaYcEAAEAAABmAAAAAAAAAEgAAAABAAAASAAAAAEAAAAGAACQBwAEAAAAMDIxMAGRBwAEAAAAAQIDAACgBwAEAAAAMDEwMAGgAwABAAAA//8AAAKgBAABAAAAAAEAAAOgBAABAAAAAAEAAAAAAAA=;" parent="UEzPUAAOIrF-is8g5C7q-2" vertex="1">
          <mxGeometry x="227" y="447" width="66" height="66" as="geometry" />
        </mxCell>
        <mxCell id="77" style="edgeStyle=entityRelationEdgeStyle;html=1;entryX=0;entryY=0.5;entryDx=0;entryDy=0;entryPerimeter=0;" parent="UEzPUAAOIrF-is8g5C7q-2" source="74" target="27" edge="1">
          <mxGeometry relative="1" as="geometry" />
        </mxCell>
        <mxCell id="103" style="edgeStyle=orthogonalEdgeStyle;html=1;entryX=0.5;entryY=0;entryDx=0;entryDy=0;curved=1;exitX=0.53;exitY=0.997;exitDx=0;exitDy=0;exitPerimeter=0;" parent="UEzPUAAOIrF-is8g5C7q-2" source="33" target="79" edge="1">
          <mxGeometry relative="1" as="geometry" />
        </mxCell>
        <mxCell id="33" value="K8S-Cluster&lt;div&gt;&lt;br&gt;&lt;/div&gt;" style="image;aspect=fixed;html=1;points=[];align=center;fontSize=12;image=img/lib/azure2/compute/Kubernetes_Services.svg;" parent="UEzPUAAOIrF-is8g5C7q-2" vertex="1">
          <mxGeometry x="637" y="450" width="68" height="60" as="geometry" />
        </mxCell>
        <mxCell id="34" style="edgeStyle=none;html=1;" parent="UEzPUAAOIrF-is8g5C7q-2" source="27" target="33" edge="1">
          <mxGeometry relative="1" as="geometry" />
        </mxCell>
        <mxCell id="79" value="" style="shape=image;verticalLabelPosition=bottom;labelBackgroundColor=default;verticalAlign=top;aspect=fixed;imageAspect=0;image=data:image/webp,UklGRsQWAABXRUJQVlA4WAoAAAAYAAAAsAEAYwAAQUxQSKwQAAAB8Idt/yKn/f89Zi27SfAAgSBJcXeXxereQjV16ljdnXr7flVpoe7u3hduxV0qaGggNAqErM/1x8w8Z3bzarp52xEREyD/78nGl14gIk+flVVvctxy/SYR+S66YFT9SPfXdTB8C+F/daj/aPR0MSjAvnt89RvZZ/+OqQJsOMFfjzFiURQHqPm2Zz2F1uG5MNZqEH6wfX1Exl1FqNqBHVN89Q2Bk7ehbg+Wj/bWK/T5MUTSqP60U/1B/iMRbN/oBFTd0rJ+IHDrbuzP7SQiQ3+xBVsma+k/39il2N92tSZG/427bKH/ONyd5uv8xVFsH769tVi3fyhiB6rebp3Oa33nYWxXf9FF1Pv8GLID5VNy0nXa5duwv3KMT+wGTt5ii8TGSe50nGfkYuzvmp4hTvrv3WcH9C/7uNJu7T6oxHbkkXxxWOv0YsQOlM3KSa81n1aJ7dAPvSWZoxfH7EDxxU3SZ57ztySwvfmkgCQ3e9IOWyRWHJ8mcw/4PIHtovsyJPlNnj1oB3gqIy32eiW2Q093kNTs/ZadxBe93WkxbEcWjZSU1U5cEVdIbJjolvS4rd/PypJUbnJpiUXZ9c0kXW7jwKMNJNWbvVgBVLzZWkTEM/IO3z86rcdryx5q8beiv95DaqG73yfx74e4RUTyPzj8Q8Y/urxfgc/cfx/RZROklnr6ibHVtEr4/p/dJIyt/z6+aSS1Wjt3M/zjO8ckz3DZ3HnzPnT/p3tTarNr0HeY/sPL+w34wm2YqcM+Tx0ma04ZaQGtx+wF97eQOlHr3aQHlP87R6P8hrXEl+VzxJeV8Z/AFchyp4BbyZ0Z0JwLZLoc8mYFnHFnZrodesjgtuMKZHqd8/xnmXCv8UKXSM9X1u+amEKNRwaDowIi0ujyD5evWv7NDTk2Cm76fNmq5d/e18uiVzAYHJ2ronUOBoNjmop7VDA4OlfFEwwGRzW3aHrp24tWrFry4bR2TmSODAbHNBORrEs//DnbIuuCNxatXDH/+ZN9CoGRweCY5iLS7q4fVqxaOPtEt62Ot36xbNWKec+e6LPR/Mr3F69ctfi9a/Ms3H2CwWBHyRsdHP22Dn+NCwaDAywCZ89ZsGLVko+mtFZoFgwGgwERaXHDV+9r2cFgMNjJhqtfMBgcWQu0JzD+5G7zYgL0i1JobDWEO0ubOysxPzQlw8rV/70o5okfRroNo6qBH7MVOh0A1jWVBmGIXqLSGIhMNGl+TxmW8c9H+mx1OwycIg2uPgBHGpu0uasCy98vamjR8SgwSfKfiWC+9QyfinvYFwksd0xuotDq4SosIx8M9hiyFwDPalMTqK4zyb2lBMvIa30sTtGBTtLygWr4VfPtA1YE1I4pAj6tPT8O3Aa1YvxWFKP3WLhvK0P10GN+EdHujIF+t1X2MiA0RpLSagXKR17NdqbVz3EstOO3oZr4KVdt9K8ohl7PsvI/VoWqvqqXxTFrUT70vD85wS06qgfv8ap07LdBxyA3A4cGql0KRI6rPX/8Se24qRqoKa1MGIiOMAnMwli2fcO2/Rif8YtI5kIgPMHMdU8cEjdKUhquAyjbvGLlpv0JgG8dmbwIY7XhzMMANTs2bt4dAdiar/JQERCpOBQ3kHjJZ5Y9B9NQ+WEdY8kQk8bbAP7atGLl5gM6wIeawjSU14vI8aUY44cqIwZiM70KE3dj/E2Tbn8BDyu5VgGbcmqPZcolIugbrxzcs8/496OA/rpHRFz3x4GqGb1yG7fscsEOIHGXW0QKioDNzU1GVQNfBJKiTY1D/ImeOYHMZp3PmAec68ifwMF3Zj6bKXJCJRB7dVjbpjn5Yz8H9B/9CtWw846RffpNeDEMkJhq4ntWN2y8fmjvASe/FwfY0drwkA7xh7o3C2TmdJ20GDhNFMbNnjNnHVD96pw5c+4RGV4KcHTWcf36jLxtF0D8boX9wI7ZD8/UxPs98FemypgE8KDUrtiBHXsmphiUTHGL6R0JYHUTEQnGgNX5Yp79URzKuouIdm4IeN0jIq12AkUdJCn+HyHxjEfM3Zft/8zvCGye7BNjs/VA2UQx98w4CtysQOXMLDHtsxagpMAwIQKEHssS0zG/AnzrFWn0CyTucom5d+pfr7sVXCIiM3XY5xFjo+UAq3uLaeNX40DZICviS07WxPRsgKsVXB8C1Xm1qubVCV3bFjRMtfKhmpj75gL78kQarAeKC8S64TLgcxERzxwgdq0mnjkJCB0nyWmwB0LHi2LfHuJI/JVWYn4PELpQsxBtOrA/3+rw6WLdbieQuEkTydgORG52iWXXP4GaE0Ty9kHVUFEcUCBJKEwAy/PE0vcwwIeaRei2hmLp+x1YGrAq2AvMllqUWDpInE+GfpxYazOAivYip9VA4jRR7RKGUHcRkayVwL5uch6gP+VNUqNSiFyo4qDJN14xzykDvhTV7EUQv06zuF9Ux4aB5Rki58aA+RmieFIUeNct7Uqh+gQVc4fcW4CqEaKYsxrQu1g8roniVKBioFUhcHR4bVqfK7Ui3ElBzo7C4Xxxvwysbqzk+QgStxtkRBXwy9BiYEUDSVL2ZmBrz6SdLpYXR0HvrqRNjcFXPouJSlk/A/Fc8b4N0FdUsxcARxpKy9+BtZ1SY0Qc+NqlIlfpwBMWXUS1UzHwoNVKYE2D2vSTu5Z0Vjk5ZJLxG+izNCW5VodPfAa5JQF6JbC/oyTL87IOhN+ccIw/KadYuF8E1mYqSd+jcDDbYpKS3JYAzpAma4GlPiW5LQGcLBmfAlTPHpOfkbz7dOAkUc48DKzymHVScn8BHMgyGwUwQ/7eTjJrCiQe7tRZ+boIrGxskvEuptHJrqRJ/0MYY3uXP3tCdvIyfwK+69FZeVA10MGZ8RHgHskrBZ5wqY2KAg+JjAhjjO5Z8tSEQHK0j4FQtpr8CPyR64ScqAOXm2jvA+UN6wb9cHhHcxPpuNPkbbFOgpxRbDA98vb4zCQ1XIfDxzvTpQZ4SQp04DpRzwsD74nIeQcNpodeDQaS4P838JvbxtNAcWdHZAuw1G/I3wM8KnWD0U7tzzWT702OTwnp8krUAmrmd01O421One9M66PAW9IBSFxiIzsEfCUiWq93ohZQ/X1757IWAivt3A2UdHfmMqCyn6FQh4oBdYRBhkP77W9qaaKdW2NS1CYlRPLvX7QrbAJ7eial0UYgdGC/7YPnONOpBnhZCgCutpEbBj4Qo9b54SW7IybwRyfHAnOBbXaeAIq7OHNMEXCfiGjLgYWBOkIrQH+xcxfbHTwmeUWY6h8EUkPE237Ejf+OGtiQmYysBcDS3l3sN3JmVBh4QNpUAjNdaoMjwOMmIpKRP/LWBXEDSzKdcn0BVGfY+BLYmeeM60PggF9kRAK4WOoI/hLgfY84nL0QOPJ+FLgyVUxbPVUGhM9OhvctYFcDcdSJaXHgfGm2GfjZqzY1DpxjZdr2hUrgyBin5DEdGKXmLQXW+p2RYAK4TLR3gCJfXcHzOfBbC4dcd8SBKf5vgarRKrGrkyUy7gjoM7UkyIw4MC5F/J8BtBPfx0Cko1LgGyDa3IZop1UD12lOHR8H3lM7SwdmiUOuFcBCf/vdwM1SV9CuiANTHBoVAv2zTGm5E1jV3KwGEveo5Cu4lTI+BV7yJKPHYWBlhnPXKfWqBDb6Ra6KA2+7VYYcBr71iIhbRbIXAPc75v0TONBDJWsuoA93Si7UobzfucDB7nUGaVsMlA9X8nY1y/8dKCkQ0c48Crxlkn0Q+NJv1XyxVfM3c1S8bwNPuZIhHwOxm1xK3b0qRf0VAksBHnCJNNoP1EzSrHI2AuFzRST3jSYqgR+BmxyoMJFpAF/7FK6LAXPdjrXbBdyzDPjeU3eQmwB+G6aQP+tAJ4P3TaDmJDG+AESvcIlIYANQc5yZq/9i3cL9SHzdKJ9Vm50Qu1aSckwZEJrst2o0ueJSTYGik/xmbT7SgbI+IiIXx4FDZ/rNOs0FWNlAxDtHXzLYY9V1H0TPFLV7daCriGiSuwXg4zZmgeviQPV4cUzeAqoATpY6ROATgNIX8k26PL4TvsoSkRlxSPyXx6ThQuBAZxHxvAZQ+lB7kcBx75dhNAyshsNfn+AxaH2XA5XHJMc1IwZEfxjtMjS5cnWUA/kqhOZe1Eyk7e3bdYBHxBj4TAfC357ZQDw9n9wFUNFLRII1UPXpOLdBG7oWKGpr45oEML+l1utxn5wWB/Q/7umgSbOL5kcAZnmSMFDHdL23LiFtlmHU17330mfbEwDV/USGVABrGoj54FJgdUMROT2E6aGSKBB+w+KuCMYDnzx69zNL40DiVkmOyLNRAH3vFy+9uyyK8QmFlyuBRHk1pvpPfhNpuQLziiimlRM1EZkZw1j00SN3P7ciDsSmio0+UYBwmX6wp8jUGkzDRzBNfOmTJMhCs8lSp5Dcd+KoHzzDI5krgJKeYj0ZSDztFfF9YmYantrcwnv5YYNi/Fl/0nzTwqhHHmqocO6ko6jOay2WrT7VTSyLj3WJiGRMCRkUYw947ch3BkC/XMRTWG1iPauRJOVM3VDUoTY9afJzLRhXAzGlkyNQXWAi7ss2Rqz0PbNbinhfBRLTNAXvu0DsVBFp8F6NxZG5g6QJEJsoIpL/zj7dKr79Sk1sVQOnKon0+75CoeynUWJqMkkGL49aFD+eIYqu67fGrErebyeWnT8uVohuKdTEsAh4zqxgk1nsQU1Eun5dbhVaPVET01NxKO93w4daLZKh115zzTXXnKKlXu55hYXnN1TJO7+w8NxsM5Gmox9ZVqonyle9cEaBJiINJxUWFp7tE9XW5xUWFh4nIhIY+dyWw3rVsvuHZIr4CgsLz29nEFfHM5//5a9oeP+Kp09oKfYbnVtYeFGeDfH3nfrN3hjV2z+c3DtDbEjjY+f8Fk0Uf39VF5eotzj2X6vL9dAfH0/u6hJFd+dJs1aWxkLFyx6fkCOmnmMLCwsHaibS9pZ1R6PFn56SJUZfn6nf7A3FSpfODDYRyzYXFhYWNnBA3jUMkdqUik7Vna3qjI3WAAulPmVMGBKT6lO0L4E/8lJifqAW9S5JJ50QA2ZJSvD7Gdm1JGd6JWmi7C65bU/aAxztkCJE5g2oDe4LNidIF51Ysn1HCOABSRWIP9sh1dz9v0ignOa5G/P5zVMI9tyZmVItZ1dgM83zmUnivVaSUrD++IyUaXZ5CbZ/qJM1uePee+/rXif4aPvunRu/ONUtSZ5eYYua7/unhnbSqgS2d56o1cXqkP7c/HZNJQU7fnzEDhy5p10K9Hof+yVPNZL0uGfUPFvwx1R3kpo8W4Jt/e1ekj7PuP533Q4sH+NLQvYFe7GdWHG8pNdb3xuyxZFPCxwbvyyG7eJLmkjavfPXNXag+o6WTmhdZkWwXf5SjqTj/ceutUVi22SvrcwHi7Gd+LKPS9L0vpt22QH9p8FupazTf8N2YuMkt6TxCx6rsQNVb7dR6D83gu3yKTmS5h80N2wHSq9pYZL/eBTbVW+1lvR/4LRNtmD9RJHMO3dhW/9xuFvqBRvMLLYFn529HPtbJmtSb9j1Jd2Wk1W3tJR6xZGLYkk68mlHqW9seM7upPwy2iv1kI2ePOjYjut8Uj/p6vFmzJHQg+2l/lI7ZXXcVs23PaR+s9EVJTY2HO+Xes+cOaUKe+/2SX2oa8BXZqGnC6Te9Kz1OpH5w6Q+tcX0Zadlyv/LF1ZQOCAwBQAA8CcAnQEqsQFkAD51OpZIJKOiISg2ubCQDolN3C0xwB/APwAYoD8Gv1V/uWxZvcAuQCsJBzmvsPyI58Hlvw5z5iFuy79x5Lvtg/MX969wD9M/xV9iX2D/wD0AfqV+w/sl/sZ7gPQA/oP9w/+nsi+oZ6A37Aeqv/sv3N+Bj9svYT/aD//+wB///UA///XD8APeR7RCkVBM9KFBO64a5B4RuZ4SYXGTC4yYXGTC4yNHg8SbElokq7D3jJPqvGkUdWN8dJMDnelYJrTpJTvO2hau2ACChxkwnHhNuEAVcZo6kf6w4nADfoChDfuQYNxOr6CR001DJNVsqcYad6o2M2JD3OSd0DFtxk8eTnllQ6curdlTs8kldfatTPh2pIg72WpTeNeXxfbTKc2KPpOrG+OkmB0kwOklRKmyZEdabC4yYXGTC4yYXGTCaAD9nDwhdfUm7//Rd+7YCYI3/Ry1oFv+Oq34GzT522cRaXqiyaGiXLfPI5OCk4FgCUAAe/fpE3T5KvXTFagcd1/fTcojgrOfPDvAsyonBl0ncw7m2F2kYLdFLawysCEIgiKZ8OldQDlZWLRc9es0T+Bw+MjrNwyfeqLfjeFkLa5FmPZZhTL1edhtl08l6R9e4EQAEt+FC4D/zAp+stclwcIo0Ce7IhtoTwfyZf7/ujVzUPR71CyhXICJ36nCLGS+SG0NdzFODw4i1TbjMH19PXZ//aBmwzOURIGjnnTPoiDS40z5wO2bOHrI/7NsMS1jR8eJ5axkSCcS8HKo91MyDoKZqTPbc9xDBzH8hWF0j+fcciY7jnLcOZrytNmr3QTjd+Nvonk8wBnuPetLReLygGBtuL6VXJcYWM3qlSkQc8h4Eo6NR+CRl3MW/CAgaKBpjgYyKF4Z79HEFeBFpdzOHmfGANkCQ1VJjMlHJmHXcNbdldecJf48kOHA93JsF1zFIfvtZj22GMj7KfsVaUzWYPwFOjlmHc1KrLSt7xElvVPv8t63ErM4UP9PAviJYJ2pHDkQZvHmg36646JBD4XkzMdp3Qhjv+o/eUlL36fTKCIS/PdbyCzYjBARWi/X7Z45y3DmbJmoC4a1+FM09gY8IrAoA2/aQoUG1buiIGN0nuHlm58Uog3JnLI2CIOGqRmQ68Wyml+sHDKAC4W24H19yhmrOuzmh/pDPLuy5QpDAkCXWYLdVTnD27PoDYZWXYs2pA2PrCXdCfHKyc6H0g4eoclVnSqqRslQCdBNxpUvUEylG5NjmZjFBPgMG5tUmqG969SKYij+0vBSaTaHgv4OZ4qBpX4oZj2Oxd68eCkJpUgEF+RWN38BbClQdpDCevI7hohrY0XAsFYx41lH+IdPTf2DeMnrFaVmT3f+5crcitEjClSsu8bqHKFTA//P40XAsMDfhLodFvj+GpsGMOaLu8CbsiPHWqoQvUNgT0l12iGyOiqNIFAq1cTapvwGGv2ULwe21TsF4HHXsF3XDQC55hef/8Gb/wRjgfYe5lpBJNEQMbpFSTOpW3NEW+kOF7/+l0FfglWYLAY2u6LXZaSsLf4O8fl09+Zl7/fqu9bDZ7q6CD0v+IPWjf4vQkCkPXFUlxDT0dOEpAe4pepBc+M44//NdBh6/F//P/Mson1wo0ywACya6Ml28ocV83uBF6NaLoZfR4mzDwYAF+hHnmRw//gTX+CF+ZMZ30w7gPXcGQM1RGTyw3pNzvf/DGmgQ82wQV+hYe//464ZwzJAlhJDabx6OruuA1wb1MYq/cmQAAADpHUAAAAAAABFWElGugAAAEV4aWYAAElJKgAIAAAABgASAQMAAQAAAAEAAAAaAQUAAQAAAFYAAAAbAQUAAQAAAF4AAAAoAQMAAQAAAAIAAAATAgMAAQAAAAEAAABphwQAAQAAAGYAAAAAAAAASAAAAAEAAABIAAAAAQAAAAYAAJAHAAQAAAAwMjEwAZEHAAQAAAABAgMAAKAHAAQAAAAwMTAwAaADAAEAAAD//wAAAqAEAAEAAACxAQAAA6AEAAEAAABkAAAAAAAAAA==;" parent="UEzPUAAOIrF-is8g5C7q-2" vertex="1">
          <mxGeometry x="263.5" y="544.4300000000001" width="193" height="44.57" as="geometry" />
        </mxCell>
        <mxCell id="85" style="edgeStyle=none;html=1;dashed=1;" parent="UEzPUAAOIrF-is8g5C7q-2" source="64" target="74" edge="1">
          <mxGeometry relative="1" as="geometry" />
        </mxCell>
        <mxCell id="64" value="Redis" style="image;sketch=0;aspect=fixed;html=1;points=[];align=center;fontSize=12;image=img/lib/mscae/Cache_Redis_Product.svg;" parent="UEzPUAAOIrF-is8g5C7q-2" vertex="1">
          <mxGeometry x="406.5" y="363" width="50" height="42" as="geometry" />
        </mxCell>
        <mxCell id="92" value="" style="outlineConnect=0;dashed=0;verticalLabelPosition=bottom;verticalAlign=top;align=center;html=1;shape=mxgraph.aws3.data_encryption_key;fillColor=#7D7C7C;gradientColor=none;" parent="UEzPUAAOIrF-is8g5C7q-2" vertex="1">
          <mxGeometry x="120" y="143" width="20.5" height="24" as="geometry" />
        </mxCell>
        <mxCell id="97" value="" style="outlineConnect=0;dashed=0;verticalLabelPosition=bottom;verticalAlign=top;align=center;html=1;shape=mxgraph.aws3.data_encryption_key;fillColor=#7D7C7C;gradientColor=none;" parent="UEzPUAAOIrF-is8g5C7q-2" vertex="1">
          <mxGeometry x="64.75" y="259" width="20.5" height="24" as="geometry" />
        </mxCell>
        <mxCell id="98" value="" style="outlineConnect=0;dashed=0;verticalLabelPosition=bottom;verticalAlign=top;align=center;html=1;shape=mxgraph.aws3.data_encryption_key;fillColor=#7D7C7C;gradientColor=none;" parent="UEzPUAAOIrF-is8g5C7q-2" vertex="1">
          <mxGeometry x="324" y="234.10000000000002" width="20.5" height="24" as="geometry" />
        </mxCell>
        <mxCell id="100" value="" style="outlineConnect=0;dashed=0;verticalLabelPosition=bottom;verticalAlign=top;align=center;html=1;shape=mxgraph.aws3.data_encryption_key;fillColor=#7D7C7C;gradientColor=none;" parent="UEzPUAAOIrF-is8g5C7q-2" vertex="1">
          <mxGeometry x="186" y="189" width="20.5" height="24" as="geometry" />
        </mxCell>
        <mxCell id="106" value="" style="shape=image;verticalLabelPosition=bottom;labelBackgroundColor=default;verticalAlign=top;aspect=fixed;imageAspect=0;image=data:image/webp,UklGRqJmAABXRUJQVlA4WAoAAAAYAAAAWwMA6AAAQUxQSFA/AAAB/yckSPD/eGtEpO7hDf8/11ba/3u9Z9ba9CoiIhZEsWBDsRfU2JVoNPbeY0mPPcWaGBNr7L0kxt57V9TYQFCxA9JBEKSz15p5v27svWeVvbk+n8O5E9H/CUDZDTYfCkE71QhH/7sjpJ1KjMO4BUy7lV/zCrRTFcR3c17/dioGG80iL4O0SwH+woQz+0HaoQi2WEolr0bU/kTQ7UMqPSeuC9PexFj8l56k41WI25nYSK6kkqTn99sjaldi0O0Gp3WY8IEOkHYkgr7P0ynrpzyqPYlgyFg6ZUPPaatB2olIhF1n0CsDPe+ASLsQiXHAHHpm1DNg24UYOWEuPTMqFx6AqD0IzljmPTN7zt0HUbsPwWmJOuboOGc4TPsOiXBqSs9cPWduBduuI8YRi+iZs3LyprDtOCz2m0PP3D2/HQLbbkOw0ww6Fug4Zl3YdhqC9SbRsdCU7/aHbZdh0PsjOhac8sXuMO0wjHR4mp6Fez7QGdLuQgxuoGcp7zQi7S0MfkOvpVBeCtvOwmL4IvUsh3OnI2pXIej3FR1L6nXJfrDtKSCP0rO0njM2g2k/EeFCltrzw76Q9hIRRiyglonKB9pNGAwYQ8dye/4ZUbsIMbiBKUuuXHwQovYQBgfQa9no+Pk6sO0fBKtNoGf5Uz7YCdLuAbiDns2Y8nftHwQHqLIplYu2gbRvEHT6lE1C5ejOaN8Y41Iqm1X5D0TtGSy2nU7fRHN/gqj9gsA+xITN6/h2N5h2CxaH02kT0fH89guCPh/SsZk9f9wctp0CcBJTNnfK+ztA2in0nEBtMnqOaKcguIDNr/ykE9ojCvpOoTYdyT/CtEOI8U+2QuWMQTDtDgw2mEjfAuh5O+J2BzH+zpStYeZ2sO0MLDb6hq4lMOFNMNK+wOAcJmyNnou2hW1XYLD6F/QtgilvspD2BIIjmbBlem7RvgCd3qZvJQ8I2hXuQGVL3ag9geCRVnMXTLsBwerzWovy+9Ug7QUs/sSW+zfE7QTEYBR9a3EcsxJM+4AIP11AbS2qPB1x+4AYN9KxxaZ8viukPYDBgFGtR73ujag9QIzD6bXVMOGVgKz4J4KbmLDlek5aC2bFP4OBX9O1HqY8BNIeYC+mbMGeL1TQDlCubE2krgdZ0U/Q+1tqa+LF7QGG0bMlK79BO8A/UlsTuXQPmBX+3m1ZypsRrejXbxFbteeYTpAV+gyO9C1LuWB/RCv0WdzG1p3yGsQr9BmMpm9hr/eEWYHPYMPp1JbluWBXRCvwRTiu2sKY8Pcr9FVwHT1bd8pHu0BW2BOL55i2MM+Z68OssGew5id0LYwJ91uBL8Juc+lbWcq/Y8X9GKfRaSvzHNUNsqJehL+zyhY/aMU9xA8waW3Kw1c4kFpTX+oWJGKMEWkOaSS1JlAC8xAxRkRaxKrv07W6m7ECoEhsTKNiTa2NGlqDwCiyUj7ASp1mtJFpBZvMom9149r+BJ0veO6eu2645m8XnXfW6acfd8TBI/bZefgOw4cP32nfn+538FHH/uKMs87506WXXvmvf91199133/3AYw3/fce/rvrjSfsMXW/17gJA4tiULP7nw7f846KzzzzpqINGjNhjp+HDd95h+52HD99lnxEjRux/+JFHHnnUqaeddtrpvz/nnHPOvejSSy+97KLfn3bMz7bdYI0eAiCKTdP9hE5bG7loDUib38F0bOpk/PNXnbLXkI6ARLZEBmezSdPvXrz2xJ36CSSWJjuCVbb69CCYNj70/JrOe+/qp/WTNNA19tmdc2maKkn6iU9d8tN+gBgpiWDVyXTe1aaBSZrVZU7TNPWkcukHNx7eF2Ka63wmLY9nwbbtCc6isrnVp0nVkVzw2X9+2gkCKUWMy6lsTlWXVJVcNvbKdWAgzRPdyrT13YqobQ8dvqPX5qqrPk1JLvvq8sEArBQm6PoOE9WmqKsuUfq5d68FMU3T7UW6Vuf5ahufxa9JMk1S54tQ79I0SZIkTVPnnNccSKp3nmT1rqExrCkqwgFLqPTVJHU+P1VfVzUHkuqUnP+rzjDSJH2/pG99n0Kkbe+3o7+enZKkVhOfkyYps/pqNXGaqVaVyiX3bC8SF2Sx42ufTV3CWk3SfJKqY31Nq9XEaSaSquSLgxE1yeoLqa1v4powbXkAug0efuivr37qsyVUdbmoJ+eMeePZh//7wENPPfnCO2MnzPWsdc5rplrvuejaQTBSCIB4ta32P/Xiu17+agnpNA+Si2dMmzZ11nzHus5rJlITTvwJTHOsS8dWr5wzHLZtz6Bul0HbH3PHLOapXHTziC0GrtytEkVxl849+g0csuVuh/zmuldmKmtVM1FT5ZcnxTDFGEHd3uttd8zTntk9r9t3j+0223TTTTffZvjeh5194+vzSFI1C5ly7v6Qpth+ubDkUERte2KMjSsWACpr/HkBNRP1AhjkaHoM2Oy0R7+nkt5nIX1C//gqMFIExNioEgsAdDp4fqaUj3eFINT2XHPXy7+g0msWOv64K6QZDlku6JmI2/YaioksDHafSZ9BOQomssYYqWuMMTaKDGpN513vnFylpj4L6R2/2h7GFFFfjImM4CC6ME15NDpFtmEUCQBIh12fmE/vstBxxrowTfBb+pZH5YUrCNSKxDjVU8PI+2CRq4igtuPRz8+nTzNRldVfWGMKq2vQ+WGmYUz2QYRwEQGArR9fqj4LPV8UI+X72/Ig5Y2orDAAiMFY+iy3weRTX4ygsttdVXrNQird3zuJKQUinMRqhmV7ZaorBpXjJ9NlUfI3iMt38/Lhv4hXIIDFdcx8XTGARBay6wv0mok+5W3dICXZ06uGLd4jH8BUsMk4agY6ftgfpnQPUpcHz8DICgQGR/hMlxcFIDLofNRkep+FmvDejpAyWGw1iz7Ec+FueUEiDBpHzcCEv0VUupeWB45vdMGKBIJh1UwXlgASCVZ/mOqyUB1vBqQUm3yXZf4uuQEGG3xPzZDytT4wZfto+fDuSjArFAxemuncMgAigt/OZZqFSl5cko0nZpm7E2xuEBxKl0E9t4ct2zfLh1H9VzAYuCTTH8oBiGD3cXRZqExPRVSKCVnm7FBMh3uZhjHlOSj9tOXDJwNXMFgt22/LAsQY9D7TLPScuzuiEmw0PsusbYuAxY5LqWGOT3aClOx7Lgcdv1wfdgUCYOXFmX5THkToN5IuC1N+OhCmuCHj6cKmb1WIwD7IJEz5bZ/S/bg88Jy42QoG3RdlOrNEMOj7Ll0WJrwtghS24TdZpg4rBDFOodcgKtcu3ZLlw7StVzDotDDTGWWCoN9Y+ix0PBJF5zFpaDEWm06kD/PcunTpcmKbFQyibL8oFQQbT6HPopy6Sgm+zjJx02LE4HW6LHuUTpcPU7dawUAWZDqlXDDYP6VmIHkrTFEbfBXm+O3GxaCCe7IdUrqly4cpW65ggGwnlkwsLqHLovxxG5hCDNbP9PWGBcW4kBk9j0HZ5y0fJg9b0eH4ksGg8ytMM9DzCURFfZnly/ULinBSQs3wc0jJZiwfJm2xosF8aoZjIOVChB3nUDMoF4xAVMx6mb5Yr7DDlmbasXQTqMuD74auaPBjpqNLhwhXMXPC/8BIIYM/z/L54IIsRizKoBxYunHLh682WNFgXqajygf0npzJc8GOsIWsOy7LuHVhCto/g/KrlUo3cnngOHZNmBUL5rYAwS+pGZjwIkghgz/P8tk6BUU4clmY410xyv7o8uG9lVc0mNMCgJ4TqBk8vxgAU6ZPi/uVD0t4BEzZbqJfHrzeGbLiCX7NNANT7gspYr0vsnwyqKAY19Ez0HP8uuW7aHmQ8nmR/0cRY0T+zzO7FRgMnkGfwfEOgzKNXbugCM8wDanyChgp2y+XD4/BNoeJJBcxUV0jxYmJ6htpDSLWRvWtFWk2sVZyEBtZAJDIGmkFYqyNaq010jLEGBvVt9Y0zZxWIMA1TDIo5/SCFLD+l5kGFmOw5md0AZ5TtoRF2Q+gWx7ciQpKLyLIUwQZpQhBVmkuEeQrTSOCPEVQ26H/gF4xaqW5RJCjSG5SEhFBrtIKjmwGRBhB1TCSu5RqzFrFRDg0oQZdjhil33h54Pm3sokxAAQ73rwdTIgY1G5yynWPv/Liw9efupUFYHIyBgAGHnLFf1949en7LztuQwAw0izGoG7/vU6/7L4nXnrthcfvvfL0fdYWADBGSmcMAMGql7y0PkyAGECw4S/vG/X5txO+GvfmTcf1A2CkScQIagf97ILbH331tecfuuGCQwcb1BrJRUohRlC7yh6nX3bv4y+99uJj/776jH0HGgAQ03RHNIVBv3fpMl1RzFdZPl6zEDG4lQkbe47tCSnf6ouorU7JXyMukYksAHTZ8Pyxy3gL4oBIYLoOv3H8MmVdX51w+cYGkeRgLFDZ5ILRSxzr+6UTrh4aQ0xTWAtI18EnPzBxUaJsrOmS8fccu2YMGFsmY2MB0HHVI56b7/gPVBpIJDCDzxu9VNnYL3x5RGcR0wwmEqDDmsfePX5JysZu6czX/rx5dwvYSLKIRYdNo6KsBdBl3RP+PX5hogxMlo7/9wlrxYC1JZub6fCmQIzrmGZQflCAxQaZRq9RiMXQWfSNPBcOh0H5+3xG3/qWHIKoHGKiigFQWWfPyz4i6flogI1gBp81jp6kqldVUrnkpiEiJouJBP0PelFVSdJ7VZJUPr9zJLZ8Jhb03Oa8j6isq6peVVmrXPjYYf0Ba8phbCUCYPtv86vnFlKZ8GFYqWMjdN3x7mUkqb4+Sc9R+xqxpTOxoMP6Jz1TZV1V71WV9b+8cvdVBBLHRqSesXGErrePqRRjIkG3rf7wHhuqeu9VWatc/PiRqwORWf5EOKxKzfJDb0gBX2cZVYiIuZ4pG3r1x0PQhF2eoWt9c3aGLUyMsbEBYNf4ya/vn0olVZV3NJAI0dZXfk+qKgNVPaedDJEwa7Hqr8eQDRqqKnnrQNiSSSRY9xcvVqlU1ZpgVSU59qy1YE1RYmwcA4LeWx993ccJSVWmfKyeROiw+0MJVZXhquRtA2FLZg16HnT7bCpVlRlVlcpRf9m1FwSwcV0B4t3e4LzORUgkGHTSc0uptTXBWsvPzhuMyCx3DAaOpw8jl+4JU56PVi/CYH96NtSUZ6M55RqmrW/yujBFCeoOPviShz9eQDJNPWv/gahGBOvdOJs+VWZOlTd0gASIoMtZYz1Tz+zO8YsdEZVKDNa//GuqSz3zdonymz90ghQiqLvKHmffNXIGSZd6JZnyP4gBiGDz++cxdcrs3nHsNrBlEoOVTnvN0adeqXVDSGrqyPlv/OOITbujfoeNT3lkLlVXLUAM1rx4HOkTz5zVpcpv/7gSTIl+zHRYc8BiJF0W/hY2vw0zfTigAMGQKdQGnsv+GBlpCpzEaqvz/BQiRaHzpof95YH3Ji4mySTxbHhejQi6XTKFPvXM0zv+pztMPRHBQaM8U8dcNeEPB8CUxxj0u26y0qUk1Ws99T6IdCn1fztBpABg0Ig/3P7Gl/NI0lWdsm7C21GBCDr8aQZ9qsxVq5y9G2xpRBAfNzqhr3p6ZaBqI5KuSnLZlE/fffHx/97/xGsfT/b0KXW13ETQ+6qJKdNUSfVaT71qAEmX0I/aFZDSzGsREa6nZlDehqiAbzKtlpcYgyFjqayrykUnIxI056502vJeRoRCDTZ+bNbClLUuccpAdxKsWMHen1OdZ85a5YOdITVWMPhpT58yd6dL94UpiRh0OGMa1TmS3pGkOqck6VMNIZ3n4vONSE6CHhdNnL9MSVIT55WNHa9GxRpsN4qaeubuOHdn2JIYgyFvKn2qVE9dNmPkg/c/MnLaYk86DSA1TRmeKrmoa05iEJ8yjXROSe9J0jvHWk01hHSO1b9GYsryY6ZDm8TihJQa5vg64vJ8MABWJEzEmMhCcMBUOtb61POrnRAJmnTINPoWR14HW4jBkCn0JL33qgxVVg9HZDHgNlX1ytw14ZUQASJ0/tUP9F5ZoOe8YZBSGIv1XqWqJ6mJcs7o+88/5Yjjf3Xp45/M8tREQ6je84FesLkIujzGlKQ6r8pwz4vRCZVzF1M9i/Sctj6kFMbYExdQvZLeccr121YAQLDeL1/7kakPIVW9d857753zSio/jPORGGu+QKonyVT5w5gHzj/1yGN/deljY2Z5aqIhVFU+2Re2JPNbhMFWC7J4joaR0ryzMqyxcaVxHFvUdt3sPqonSU0dF97QAyJo1r5vMW15ZxRksR+XVJ0yu3LZgYix1ydUJenTpFqtJqnTLFTHYyHGYMsX6JV11XvvNQcqP+oCKYFYOWA6VUnSe06+ersIDeMtz3t2Ib0PIZnypX4weVjswGWqzFOVZ8Ou8xi9smDlyK4oo0GPa1N6Jen90rvXRqjZ5fFl9EHZPS9FrmJl7+/olSQ15bTrdjJoaLY4+9nF9D6EVMd3BsAuTwRdv8/2dX+Y3IZ8G+Y5YVtYZO206kZ7/+bplA2VS17aCxA0reAWJq2uuitMIYLetydU9Xks3Q/dzl9GR6pXNlanGaicNQgWJ8+iU5L0XllXvWai8grExQk6/3kxHWvV866hgImsMcbayADRno9RNYyOI1dDngabLlWXE/1p2ONTetaqqvfeq2oOVF4OW5yg9xNMlCSVP54ZIzINxEboeMpCahGOW0LyQOWPc+lYq5r+dwsDE1ljjLWRBTru/l+qDyIdR60BKcUCZj2kSWDwbbYpm8DmNz6MynGPPXTfbTdc9Y9/XHHxhRde9Perr7/7mf9NSEh1DRY/9PNusILmjfFrpq1uYU8ULOi600VjSFI1jOSLhz2tdKpULh153a9+vveBJ577yHQqNYzKZ7HqXSlTqiprp73/6usfzmStZvCcthVsUYLKv5h61jrOPD5CxSLQVgw6HPw1vQbR8ZUukGwQHDWPnlTNgb89eDETUpXhqpk8p28OW5Sg4+NMlCSVy05FxSI4sthtJjU3TXhHnIcAtzJ1rPX88eROiK2gsalYxAeMpQtjynd6QJYjgpezfb9jARuNpw/K3VdTZV3l17tCAIg0TYTd5tK3NOUoFC4G6L7lzXNI9VnU0aWerL549IBuBnU79tnnDU8fRvWjxtF5ek/1k246aO2Ve3Tt2qPv4KOfWEz1YUx4D4wUI4juYOpZ6zltR8QWGSUyWOkBqg9iyoesSDbA9D/1jWUknWYguWAxHb0n1f/wxk3nnXnq7y5/dJInvc/AlHcgKgq4lV5Z/xpEgowSYZd59BlUU+e8c87x00EwyCxG7qR61irnDEdkkVEiQe+7qRpEx2djLFduz6Kcvx+i/CZkcmmaJEm1Wq0maZom1SRJnVOGVud+e9tunQCxpkkM+o2ia3E3FgexAsFKf5xA77PQJ6pTrx+MWjHWCgCDA76jD6OSqurIOQ/tYREoWPumH+k1yHPOdrCFiJh7qMpa5ewdYAXZjQEuo2qQOl6IKAcRAGv8aWxCdZmoSue5+NMrdugIQV27xU1TVV0Gz6lbwRZj8QtSWav8uhME2SOcQK9hgcueXgcGmcXKLfTKWuWPO0ME2cUY/FmpQVRegagJDm6ey5lRufjnZSqnctIlG3eEiaQpEOFhpi3uOEhhAEQA9L58Bn0YnefMa9eGAURQX0SAtV6lC6MqfcpZN64PABIIYIexdEFMeAmkEIPL2djzCIggVwEuptcQes7fHTYbIICg0+GvJvQ5pFz0xMExggVrX7eALowJ/1iQwdBZVDY4HIIcReTfTEOUr17wyOtjJ3zxv7tGQJBdDC6kV9Z1PAGCfMXgPGZULtwPUfl+3jxnZ1t6eAEbN4OqUrn03j06IjJNEeNsUlvbkHLUWsE2n9MFqeMT20IMMlus/A5dGOnp7tsUxhqES4xVX6QP8vxsAEwBEY5OqPUcbzLIXcT8ky6Iju/1g8mh1hpER4ymz0S+sW8FxkqQFRzwGX1YytdXghQgFg/Tsa7y2975IML2s+gDHP+Oihmw8aDOgMnD4GCnyrop767kVnsxXRAdP+oPU5S0kFOyJccUMTGbhudTq95xyYO7wJhmMNh8VktTju9VHkgnHJNSAzxnnV5BbJBjjCHf0ocpvznQwhpkj9D7bfoQOu5WhMXQqXSs6zltbZjcYEynh+mCWOVZyF1ii95P0GX6y0qwEbJKjEEf0AWp59awBUQ4OKXWS3kR8o5xX1DKl7rGFgDiCDkK1plGz7qeU7aARe4i8Z1Mg5jwouLMwtZxTLZlRxWwSQ65qmomkonnvJtXh2kCGIymb2GOt0YosUHfT+kaKX/YB5FFvhWcQdUQx1cGwljkGmGd76hhf0X+gi6PM2H9Kv8IgwItVhtHH6ScvwYkJ0A6YMdZ9CHKZcdAYkGOFWzwDX0IE/4Ckp+g8iAT1k+4J0xOFnsspDZy/GwQrLFWkK88Qsf6Ka9BjAINVvuQaZDnD5vALjcOy7b44DKls0a/NXLkyJFvjxrz5cTZzteQdE4zURPlV3vASPksrmErT3gkpERi8XaI57/RwSBnMXiNPkA9D0QHQc4Gh4Qp3+1cxDFMWd9z0iawRSDCwUupIfS8FgWK6fg2XUjKP8Ma5Bvh4KXUEMf7K5DcLHZKVOt5zhmSGww+DfH8cTgi5C04gsr6nlM3gy0CEfZfTA1hyn8ZlO3g5jkw28L9i/guzHPmPqjYulEUVyrd19nxhL89Nf4HT2ris5DeMTlHYEonGJ60MGV1M5hyvRWgTI9HhNwjHJdSg/ZHhPyjF+gDyHRVSF7oPYHaIOF9MFIIDO5n1jl9irB4JchzwqawyNvi8TDlV70KAP7ChPUdX+8Dye9aBqrjYYjz6/R50POIUGyE2+mDlIsGQpYXh2b7ca/SOL7bFwbZ401+8dAXS6mpZiFVeW0nSNkA8y21ZTm+3gdSrjeDluwNkx/Q4ZsQVnl6EYLhdEHcJTfBOWys5MmIUfTgxVn4F9iypHw+EslNMMwzWLlmfoKe79I3SPmfDvkJfhbCKk/LL8I5DHWnwxZksO4MagiVf0TBsiDTIc1zVBbP73eAzW3TSVneWzWTiDECYLVjH1pI7zORyjsqkNLh7y2syotgUOYoy56FGPyLoQn/Cili5Y/ogs7MS9DtO2oDz28GwxSGq+mDPD82IoWkAQnvQ4wC7WhqiOeuRQymZ8OEtyA/oL8LuxA2J4Meo+gaKH8YACkIFlcy6+RK2Q5tnuOzTdoApjz9MtU1UQx03PKGhJqNKa+FSMkEm9O3KmWyL6KSvRG2RyGCvTPcIpDcYPBHJgHKG/KyOM2zseNIWClKsEGiGqKctydsAS8HpbwFlSLwe/qwk5G74Kd0If+AKaAyhdoo4VUQySfGiUoN+BSC4vsvyuJ2gywnfp3tq1UK2Gxylv+tkg8AExuYYS/S+0ya8LewpevxEX2Lcny3H0wTLd69EKDXwpCU/+1QRIT9mWrIU/m9Qd9IeTNiFFe5h2kIHa9EpTTXFyIYRheivCw/4E/0jaq8DAb52zdDqrwMBrmK4AEmDLi9FLiHGsZbYAtBC/lztjGRSPMBEgmiPyxmmoXeL9kZtlwAfse0RaW8ETFaVzySGvJU1yIstphBH/JBThbDpofQnYaoMFiMoNOQlK93huT3UqkGzKMG3VXEPSEJr4ZIfvIgfcj5sPlYbD6NvhH5izIItqcP8vwSIkVIC7k62xuI0QoAMRb7TKLLQseRvSDlMth0IbUlKRcfgqhsr4ftVpD5N33Is92LMBg4li5kUk4xzqbXBsrF+8IWZzBwLF2I56QtYFtD71H0QU8U8QQ15DZBAbgp7NeI8zqBCUP3LEefcfQhytmbwxSBFvJfapjyTkQtAoDBlt9Qs9DxdJRcEN3DpCV5juko0sLw17AXehSz8ptMQ77PRwzuZ8KAuZvAFCcW/2ISosojEOcV4cUMNxbU4w26oLcKkDdCUt7foZCrQhKemJPA3pJh/TIAuJRpWHoiolId1iwGb2Uhz4PNb+iUsiHCNlOpWcgpPUqGCEfRaysir0KEcsd4rVS/owt5qWcRgo5Phs0R5Gmwxii6kBm9IcUhxjFUDWCVFyFqDZ2fyPBRAWZkiOMbKxdyRYDSj0CU06qj6UN8T5TRYk+mGkDHG1Ap1eHNMz5T9UCY8rzbtzBE+DlVM/EMmHIZ9H2PrgUpF24B01w/KeqUEMdXexUjDzAJmdsxF4ttv6cPmWpRRouh39GHJLzLQHJ7oVSV+5gGfVKAvBriOX19mAKuC/CcPBQ2F4P1F1ND5nUthcH6k+lDUj6JaDkg6DU7g3LeGpD8Np9aPonwT6ZZlB+VDTH+TK+t6EMISvdqiQSHhr3euxCDezJ0yiXCgfQaMglSBhH7Bl1Iyhd65oUIz5cIMNdn+KIAPBGijjvAFnB3gOMH/WBy2p4pGyundSmFoOuTTEMcR3aGtD6DLRdk+hKCVgKDNcbSZZq7DUy5DNacQN96yOObbtei9mEa8tZKhVjcGvZDx5x+ySpDJsCUARXcGeb4yVowJbmpIPw1w9dF3EbfiAmPheRnX6Y2SPkQrOQiODHDt51LgQiXsxo2bhBMmY5oEosjkkz3tRrEOJs5nouoXIhwK7XlKKf3RuljvFKq3cLe7lMEIlzHalCHPAS4iknQFyWJcQ6pAZ7ThxTwXLn+xKQsFwY53hUj/8rERqr8PWLkfAVd0OedyhHjdKYa4DllGGwR86kZjmySCP9g5uNajqD71/QZHB9HXDLBegvYch0vRtPtUtSuYW+tVEiMazLE+UR3Mg36tiQWBy7OMG9obnGmm4s6P8M3RRxOF6CctTIkt9VSNvScOhQ2J7mdPujrkkQYsZhhs3Ys11FNEuNFugy6ejHTsryzchlgcROzOr7XGVIuCO6kthjVdFOYFrdTqa7KYPPp9ECGSSUx2HRWkHLpVrC5PVsmwR/KItgkiJ4/z02wP0Neg0XO9oEMk7uUw2Lod/RBc3dD1PIMeo2jD1K+0xH5N41gp2VZPL9eD7Z0G6atJuVdMaR0Fbxcqu3D3izqyrA5Jp/uT2eYDCmFYJVJYZ7bt4rfZPi2iH6TqQHK13IzuCWA1UPyi5/NMLMkBmuMpQtQLtpvORBht7nUIMc/oJAtpjcFEM+kZvl+Z0QlA8zNdC1F1e2JCC3NYJuwN3oXUsE/Mkg+K71OFzS9C6QUgq/pm+MWdCjmjPJU/s00gEx2heQj9htqPeVY5F8ZSQ0gl3YrS/e3lz8VnEcfpN5vAtOC8GQW5fx9ymcwdKlqK0n5sBFphpeCFhU2LOz1ov6eAfn0eTPD7LXLAYuPwzTZpoBnymRwallgcAyTEOXrEMnD4rBljTxHQHLr8E4GrlYOMXieadD8vVqfCB5jytCUT3eDtKJLsy09qHwCXMVqC1EuOwQRWt3QUl1ehl4vZZi/LUxJRlIDPBduUcDTGW4t6kRWgyYUMmQSfRB/hzgHsXiGjnUd7zDIv/IqfdgwSCkiPB7kOXvnYhYw6zFNYTF0En1QwlNgUcSwGc1yTLZlB5cPFptNomsdji/DSsvbJOy1XgX9tQzdn2YatPRA2JK8lGHaEJhSJLytqGNLA4trWQ2g5/c7Ic4W46Cl1DqO41aH5Bc/m2X/ciDGwxkmbwFbgF2Y6dimiHAyU4Y6fr4OTKn+t0o5BLvTZ1k4ogkQ46902iqUS/aDRVO8UKqNw14t6rKw2ZBcOj0YRPJsRCV5Kshx3Nq5VfBUM00sZptp9AF0/HpTxJIhwuof0bHWcc4OsMjfPpjlnJJUcD+ToC8HFxJnOx6mfIJuT2ZIeSViFLLVrCzv9SvLNlk8f9i9GQz6jaNvHa/AoDleLtVGdCW6hElxuJ5JiOddiEvyWFDK1/vkFuOZFoUIV4fR8/MdYWIJkAo6P8SUtSkXHYgYRV5LF6K8pyQdcB/TAMf/9YIpoGO2k5rBYGtVDfGcPBS2mG1mZ3m/f1k2yfbdZrDlg8WJKVvntpCmiPFK2M5Fbcw05OWeBV1UHAz+wmqI4+uISvJshv/EkNyebaZJhQh6jaWGUPnDL7vCWCMCiLEGAx6kZ63jj/vDotBzs4wqSQUPBKV8FlYK6Lwo06nNALmGjqHKmxGjmG1/yPLhamXZPNsn/WGaAAavUluD532C5ozxatjwojZrnu/ziXBamOfnA2DK8UpQlX+FRc4Rns9wR+uAwfCl1BA6Jq8c2wWCWkGfX46hJ0lVfrkLDIoUHMU0bPZKkDLEeCTI8XZUUGC3bGc0gWDgQmqIcvZASEHbz8vy0epl2SmL4+swkos0kpwEwxxbonLhBpDmiPB6qYaFpHypqMtYDZmZ1/70GqBcMAJROUaGaMqTEeckEV7McBcqZZpcDCyOofch9CmXfHn78Vv2795rwyNu/8IxJane8cVBsCjUYNswcukImBJIhMdDlPw94iJ6ZvtlU1xNZdiFMChoh/lZRq9Rlv2yeN6OGNlFUCs1gMkFwGVMW0GVf4SgWd4s1TZhL/Yo6K9hM/Kx2HIafQAd/4RKOT6hb+Q59yeI8rJ4KcPdrQQGv0jpQqhOSV22aMHCJY5UR2qqXPSXCiyKGjyPGsQrEJVB8GLY/D1gi+id7TflE6y/gMGen3VGwRY7Lcjy8VrlAM6kBinT0xBlM4KOw69+69vpU0Y9+us1BVbyEPQdTdd8jh+tDtMcYjGyRIIdw14o6u8lMOj/Pl1IyscspDhB5VtqI8cP+8Hk9wpd0L0tBQaHzmXiA0h6ZUMlmTrq69vBCAoW9P0fXYjn27BSnEGv/9GFTOwOKWLlxZl+X74Ij1Az7AspbOfFWcYOLMtVmWYOgslk0fG4z2e+csmpPzv8d7d/PvOmdWAkB1jsr6rNpvRHIkbTvB22c1E7hz3fvaB/hE3NRyzuYxLiOWML2DL0nxyS8j5EyMvgtQz3IS7T1MJgsdVL1FRDgjVNqf87QSAoXCA3MAmbsQ1sGQZ+GvYiIuQvGLAk01mli3HY0rAqr0YJdllCDRu3blneyPQ2DLIaDBk5+8KBqB/t9dKskyGSgxhcT9dsno/ASrMYvBO0eJeidg97rpgYV4ZNyQcVnE2vAUx4YhkMhs0OUPrTERfwRob/lImcURwsev5mIlU1i9aSyXPH9YQxKGGEE8LoeQEqxVkMm0LfiDwDppB1l2b6Y9kM1hhDx8CUH/SHQWG7LsvyzUawpejyQwby1GwWu81+bi1IHRNbRMcuvAJ5wKDvGLrmUs7aEAbN87+w3YraK+zZoq4Jm5yTxa4/0IekfKobpLAIRywNmrgWTG5i3gxKeX+5ZpUAkWDQuTPoG3ivNSSV31y2XQ8gEpTRYof59CEpX+kKKSzCgQk1YOkASCEbL8t0eckEHe5lykDPWTsiQtER9nAa5Dlp81IY7JUw49yeyGqx+ZxrIvTcZqftd9huaHdIbLHt3Ethc0CE/RZRm+w3sGgaid4P272ofUsU4bqw73ISiUbThdBxa5jCYlxMZcCjiJBfNDLDA4jK9EMZYCxM7yNG1vGetVpdNPWZczfvLkBkUE5Bj5eYhqjq/ogKi/EbJmyofAqFCoZVM11XMoOzmGqA0v0CEUqwL32GGduUwuJOhjtejKwGK3/ysBEM/colzvnk6U1gLYYvOxJRDrC4gr6ZPJ9FEwu6jApasmdRP6MLeaZbQdeHTcwJEa6lZrjVoAQP0jVidR+Y/NDlfxkeRCQlml8KwAjQYRyVqn7KGw/ddPFpe68jqDWC0sa4MIwJ77CQgsTgXyGeIyDF7JBkur1cFvt6VQY6/hMGZdifLsPc4WUQ9PqGPkQ5a3VIpgsn9EUFw6Yk99/3wEtfccqGsBHO+a4f8o1eom8e5cx1Ic1j0Gts2N5FHRn2XPdCLG5iEjI+L4NtFlJDyGRIYQZ9RwV9jAINen2Y4RHYMi2QcsBa7DKbSi69agAM6ooISm2xw0z6EFW/PUxBBqu8Q9fAc2yvonbPonwMtkQWu8xmsOOdKGWEnzPNsGg3RMXFOJfhCX8DQbhg4JzjEVtsPv3bCgQd7uSNiA16jvtTPoL1Z9E3i3oeA0EzrTqOPmDpvsUAp4S90KMIsbgl7Ju8IHg3g/JhSEER9phH30B5KKSIVcZkeAKmTAujcggqp88lyWUHwURRZK0RlF4snqcLoeODMQq22KpKbZDwBAiKNNgvzTSmTBF2mkkfkvK/HSDlOIwJQ5V+RAkM+o+mC0n5Uq9MwHmjKxCLzad911miCjbl8xEkxu++WykXGByhXpsk5a1Gmmutr8J+WtRvwl7qWdBtYV8XcGgGculesMXE+CNT1vd8vysKNFjjswzPQEpVKYGIwfpPJVR6XgZj0LQWR1WpIfTcF1KM4HQmrO/4v1VhCjrEZ5o+AFISsdh2Gh0ba8qHu0JQjqNZDWLCkxAXJRZ/ZcpAz2nbIEJW++41qKBmYgeIYG2+1g3GYtMfdspHLC5lqk2RcvSqMGiqwd8GLfs5bDHnhzi+0qsQgzvDvswN6PIlNchzdHeYIgz6vhXguB9MIet8SR/0QoQyLepanDHo9Kcf6TzpuAEMmtjgkwzKr3pAihD0GElfTz2PRIyCfslM6WmIymEF+86kY2PneV9nMSilxW+y3SyQgiLstpQaoHSnIELmnjNGwNaZUAEEO/IxWBGDDy7MB8bEDzFtBuUPw2HRzBabTApKjizqMvqQV4u6J+yL/ATHMgmi59WIpACLEXRaL+HdEaQAiyHjM7zSqaATMixeuSgTobLHGFKVpOfakGYSHJGByptgpZBt6Vnf8WGIFGPxtyx0fBFWSiAW9g+eysZO/T8hglIKcAWTMM/vN4ApJsJ64+nZWJVXwCCrYOOZQ2DqfNct6ti9/5P8C2KggmcezAkGK4+ibwZ/EgyabNjUoPS4oq4Je713IYJ7wz4voseLTINU9XhE+Qm6P0/Huo5fbwiLQjafFOT4RjeYQs5gErRkDUghxmK9O6tUZa3jCJhmAszr9BnSMxAVADxPrec5bQgMirqHmkHpj0SH4myMde4mlY0dp50AEZSlw31Mw5jyXEghEdb/mMrG6nkzchT8ZFJfCCy2mJI888yTzy7gsytBgBh3PJUXDLaczfJ7XgqDZtt5dgDpTi3qlrC3VioE5sGwz/KDxd6pagg9v/8JbAEH0bGucsnBiFHMNtMzvN27EMFvMyxdryBUfjuRqbK+8p0OsM0k2IGqIfT8YW/Y3AxGKBu742BRcIR36DPQcdy6iKUYseh8wkSmDEz58dYwKKugzxt0GZSzVofkJxG2+4zKxpryxiin7/rUm8ypk+fx29/1g6DOE7nB4DB6LZnjfyto9ghHVKkB/syC7KNhb/cpwqDXK0xDxhYgBlcxDaLn1J0gko+g/3fUeuRlsCg0wr4LqEEfrFrQeRmWDS1EsN7L9Kky9P5+kHrSuEwALmYaRMfvfwKRfAT9P6fWUeVVsCjYYMDkbHT8Ym8AIpKLiADA3s8tYcqGqvT/7ocYpbVYfxE1A5UPASK5CASVX/zAlI0900srIrlsMmNDGFhsPm3qkJUP/XFKNxgAqOCZu/KDwdlMtVQp3+sH02wVnE0fwssRF9JhLDXks9Vgilh7LF3INIjkBYOe79MF0XPmfjAmD4MOz1BZq8oHDKSYGCdSQzy/GgJbAOQqpkHVHWHyE8Fb9I7BXsdfONjWCRZrrTEiJTDo9TKTIHrOOQAwkoNF5RF61mrKhzuiYDEVXEBlds+Ftw2CAGKtMSIigIiIMdYAgNnlhUV0jg29ctYRMQxKKsYKfknHzMrrRATWGiO1gIgx1gDAVi+k9GyonguPRyTItde0vWHrjO8APMzTIQDE4sPfFyCCvzPREjlOG4YITW4jPMyEjT1fQAfJz6LfMgaq5zBUJC+pYHdVbUS6Y1GxkhMstpxBH0TPZWdbRFEWE6P7k3Ss1ZTPdIKgUOmAK5gwaOHuiPMTdH+ZLoiXII4kN/QaT8+MnuTE52++8NdH77vNemsNWKV3t46ChqYSWyPFwGKLyXRBVPrzO8JaySAxujzAlLVa5Qu9YfIzxsaxGPz0e/oc6JWLH9x3tc5oKNaKoK7tPeS8r6jqlfWdY/roAIhB8WKMjWIBsPMC5un5xo49DOqLsVZQa1fa80mlejZMPUdtDivI17x0NSp1Jna0OCD5Lq6xGDptkwIgqNxBVx7P+fsiQlObqGJwSJUaoFywDzrEkclBbBRb/JPBno/2gqlERrKZKEanh5gy0PO7jWCi2EouMBixkD6I6vnMMAMbm0ZiY8FGb9KxVhM+2wsG+YuJKhE2mEAfwoSXw1QiI9nE2IrFJgk1RPndBhBUIit5wOIDahaqMtDNGz/q5Qeu++NpB+22zfr9OqA2jk0hsNh7Pn0QVfnS1hGi2DQSGxts+BxT1mrCZ/vDIncrAFDZ6LKFVOaqpHLW4+f8dOv1+nXvIKiNe6228c5HXTuGJFVZ3ydMRx0dQQTFW0GtXX2nK6rMV5UfXHTIDuv3790BdW2PtbY6+KpvqKSyvks479puEEHevx1tIXUqMHiHJ8MCMc75oFsREHR9mr40TA6HRfMaGxkAPU+bQs9Qz28OjCEwkTUhJooEgt7nLKOGUPnsLhUAJrISYiMDwUb30jHYc8IfNjMArLWSDYLjq6pBpOfMq7eEwEa2NjJAn99OpGetd7ynNwxytxFqd36DjsHKhb/rAABRFEmA2EgAYOu3qAxWTr78J50BSGQlj0uYq6p6751zysClE0Y+dM05R23XBwIrRcDgiIQaRDp+f912AExkayMjWPnM8VTWqvLffWBQYJe1t9v/N/+ZTlXm7r1SueTbd5556J5brrrq5lv/++L7M5SkejZWp/zqD31hUUaB7TNo2E9/c9voKjUneiWZTnzv5YfvuPlfV151873PjVlE0isbakr36m4GgrwFA78/DnEDiyP4PowY9PnyDyjWoN971HKo8lRYNHe08Yk3vq+qDFf++PwF+w+KkLnH9qdc936iynDH+S9cecRgZLabnPbviVRm9Zz8+Pl7rGaQr8Exc+jDmHpOf/iMwQa1gs7bX/QBvSNJVVb/2MUYFNlp02OufH42PTMq3dtXHjesMzKbtXY769GZVGZVznnz2qM27YA8BWvMzyVQ1XuXpklSTVl/xof/OaMPBFIADA6bRx9G5zjz0V+ub1G/su2f3nN0rFXyks5ikLcI/vLep9OrpCbKIr2rJsqMvpp6ZV1VpefEPw+GsSijYPeXPxg3eSlJl+RG+qTqmTFJPeurKjnu5N6IBPkLLv52ZVTqQcznehRig4u+7lMQLNYaTV8GTXkWDJpWYEdc9ezn0xJSPbN6Ty6c8umTf98d0qDjqTe89c3slHTKrI7k0qkf3/+X1SF1BKv8+pFPZ6TUlJmdI/287z5+8HerQbJJjD2m03sNoU+UydRPH7/morMuvvGpL+d4OkdSlZz2U1iDvA1Wu/aDL6cnpDpm9komM7/6+MUHdoatY7DW9W+PmzTPUx0z+0TJ6vQv3r2hOyQLgIvoighV71xarSrJdOIVq0GkAFjsNpneB1ETZTrtsyeuuejsi298/PM5ns6RVKecfijEIPcIh1epZFL1LN47l6ZJUq0mSZo6r6yv3pHKr09bwyAyKKMgHk0lmSROWaw6l6ZJUq1WkyR1nvXVe3p+fXI/GIsiDfp88pAIhk2fVIMT+VxksNeSQxAVBIs1RzMtTlP+CSLNY7HNDHqSzimza6okle8hqiPYl0qS3jFHTR3JhKfD1IlwYkolnWeO6lIllUsOhs0GiTD4VarzIaRLlaHqlNRUmTw4ACLIPcapSiV96pmjOkeSVV6NuE6EU1klqalnjuqdI5WLfgKTSdD1TaZahobqXark97+IYApAhLWfp6Y+hPSpMtQ7JTVV+kfWgjHIXdDpWS5z3rNpXZoomf7w7H4xYCzKGeHk1KfOK5tSfeKp1S9P7gIYg2Ithn5/nUG3LYcKAMQ7DOuKnRdcggiFW6z3CZOi1PkLYQTNG+FgVe+9MmdV9Y6fNgDOofdelTmrqq/ybEidGOfQO8/81Tsu3C8XQIA/zKZLNYRU77WOeiXpE89lb+4HEUH+FVzCxKsyd1Xvl/EGRHUM/sxl3qsyd/WOi38KmwkG637JqpanVr16/qc7TAEQwe9n0CcaQtJ7raNeldTEcem7P4MRFBhht2VUNql3aZKS1EnPnNkPAghKKgYvMWVTqk+rnnRTHv1ZDIigcIs9ZjzfH4I4jqI4FnQ4bemVMFIcLIZ8SleUPw9W0MQxDqMqa1VVfaCqKusq3w24iMpgrQ2orfJkmAZnU5XUuj5YVZUkld8PhckFAgy760f61IeEq0+VC5/9eQxBoRVczZRFV3kN4hoR/I0JC1Yu3gsmGyw2+pipL1Wt4/OrQAqACLa4Yw596oPCXaJc+NyRBoJCLX7NZVq/RKreuTRVkjrzjZtP3wACEZTXYrvpTDW4DKrepYknya/u/9UGAghKKRjy9vcXDDSo22W/N2f/AiW12OB9ahFK/gEiaOYI+1fpVVWZq9Z6PgLb4Hf0GshwrV/lvrANzlT1qsxbVT0ndIDkA1hUdrlrHqm1GVRVqZx17R4xjEVRf2eqRSe8AJUaGPyJy7Rgz3kb5QKD1e9UqpaMjs9VUGyEePitC6hUVc2gteTMG/bqAmNRqCC6kylDtZSsq1zyyRNXHLV1TwDWCsoc41R6ZUYtnHXdN4+e/7P1DBBZQUktOpw+bsYzfzx+xCG/ufXTH+5cH1bKAYvVX6PT3NTzn4CgqS2GTqInyeqC6RO+Gfvx2PffGvn2qDEffzFh8rylyrrnwdQR7EXPxn5ZMm/27Nk/LK1Wq1XPup6TNoCpE+HgxVTqktkTJkz8asyYMWM/HDly5Dujx4z9duL0RUpS+RQscrcWHTf81Rgq66r6WtZf8tSRAyuQWFBwjPOoymKVyeGI60Q4lVUWrJwmglytdNj/M5aOjjfBFAIboeP6Z46isq6qr1WSVC5+7phBFZhIUNiF076dMH7KnNmzf0yqVcdS6syxL/77n6fsvNHqXQEgji1KHuGnn3z88RcTJ9SOnz57ztKqZ+FLvn3lzgsOGLpWJwCmYlBiK+i11/Vvff7N1x899bsNIkQorUWfZ5loTimrR8EImj3aeretNh08oE/vXj26de3SpUvnTp06de7SpWu37r16r9Rv0JBhO+7WF4077zd8562HbrrO2muu3Gel3r171vauXalPn9UHbrz5drtvZlBf0GO7Ldbt37tXz27dunXt0qVLl86dOnXq1KVLl27devTq3XfQRtvusjYkP0gkkI7rnfLQ1AVLlYHV+V/cduAqMWCsoHCLPacu/GHOD5O+GT36nddfeeqJ+++7/fob777vvnvvf/Kltz76dNL3c2ZX3+sP02DXOT/+MGfOjAmfffT6Cw/fd9+/b7/+hjvuu+++e5949o33xn4zbc4Pc5fcAJMPjKDrQe85baC+VlW1GOWSQ2ALAaxAOq170gNTFyz1DEwWfHnXwf1iQCJBCeNu3bp169GzZ8+evXv37t2nT5++aw1ae51NNh86dLNtdx4+fPgu+44YMWK/g4466qijDxmxx/Cthw5aqUeXDhHqSmQFzWg7d+nStVv97j179uq9Up8+A9ZeZ7OhW++8874jDjz6yFNP/9V5Z19y+d/++sdzf33CoXtstlqvbh0Mam1kBeU2FkCl+0q9OgMwFiW26HUvU5+HJpyyByz+LytGAMCuveeZV9/z+IvvvPfaU7ec9bM1UCsG5TSrrdI9RpFx91VXhaBh3H/VHh1QoOnUe/WOyF0EEZ6jJ+mqibKuqqtWkyR1Pic6vtcFUgxgUCtr73n61fc++tLb77/+1G1nHzgQtWIELV2MEREsX40xgmY0Bg0Nyi3o8FdPn4Pjm0Nh0Qolax3JGCTFh0nWOhJeVK2IILuIoOSSP/KV/FGwlQ6HTaNSUyXd/Fnz5i9Z5tk4TVKvOajnSYiLAiAiyCwigvJKU6LppRnR5CKCJhSDMz01i3retTIM/m8sYqMoimutNYJyiwiKFZEgEUGxIgVY9Lp1MZXec8KtZ/5st+13+cne+/3s4GN/9aer73pq9HySVK+ZmPDBCFJcrRgTRVEcx3EUWSv4f2MR/GwafZgq/ySwaDsUwU5jmHh6TvnlOhYZbbc1Nt3lxCvfXUolNYPnnC1hy/H/12Kx/ttMQ5SLj4I1aDMUi+iPi+jUKx9fCyJxHNmobhxHgrrSdc2jX1pGeg1iwkP/vw+w6H03A5WLDkIsaDOUGGs8T+/puOgsiDGCcBExxgpqN7tvEVPNcBn+/18sHqE2IG9GhLZDMdj9c3ql49QDIYLcRQDBLu+rC0p5f0fI//dBsGGV9ZUzVkEbogC/nktPeo7fCRYFS4RVHqSGOD7XrQ0AwP+oDf6ONkRBxxupjvSctStiFB9J12eoQe/0bhs4i77BYEibgUXfp+g9qayegBhltBgwmRryRq+2AMEm9TxHdWs7sFj7fSbKmocQSSlgcSzTkKe7tg30/oJK0vF2i7ZCwVrv07HugvVhUE6DNb+gb5DytqgtAIjvpSOZ8my0HXZ/g561yqcgKKkIrmLSIOH5ELQBCs5kQjLhATBtBAa30rHhMShvhBODDoJtC7DYlSnJlNvCtg1YjFhEbbQ+pET7UbWO5+xhbQMGm86lp6obCtMmIBYv0LFxn1LtupC+TspnukHaBlb7iI6eP2zYRmCxzTT6RknvUg2f3yDhHxGjLVDQ9Qmm9JywdhtBjNPptRFXLdU+KbXGc9pWsG0EuJUJHcet0WbwDyYM3LpEMY5mwlrHRxFJmwAsLmGVjmNWaxsQi9tClL8ukcFf6ynn7wGLtsEYv6rzQb+2AUS4Ieyl8gj6vk1X73FYtBkcSa+O7/RtI6jgshBy4YaQkhjsRMe6CzaAtBVE2Gsx1fHtldsIYpxM1UbKOxGXBJWH6qU8F22HFjt8T+/4Tt82Aottp9GHLPgpolII9qKSpOPzXSFtCFtMrnm3rUAM3qRrRMevNkBUAsHKX9fxHL8BDNoQNviKzvG9VdoIEOPPDHZ8fwCsFGWl8jQ9Sc8F+8Ki7dBgrbE1o/u3FQgGTKcG0PGjDWFsIVJBlwfoSHomJyFGm0Lf92rGrdFWAIOrwqic+lNIZPKzBoOeZ0rSk7+BRdtCr7fpPMev3WYArDyNGkLPxf9aC8ZKPsYAJ3xOT1I1OQOCNoYeb9VMXbcNAUfSaQh9yu/+NgC1Eg5AYA94hepIen5/GAzaGrq9xtRzzgZtCfYWJhpC78iZ9+/dGdnNWud8VKU60nl+tTUitDl0f5PLqrpw4zYEg5VfZjWIdErlvGfPH7H+gFV69+jerWfvfmtsdvSVox1Jp9RU+fAqsGhrFFRuWOLVLd2sDQEGg95lVYOoqqy76NtRb7728tujvlvGuqqkSzn5N4Cg7VHQcccLnpjOHWHbDmCw1lP0GlSr3jvHxuq8V5JUx6UPbgQRtEUKgI6b/2UwTBsCDHpcQ1XNUFe9d84575W1qiQ/PLAzIkHbpEQx2h6t4OAp9Oo1U7h6T+W3J/SEtWjDFGvaGmAEfa/9kfSJz0tdotTk45O7AkbQtiltDhARbHb7ZCqTJHWaQV1SVdKNf3CfCICgPaYRrHv2kzOYc/LxXScPBMSgvaaJgM7DjvrbE6N+CFvwxQv/+uUeqwsQG/z/OlZQOCBqJgAA8L8AnQEqXAPpAD51NphJJKKioSOSKqiQDolnbvKMN9ZLv6q/xrGWeiuPsM9km/zP9hs0vn+WE3+lRvt+QPQ16C/MA/VPpAf2j0AftL6w/oj9AD+S/7HrC/796g/8d/0Hpu/uH8Dn7mfub/9PkE/lH9///vsAf/T1AP/N6gHqH+Zf1H+s/kB+wHz/8Afw/+C/bT+0dqX7Q9t/3U5/shDwDz8/1PeXwCMU+uD0LzAvZL7L392opkAfzDze/5ng7fYP9t7AP8g/tv/b/03uy/3P/z8n36L/svYF/mf9u9N71yftp//P+l8EH61f978/yXUZl39ZWicqphyNoErPGnvlalIl6e+VqUiXp75WpSJenvlalIl6e+VYI1gNIq6WQNnwzGguKL5mBNvTJ75WpSJenvlalIl6e+VqUiXp75WpSJYP3UH2xl67Vn1YenWFg+JE/dyjpUwsnvlalIl6e+VqUiXp75WpSJenvlaVHZmHO0oXmhCigp57ToApbRXHKRL098rUpEvT3ytSkS9PfK1KRL098qx/Tdu66PTy8N483bE7ZkKnKCr4snvlalIl6e+VqUiXp75WpSJenu/+kRGugMbVrJ1ZgZqiOUFXxZPfK1KRL098rTRJ+3KGCvRrSHqodvnwTEhM4PcN/l8jPBP0ZGGmo3F7NxBSyJmgbAFk4GHRiuGbu+91z5lGDG+RzFFVOeTbrgWjm31kViOUFXxZPfK1KRL098rUo0BsNZduOAjU/FikyDDGEOknWnNi5S585A+8e0sRfgCHIAMRUtVndXOd9ahjwtAqjOF0iN1yXT5Y6OSX7DSY8+SCC+SVS4W5adQOS/Q7lB9ald7cj7Xi7TC9V7eSieU9B4twJ6zdRFF8dqiPYNaFWo9b47KrCk5NSJ6iPdbvZID85MrRpajom1BJ7tZSRM1RbjYdQx4g+y6i80HmIGqd46HR9PbbSwGYqBtEbBKTKjJ9hELHTi5QGF/tvclskDXsWSdzEgjphe2L5bmHLHooQ+QUSyl+5Uyd5DlYm34SEHVlTL29DRL5ai2JD3I0lWLAT/V97+qmRO0/e+e36BUQHh3NCFjwZbfMsCMLe549z21DaezApq7VCHBrmoIUAtpgO//3vxKTijBxFrU8QvlCM9gH8he2bnWYu0vRPArAvPHOinHDuG44j6l6Rn+zbybQtIeTtauEoHWiFu0hTzOp52/Tk1MAgx3ww5snerA+hwh0j1P1ALYlT8JmHDZhTg/FW5XeVGYZEK1Mz95wl0BHk7SpGoxzO6mSBi3SgheIWXNGcdeoOk51B03PjoV3YTnTouFLHGRZNCsH3/WEHgA/EyuBwtjCy1mBhPyW3+XC6egxKYVQ7e+1B64KS0yZwvU4aXMjl6ZBxE/vo/yzA3a0bN9gDJ8Slb6OUzDOoIaIJhTtQCdigPtOBSiCKgaTApwtFv8OcPCTBU4Zei49i4Kk42Hl21TG6dG2mQH6kI+nDTI3dg2LoTLRiduIqTFP2lYBDAoSi104raNw8Y6Y4fMI0KPEjBa4sWdooQI0BzaXS6uFG1WPmGTQEKjt5e9EtIQv168MOZhZ0Uu1dbz3CNtii8vYI6coqD/44fpcyMbOCZebBYnGBMY4X5IP80ZNcWkRWABm3qVntVopnXu4lAOXRdx3FVYqVfy3GOSWEuxIFAxoIiqMHTq3iAxX06AvFNwi1jE3rMKLDqioAxWx5m8DEVGQVReQWg5brU8B0jvViYRup8rIrUeNqub6br4m6HEKZo+/Pt9cQpFtgXs+9HN6LihG0L//NIdvjBuk3ZGFmM1JBi4ZHh8ti9ye0CAvm9DYOT2gPFTGNOBsVeuZuo/JhawplPVZTE3pNJXzhDHWTWb7eNqx8nJ+DV8Bbm3cTdqfRYemYs1skPwoYCfrqbhsk22Muw4ic4pxJWL8E9K/hmmN007io9uOwTjlIl63QzI96phZPekzoajcEWm0NWfPKxKNM7FWqyjV74sn2eYMtkC7KCr4lUkYgLcX2X3CYWT3ytSkS9PfKwNMPYG8+RkMAeDbXZg9viye+VqUiXp7zgAA/tQT90csu/dGtPJU3C+Gn9BCvFftItaRn7tr5XZMMX3cKETgLgfZ/ouvilCsMs4e9eMUD5qnsADJccEhCJPCb6Ls1aaJ8mZaRD7s4Ya5vEXqPlkQxQ1qbBEqqBFDTUskzme0JTIzpizbeFmwxZ8gODT/S9qWWf8YFB1bm6wcnmEERg6b60Rj78D9Arv83FplWtxq6gAAAACLrCNalBdW8NZYsfIYVufcMFP5xIa4TyQZGmn/oIw/28cIiJ3OL7cSjcTu5ArZ1ZqCAFjMQAM277RGiN5K1nCkRhFVXa5u2Z44UHNeXKNmrdBBDhSwh2jyKkz0BJRn5qS1W9rpnAQHWoi+Rl0Zfvbg+whrovEgCsmEgG+PBeyUT5maszBR+TtkAAAAAAEOIWPGxWyTjRTJ387vP3xRLzYX8IUCnG/F5syk7BqvInurR5d8WeQDMDDY+Ex4tE+nt5EqsinvNWAn9NtHM+E8tHBwKQKVu6F3RQPU/r66oFLys8rBC7Vzop2uYTxgm4lw5Id6fBKnOdjyAAAAAB1XfiI33RNVT18AtNy0pKogJ+7x88wvnFjeeLAO5F1IWysNeKwdv5ZqB3iePXQO+TUqyKAcLhoCz/J0QAUIwqRADLLC917i7VoRZ1IbD7KmVsxf8b5WcVDdq9sjSJkSb7GwcvcZerVlryQV1WpIn685Phpd+korKV/tAmwAAAAAR0quPVDmLyo2/HOXZcAzFDH6SMU0qgXxT+dEzoHpn9W57nXJsf/972iBfKOz9fqf02HepsYTdaCoetlh6Kxf8tg9fB5nkEkjDnlJVmDPaStMMn28Z6PZhEyFmaIwSnPXmom405u3XJ6KaLwQzO8AAAAAIz4/Bqxsi0agA797tS3AZgZBW4Y2+gi14txiNEsZnejkImCHZf8iIIL+rb+nDBSbfn9m7MDDIipT85+Z4Tlws7RMAM7UJ4ofKk1kuxXTzOjPIq67lwAABS/ylmUde1pm0vcOlrrD+Ft6AGV8sPorofvzdTZ/XXvyaUnR/fRxgqKOKkmf916uF8IMrYuitzm6Fp7HRhzZULOAp2DHxK3ay2HEhcaRqxCRIXCAmNDZH+4CLedcMuByALhT35REwikaDTYrlxiKSBTC4eJMsjbq4RiCIlrkHdgBZTFT/vgG0kfzlKxf7V3isL+PV29mk0i7d+CwLGUqCTimlLF2WYhNywqCvm4Z+8C6WEh8qpTc6Lg+q19GAFwEmD7YJ+ZihBw0G3/+k8xchi8DvDkibxImtxnw6l3KfmSDztFFmphV03IqfUczy/PY/i6cKcyGrzcTZHFkIsjov1cBRuWQNOX4fPkjI5rirkLDy4gs23oDd+RhJQwIergkGnVTsNUaFTbTn6cdmMZnsTfcoJTKu98aUgZtGUTsv/B/1ASsKBwHm/ifWwweDeJKcO9x+y8leNAooSlX0GOSRsnZfVcVqCRqHywZ9/qpglDUmmNnev0RlHO3HNyJm6p7zxcmqEOQMbYND796GjarGeYD5qm+Dg/MSxvQ1ZXzVf1lAAABOUYu707Ic+vSSU9h3G8jRBzTNa0q/nVd9lDWZjHRs2c0O2TKQlNFoJQ5dBW7VQ2S7ZZDNyTiZshYcldccJ2jm9sVayWBn/Ie9YE4j5uXuS9lUGFjE6TUJqcRexBu+P9hXF7EdiAEmPl2lRgicXfo7XObBW805wG0cg6EFLKciwBnS1T0fdRPhKBFc85yhxHf+et2oDycbpDjqZxg6Og4w1eZ6467VDNHuaHUHzIADLoFI/FO5O+TRJq+CSvKg8c5eUUqFBFbJj0+137FHP3n1fTSqhvRhGU7aaCk0padolOT3gYNKzLm17/UoPtV493kZdFzbi+YuQJ1bwQa5hfZaq9gZAktNqbnhgHQA1ZJb2gWwi2gCT2GgAQg9NqvnrbhSd5oq8R6GVP5BHp5f2w/AN6K2Utk3Eloq8vyHFbS7NYFAaAtiPzbM+ICf25S7QGbhpjd8VGRHDrkiDWeENbkrm8TzkYIUBZQIv9Vxe7/RQfyCrv6tU+5uFPXeXvGS4Vq84VEKLmIdqX1plO37m+y3Hx20GkuqWG2qwDaGYwZNXYhW5EeEXwFCBh/hch/5hCZ2l8n/w+fgMJyUknO5nQwMQHFZApSwGL553Cw+F5i3rFaCygvMdJoopUrfQThgTeWYHTLo6TqulHgLW7qQ39qmY3ylQfHhmX5jKCbetT5KagH5fWp0it937nyOpodhQyImyyPSLSsOY+r9lQukGldf8J7uXkNIiB810FsXvOHtzXTswB9wfy/EXHlmdHCV7gjqSLvhzkaVyTg9tyjaYvWVOOM137TCXaRoVOF2KQcPa2Xo1HRicNmzKQ4GjKRQABT7EWP+eT+FJcHzQeqS4IMYQ4Y2n+vFpo6KmOT74ABd+h1E8/vUhO3T9qsiWwvfCY+vVx1drCk44p2ymRfY4cQkFH1ZL60NYU7py5Qexj2CluHUUnfBt/EbP11ZuMk4GHZ/5rMKru0C/t/CgkH0iyNnOcFyPX5Uqa8gC9ecH/k/yHg3z0/nP0eZaURwBSCgyEAmUF1JsY2QK6GczZzQVFu1D+ar8TMurgyBr+G6vaEg/vcOHvCTrfIjUQui2NOi1qZXVcSvtnQxIEOMIc6YoD2TzvgZreDCDotaG6F/KvtndvD+P6XPqTjxQ91mgVECslv6s3gwdoXqpkoQRs0Vhvs/6h9k4AH8OJQHG4qWi1FCGrEOGdcW2UzYTvSGGwe+YVmsManXtjj61CzPzvL39qIxhyCkTwYdl1akAU81RpErXYRpZkSrosui3DZvrzBFPrNKp2NEfU3FYDAAy4b5+kgkyzKtUaCtNvsU10Y4oMKXjX1n9sLUaWm50H/Lb6rD4MKMtN5UHMC5B+GPEdr/uT7Cug2glSOX4zuSAIF6NnTiKeqmvtENLgGW5rgyVpLbiu6Xg8CFOo2lxo5FRwh022RRp4p24kBkPN4UMmtxDctcgRJFRU8fuJENOl22okfjogD3NCuIJKVunZxo5BJNQQLR1bjq6IEzq7hq0hTfDqIHGAj7QVpBVxjsvC+FD9KzSbdjP9j39Xl5BfTunG162wSkb7vOKq2/Vkbz0WdYeJTiwJMIPgUtGD92ZsqQbB09nqlGeV4AhvYoC7eKplfu6cE64c+gDz4AMqDqxa+B8PgtZ8fnmWq8LOESp1ABYerZok6sP4ASGarTpqRwoMc2F1Hph2tfAmHnGAi8zTPq1g/XfqYUZglZ4CbJtQWo/ugRS2fe2v0Fw9fPVJUIKS41pcyNsJkcIX94KXf6BzKTb3CX8jGgPrdN1J+Jti3uumszn1j/90iyftgFdySlNsPUsFbxeGA3jTlrWQFM9kbAPa032F8w31ifrsSuFRowiFMsbCyJ9BJKhp+PJJ1vAaRnfqD3EX3KNMo4AAV6KYJQFSYGfZpc/cXuSaLjIB29IhjmknJ0ymm4kn/Lh5xMhfS8ZeRh7osNy7WOmCxSoOmEXbNDt1gdT1LjtG93PwaBBiZSUDwHnza6qkxSCMnWLWD9XSszYi0AX2zpfALOWIOsgSnOwd3Q8priJNO8BjfHJSBrbParIJvuDZh8qCMz31gX8FrwYX345I8luded4huTnR7wXwX4Pie/VaONYD9FXR+MIKQDD6KU0Idt0W52sQUtxK83LWVnjHz+eYx4eu/eEcrCSaFRNSj7IAHbcq5RdJCNNarzh0DI3QFBaUm/a4qdG11fdIKkVAiDuPs6XHiXs6SInB5rbXE/y+zCoTGuJmgfnD9aRq7d8E4b2KLsm8kQfHpdoABXmD0XfgdTJZk100KSu18OAqS7RywrakUd9w93jbxckFkRLry+GbN19BVimVnUmv1La9eqX2LfOgCrXIMlP3OdxMOdMKrMn1RTYgqyrdVShzC0GOR5r789N6HvvJo3eU9y2gODDR3qAHk5Kua4ZlUoqV8JaZAy7uE6P32Y/EawoBTpFE2h/bQzb3xOjcGBRzR/tb/iOymRFXRufknXxfSW19dkGkPqxGbEi80e+FpBNrksqGleHcSa37TmpqP6OoNGUChyjXIOhBRWZxFugY+IyKuVakvWgbj2uMf/oJRQOTACxqyMs0m+VuXyDY3Fn6z5+r8c1hSAQ3GBIsF0A5vEklF82PtnZR/+/VuUcyApe7NiTKfI8AyAC53kdOUyDRYgqCKJ26AOWImaNE4B4/Lo1nVDPGOR26iCp6BJK6ZPMyv7Pij19retQPU/uNWgvvjT6zriPG4IfEeYKMP+T/x8Y1AfUgAOQs1opn04HaINJVRjarIJ/6WuN71dLuP2gDoFqI4rqRO0mvMK6bB7VKf2WQ0HLquFZ0Yzz5skGd31ogsicn2eUNwMtYah5N3m4SdaBGVbQjfrQt8zDK8GuV6d8FVFGNtsZCC7ilXPeowYlTJaYzrvL4Luq71fyn4qIqgDaWREFX9BBi/3Y868aVzB4ob+mnu2uDYG7lYj86L+AdeS5EwYTlzzGiUBbHBoclJi7tQT+QenSJ+cu3uUZcm/yKDuOFktLi6waDUfhjn8B7IvIp1f80JLNPOLZta9AvDeZKivhVTddrPBzDS8Mp8zpuBMQ5PWaxEQP/TgREOoZFT02zqXLbcDGDEyuvRu2pyTdMWBfdyzEEIxH7pjI2giSVSakXGfZBKRxo2PO1F+KiW0H9RoeqXJvGWC/fez3s9gW95hp2uA1BxswdC8N0nFn0qfjCp7xZ2KL38jLdNwhLdeuvYWp8srj/Xzj4rDo3RKCoBd9qEkZaqUhHQob6LiP305dxKW6Yrve81OLMaGdONN64f1nmwRa1e7U74Gd1R8w6mcapZf4mIZQxH8ID5Jgd3CWbeWiwq3cWKiZv6qK2ef8hCeDSvuRVno1ESW419o8w3+yhRmfw/4+BSvEgucSRORQYMP4OuMivLGaSDOKTMsmyoE6H8N5CqDxL+MKzr7/vjQq6Tshznp5HmfuswxesAQ2IRmE0B/iCbfDMYEnMfC5Veu8+4kxEF7WsF0acZwTKxthv+XwvEfSFKZUW4iaHNY88J8zDzvVDCil4+UJ4MVUYRL3Na8GJrhqpyr0QPf4rfOyKgpRh9M1Lh3eAcunc2muvmTZLiGXDVyguUZXAXCy6dNhbKlqXdME285TuHw2vY1P+3OSAsVQMCGRl8m1eSOpwvNDIO5BLiGabw7YdJ6BTuete+TXsrDUgWBw6iBt38zjFkc4jmc0OkwabJRdgn2L0Lu/N3tcvinJeEefH3p6NP8q/z9KOJkjFtYyF7UjLzb7Fz71MJtrjaHs2wENLfCxrb4pW/xeId1Q3rjOwH3zFOQe2ICnMWXIJuG5rHjMuJ/mYPK66+S/LdI9slaYXlKCzsHi2ni2sOR3lJZ/upNTmtbAwEU2DTnTUP0hYwJsbqegNWuInGFROgAAq/wlvPnEE/gIQUBYwnKURDRtkA5mZ7dKD1KDhjigXZcvrK8HLLkCrnFf4/Y82kwfjuznogB04+r8YXePvJQ6Uyw3N+KD1vcyWLOOFPhrphKZwr+O4duKel1AkLzuf2W6kWO5ImIOfbvLu063d7VLL4MCu7bZcS6uADgsAqhhyVBAEG/+8m7aTCbdV7jN/y0wWhiSe6adLS6SAQSglVfPLMBrOCx/Hr5gximiQoPc2JnU87SwTO7rOTg6zFlE6GH6bFbOm3+QXtvFIuNlE7ensTjrnQvoGLQ3dTg8vGK9lq4B+Lp3u3x1cgs9Mdj8YPVW8YB3e95mlPVO1xdXHVmHcgGa1h7DTUDDemDvJei4HnZ31a5rKzy2hH/D1jnhnRjtjeZFUisKRMw85LBKXLCaip3GNKRSJlkD4o4zA43sAOnAL4Z7/Pc+LeTszhkcqLLhpivN8la0j7HR7EjffC0wiDggdrzFzUbjFsc1Y731ahfRDo3oPCHgFmfBAFOXlBBVjB2B2Cic6e/tGPKw+0uAAnmduyzRDnSeWOAmg1v9T63FG6ePPi9Y5MdEuzn0VGCzEAZSk/aAaunK0R8s4SkC1oOX+BtJN1ikYqIdU9fBWaMCgvc9Lg7HsaG8Gg1XxD8SBh0HceImXND68xi0Jq0ze3xLOshlThaTvgHsGytCcJ8o5jVjLlJMPBMBk8p1fJPwFZcdg7uNA7P9J//9X6gDHiy1SEfiz8fi47HNOVoVkCpwAk5CjonLTZsSD/WTNcJmOtT+d7DLfecsbqxs7qssQvUWY597mAn0KZOW0inH4oga+B8rQTW50dwXUS3Ke+xSa+VQ2ZEVMUCoCboS3Znoh42Gm32+FoRbqcnSau67DiQR11shzD/CFYqsGEYET9Blr8WpFsDL7Ww1m/ji1aWDUT0hbgTyLxYI3WeMAw/a7FioAlcPWrNip3C6RZEriWWj/FwkbPUHqLUNmOLzCbWUlnxX/ADAXoKe5aRldcJ4oXjHjrNBcpXI2fIpA2EbrJAg7vmm13by6q5yA6DQYLIT9MVXy20elBhwog+49gWi+gBrz7l7wrLphXtuEbXVp696JJigFfVQb5kfQrrNWLTPyMu3Lxfco0110x10cstBgnvSyABSabmHvk/IYAr+EL4zSnIytEMhvvsazaB9xsqzKhx78QxjjPbokiB+ckiKhkdLixHxYmMtrFQaK+KVJnAkZQJ9PuDfFSdgY9U/dFetIgsfzy35n76YtwcjFAWBwW7Yc3ppQ3ax1H4Dh16dyu+KMTK5lnHzNXD+cIOAJlFVFF5AXsCfqJ9d6IqSJxLZE2jTPiRxHlG92EwAc/w1BWkTmIP+nyMuwMkOqmMMjA/Tqdk/454x6H+SjOVvyCeX7SfJQQA4HwZ3QMSupxDMv5c6GaOMsyliPKyKtyMR6flZEabRhyrtTW6j9JT1GnxdFJ8ceH8jkZ5b0j8xZydw5izJuVofqSK8rlvUECAAVENf/Td1SAJBe+M7dyj9o5z29x28x6GsSTXYXEhtnceKyKowWfrUC7txrIG07EafJ6ZQIxGnXqf0quJToEmI0ASY/LROR1DPEhdlclXvuRPcQewapWWGOt8s1OMBzAGQOk/BgAI5+VuAWT1brqeIX1Nsra5yyBPgxeO2AzUvC23AqWhOGxWRtLMtOuGR9XD+afhPK7laM/b03VbkFWEpCwnuobh/8d6XQxwWmACGgxalVa9+rdLiiqwl8g9QMhbA0u4VNQ9iC0N92p/wb8957vBNdObppOnffMNOQbSY4QZpu3nvCQijsfw46stqc+pFoKvKW8jmK7rCjgUIHaN7Ys5oYLMBQ/nhngSeS/ns1EV93TltvzMajBWc1dmbc+GDyCSC6TPxNMDtrEyX8CndMdeadyRxIJhHu4kTz1OgvA/p0xkSY86ZFqh0fmnjIKOEjYvv3JfoVx+ripnh9NJLYPB1GAhC1lfZ3ZZ5FAkrkdNbVVdqfhZ4iguIhDo84XT9xXFYZeUFrgvikoc1xJtf7cBVMMpP+a0K/hBIpumAtb6qDNzCxHs1GoGAWNE2otsrg2jESPLWAH7aq0LaSKzqlFvh+wJ6Dvhb5BwC3tekFvt9truHgfocipF1wlv/bFNVZhU8GSEpX1GSDkjR7m7dwrahArLcbY1hDjkYsy7+86Qf8+kFg7Ux2hTCvF+RyGbj0ybMLovYQnYQkEQ5I+19M+IqjSNWbwQ+VrNWUx0pOmB6GjuPuEZsN/swpUb82d94Fgv66tGNtC8LNqA3r34XO3NEIURQKQ7gbcNYgyH1LXH/QrcgRGlVOeavDy8kyjOhm0jy2eCZkeJ+ND9po8X7CcLTUu8GDzFQNcxkXnNP5m5C2mEr8+CraZBguENXMc2wp0vR6ynXHOxnusBXM8EoNwVFp+0JIo3r1+Ky+JBJqqdo0Jb6EcCXlm2wk5PQnWpOEF987uA8L5xmbDtjBEmwX2NHYFy5mKfr0O9T6QJqpMMxqgB9iyKJnBr2bOxJhN1JPtXQumLgf9Wklx7Ce6VrOQS/3N3vdL4Buo9L4Fapwt4zQUL41CDu6FkYnEY3GegeoCgx6mH5RFLZL13cl8CA64kAdktOBEnt7pdUlt5AOqzkhblDAT/jjfC1DjqnG2joADRoUQGXxq4xPkAzAO0aXGnY+MY+6mjGXgU0ottpCppu7QzcQpU1htUZemlFjGv5mihPWxYzRBnrT6ZLZntSeWqOYybQaKZJtYpy/H2kvUuuXbNwNjz7xmUf0N3ISk/SaOQdlOZWO0tGp0MpYzyvq0wkX5gEsDQFjxE+nMql/+/7lmHPS7ATLvdY1YZcN+I7xcl7hHFcTC/rvxSg/wCvYIs26/4ntKP/8pGV8s8NBOWrVdaqLPP4NdiLvgYU2KMqxymv8D/yx+uiplR3eQvD0yOOROkr5NsWIwo4UT1+0/zsiJ2PcphrMWmZr00RXNu1lRQM6lcmrYvAIkSmI8V8y20p+O7rkpMO3xStIhtJLx9z8x/+yZwkOYnFgt9HaW0OStVzJTkiMiVkXnsuzBDRGNmGOldJ7zRfb6CQQ62c+/UUngXhHW7FMRxor2j3c9AKZF0sEABPPlk9JX+fRxeOPi+qhUdSxUHT5wdvIVLc9cpTcwWRwmZzrciqFxUln9n+g1mw69y67v1ldErHgADc5PuWwFNtelLSFeDU/L6rt0WkSphjun06GaWiiLLONgtF+7UGA5ln+fsQ7jOpGxAH1NljX0AAvOlbPn8TIBL8QipTUXR56e4jDEetH3qYwxpugs0YflbsNXRdhF823Cr9hZox82juVG76f0ZVCPsxwzlgwDIPBmX4s3NZWO6XyMP/Ar3GBrpYmAxh2g81j8GtWYi3jQ0P9B1ofI8ncJ7gZOqbQMvHgjDkuSi+nlDXz+W5Gy/50fIg9uzTXxXU1RRNfTNns6EnQWyxb9dozMjiH2xqeVMteZqW/1QImKfVwFPKi0umqYzJVD6S1t07AXmSBs/TJ2u3YagglFH7MF4YoH5JM/y0YYz7SBGoFvv9MA0mvjg1IZUMGg/MLGVPVuAzs2v50bkSfquOJcNL15g6qdZlCVPgHusM7cAfK6BKCcmbyvmpT9n5tBzanLI0VbPBYkgGW/bZ+ILpyoiAaShER4Fzg6+m6C5EWYBcABFHLh7lTiQRjul/7wvhYVvtVWrwVArfwpV+5LnGYIWM9pGJTBzvRYOeab+I1/vcU157t0xN7mUAtnxT+YLozSYaJm/88nKMFhO8RbMufgZR0Jpe6hTf1/aLUfcncn/Anztn4tE+YHaatphUMKGuhBOupWb9b/U+4NJ0bD3StgUufWil7UFjtYIeyZ2N0dlmEyO9lyKrIpgPiLkekXQOv0JJdnOHgaeB+8gCc9KlF1qDpgudX87jf0lZcVg4NYT9Yq74YDvYq5/7OQedR7PUrHCKA5pIAGxrd8VXYYPhwiNA37c906xW6So+tIJctR64YGLfTTOx/OAf/HjOwGcNaxw4zs//8nDMfL19T/jcGdvlgutzaeKxWg30HrC6S/z6t3k372LICsbE/OxB22Z2zW0VrKSrzW25n9ScUb53Gzas/vOPle+5W2GRMAsn8dxMR1O3wXRsRXcsZybgcVoDbHfYcC4bY/ndY0sWpj8vqWSaXERaqoXIrAv8czoJQQEtILn/HTlpOQZzlWK/nzOqRtShfZcGIvmdVPLf1Rc90fipOTIlyUKjeGvmm4QChaTavu6V4eu1LOvzojXm7ks5Powa/6oSBATREjT54kXUPhjy/ltvk2Pa28Nxi86CJ+rK+RN6QLEWWmB/R76cvegZDoa74zrScBeumbskazp1ZAf6mF/SnyhDTuyy7P7HqMSKi2GNACgL2mVG++dFUvLZ8ylDheCPOCaPFyD90WGDJaDUD9an3c4X8Pfp8Y2eU9hczXuR5G69auBg5nr9Zt9ijeAQYSPLgB03Fv+9U08z2RKQIye1CfwWAu9DLwzjudv0UHdu2IxAaWd0NXAzgC/5FCLOaM6sqDZtZLpZN/rCeUeE1x5nazJTfaKp33VA+ux4Uz9d2YdBgmECrePcayTu6e9Bui51pvDa/24/BESz2jnrR9uHRvzgiXVjVevuEhfBahDH5ZPSEWCzpa9AtblUn5IFfPZ/xAb4KUXuZRpodIoWkVQqsSUgnK3eFoqHxDbrQUmGhspEMhRDfMWfQUiXKy7GRR1xiDxnYnCSOYnvZqFVynCRIjsTjWEemSIa+Ns6SDCe8krXZ8VJ0+k1iSXkgEreHEkZACCvSl8Jzx0AhOB7S/5HFaQxvmebH9w/zahnEMqhggXK3C/IGoOJStoH/52oWfqqzJ2AncknKMJ9B2HHyxjx4ovvS4KdFje/cKDiBBD8/2t7BW9WWgvw5gIPwUrXIz2WKDrQQKnXOP4Eatm62ea9iXdpYrow55AcIdGXTqod98hBj2778T7QVjxPacA35lZrNzSdOrTMi9unX8XTKuSyO0BjW0ZsXfleZj9D5gxoEa9KmysGCtPFJAvMCy3p1JNUyoBwyWaTeFuBVDHjQfzOzK0noLUzmRf/y4A8Lt/vovEYo/27xt9iv58duhUxHna97U3P6ToQ5SpJCS5vay9zMM6DuFVIbH/Zgm/Nji+jAveV1X45f5pxEYX3Bk6Z+6E+lpKzHVu8i0FEA3Ydzs9j0VwNPz6eYuVNzTQTT9vth+w5gmv7ZJ3UdhracGdnc3hit3IPpyhQMU3BKcCZF73hl8bq3EkJLmO5pk0OsbSKdp8yRqKmSoy853xMqhEGE+CAAAAS/rX2GtzrW6yJ88LhDXqoTC4Th2oJhoC+rj+iJpvUFG8mh9SAgTM88niUSOK+alHEgfUUlzT31NxLGoZtyhLFdHpSGpWcbQCQPvfgGISOzWL38WCN6zVbWqu1Fnb2lHndSMB3z/4gGu5xl8ywcwQr07+qE8asvfjlAoP8BtOmto/wclgAAAGqKKqXeL8J/yF8j6Jq/7DikUm64aiGgOjcwYhARJKFSNJMAACv8bdASV0dRj76uGEe50YUS3m2wfVMQj1XI5yC/htqb6pIMiJvEt4DzytfwJQE/pf2nq61la9+ER5alQsI7e/z4beTvL4xJaFc//vk6FYGo0NoNdrAAAAAAARVhJRroAAABFeGlmAABJSSoACAAAAAYAEgEDAAEAAAABAAAAGgEFAAEAAABWAAAAGwEFAAEAAABeAAAAKAEDAAEAAAACAAAAEwIDAAEAAAABAAAAaYcEAAEAAABmAAAAAAAAAEgAAAABAAAASAAAAAEAAAAGAACQBwAEAAAAMDIxMAGRBwAEAAAAAQIDAACgBwAEAAAAMDEwMAGgAwABAAAA//8AAAKgBAABAAAAXAMAAAOgBAABAAAA6QAAAAAAAAA=;" parent="UEzPUAAOIrF-is8g5C7q-2" vertex="1">
          <mxGeometry x="131" y="80" width="80" height="21.67" as="geometry" />
        </mxCell>
        <mxCell id="108" value="PostgreSQL" style="shape=rect;fillColor=#0F62FE;aspect=fixed;resizable=0;labelPosition=center;verticalLabelPosition=bottom;align=center;verticalAlign=top;strokeColor=none;fontSize=14;" parent="UEzPUAAOIrF-is8g5C7q-2" vertex="1">
          <mxGeometry x="647.28" y="36" width="48" height="48" as="geometry" />
        </mxCell>
        <mxCell id="109" value="" style="fillColor=#ffffff;strokeColor=none;dashed=0;outlineConnect=0;html=1;labelPosition=center;verticalLabelPosition=bottom;verticalAlign=top;part=1;movable=0;resizable=0;rotatable=0;shape=mxgraph.ibm_cloud.database--postgresql" parent="108" vertex="1">
          <mxGeometry width="24" height="24" relative="1" as="geometry">
            <mxPoint x="12" y="12" as="offset" />
          </mxGeometry>
        </mxCell>
        <mxCell id="110" style="edgeStyle=none;html=1;entryX=0.04;entryY=0.561;entryDx=0;entryDy=0;entryPerimeter=0;" parent="UEzPUAAOIrF-is8g5C7q-2" source="10" target="108" edge="1">
          <mxGeometry relative="1" as="geometry" />
        </mxCell>
        <mxCell id="-QjtrjUzRDEMRZ5MF8oH-47" value="Persys Cloud" style="text;html=1;resizable=0;points=[];autosize=1;align=left;verticalAlign=top;spacingTop=-4;fontSize=30;fontStyle=1" parent="1" vertex="1">
          <mxGeometry x="430" y="60" width="220" height="40" as="geometry" />
        </mxCell>
        <mxCell id="-QjtrjUzRDEMRZ5MF8oH-48" value="Architecture high level overview" style="text;html=1;resizable=0;points=[];autosize=1;align=left;verticalAlign=top;spacingTop=-4;fontSize=16" parent="1" vertex="1">
          <mxGeometry x="414" y="100" width="250" height="30" as="geometry" />
        </mxCell>
        <mxCell id="20" style="edgeStyle=none;html=1;entryX=0;entryY=0.5;entryDx=0;entryDy=0;" parent="1" source="17" target="ei1fRvyxPQEVMclzIhYJ-7" edge="1">
          <mxGeometry relative="1" as="geometry" />
        </mxCell>
        <mxCell id="23" value="Token + mTLS" style="edgeLabel;html=1;align=center;verticalAlign=middle;resizable=0;points=[];" parent="20" vertex="1" connectable="0">
          <mxGeometry x="-0.376" y="2" relative="1" as="geometry">
            <mxPoint x="12" y="1" as="offset" />
          </mxGeometry>
        </mxCell>
        <mxCell id="17" value="Persys Cli" style="label;fontStyle=0;strokeColor=none;fillColor=none;align=left;verticalAlign=top;overflow=hidden;spacingLeft=28;spacingRight=4;rotatable=0;points=[[0,0.5],[1,0.5]];portConstraint=eastwest;imageWidth=16;imageHeight=16;whiteSpace=wrap;html=1;image=img/clipart/Gear_128x128.png" parent="1" vertex="1">
          <mxGeometry x="20" y="322" width="120" height="26" as="geometry" />
        </mxCell>
        <mxCell id="41" value="" style="shape=image;verticalLabelPosition=bottom;labelBackgroundColor=default;verticalAlign=top;aspect=fixed;imageAspect=0;image=data:image/webp,UklGRmohAABXRUJQVlA4WAoAAAAYAAAAPwEAPwEAQUxQSFUWAAAB8IBs2+00+v9lhRBNtTG4mSohaEXsRoLYDWEcglRkREaKiMUittRBxBFCd/O2Ul8CIgSklh22IjKCBEKlpRWpFTvK5g0SMkitU4sEi1WCtSEqIaTRxGQt6NTnvp9nLZN+to0ICY4kKZLkuUc9cEWdlVT9ANk3n3z3n+/+891/vvvPd//5f7xRpBWUNbTdt41MOJxOx9SIrbutoeyIRh5zSSuqNVsn5le8Pr/P6343ZetoMGYnSR5VXmWb7S+3P8QLROFDvhVH/2Vjegxdenn1PY71bV4AJLS5ONbdeEojWThtecfoSkigEP/c/XINnoRyE0nqTyhZIM+raia2NIHNsjpRT+ycFk1GrW1lFz94/Kbzfo2Ok+AVXW3/YlCgl4DdpMXS5Cc2L+q9r6EnuWMlTG5pbwYDdFZvlNjUkTRk467NhqhHL+TqrVBLi+TS7sWwwEii8y244VIMQc2LtHLUtIAd5Tvl1Ch7wPvQgEHTPM+zGb7An9UqCWn4i2N+gaXsjhlZICzqqDv7F9wf9xFqDBsgPyL4aTTMbvgC/TlSecdFe1hgLWsmzJqxwLNbT0tZEHFHNUIw6NrKYVgtm9xsh28qTxJk20KCCBLsVMNUwc0fkFPShrm9+zhK1DMgf4KrJ6Nnm/Xw9SslgMomiCPhu8kgOcsg8xl0KJ4JCJwaSgq9oKJuA/+3Z7zAmvUCCXBiUySEULsCnIhBEH8xHdpFDN5CShoiED7oFe2wGINXKQGqwmIh+OvAHjRHwWVpoqMkgCFCqaq5XgFiJoVMipUXgUitBKiPioawWACh94ANs9K9cBk3ynfp0MyCWIDbrn1XEIGoFLjIi4fQnwBp8D9B3h6i8nmsyI04iYpToIYLlJGpJOo/0OX1uldW3J7N4O6+Iex9+6e1q+1Kc5Ppuvn+oH05gL5UQbuT+400pM/hcOeTodZLcxlEspw4tbo0ZGmsMBTkHc7JO3aipLrl9rM5b0TihJaH26v0GSqOtEKTdCXXhz24YR5SARj94JK7xmQRQ72uorpTBgSIbo6ok9uimEXQV6VTIkJahfWPZgOEy1Jj095ZmaPExgssK6g/SiHFCHsygwoKGrHqvoOGjHmqOc5bEkB8jwrxaj+ttHM+LJ2P1e9lc6LVQOfL61H2fQ80NHfhnS0LD9cjIBlJoOAnP4RLS+RGFGS5RkE32ln1o/90YyVfAlR8NRvheUtxMr1/aQ7CLGUDVIJuR6CEwoVxYFnOpuAKT+NWaWbgt5XRj3dS6d0p+0W5BNA6hV33k/osJk1UdoRBwrWUtjh/A0+BB+2PluFRDMJuPdU9EWpmFHBIlklCjjXWHGHmfmpG4HF+xFFuLU8UaGp398JuprPANeHOI3KNB+2vFFmMEuMGrad8cRfWjWhuk+eK0VZXGoB4pqRZL1FT7EpnwNa2Vw9wxA2qgVIsqgmyrvUSeZeJppWHpqaFrADsEJunZDFLKoPgCzVQ7mUYVAOtWPLI89s9RjbFfkKvmCEBwKMnkrkI326xiwzYXflnYqgU4JACO/0h8tRbyDPdgkW3BDGmApYBxKwmdsH1gPTSujNLOiRmcuwvv5psTvTLkZRvU91QR9bB3SAGvJOhvzICLWy1HXyhHGmADRGxq46ss1izZp4q5HgEtMIWD8UwjAEIB+gqdcChaRzaJfIr0LazUYQjYRQRcqT6x+aJGMZhN8Q7MDlQBs7rsJLaBopclMnuE4lcRHYX9PotlDZp9EoMI20eYlkHRxeYOILXeChXUB8h3wc4qkJUIUdZkh3cDRwZsQvVFOx+gBvbI4jtCgxycqrsLw2YkLLjvDkLZUqM6wfZbZPHLst9GGIdzrXXgNGhdgwZ82CuVOMk9+QYzs5HhBwBMcHB5816LlYhHwTt5yPU6dNRTCTM4COqyCY4IxWuwXBkjTa8a0BEgb0mVYyCs1KjGIRrEzAVTkTby2dAWGMWVJgDCji5dCDqKQGWbWthjPoZgKGZFVxoGV7l8xkIc39UheAufUXFNVQYfaXjSGxG76FOBWiciNxq2hzlnaK201f05C0ho8B3f1TFYFRjX6BbxnriLs9fwQS+tsupl4I7D6PO2rF5nM2R5iPK/aleFaoktTpZpZSLgKyNpx3lul1MZsHE0/lK9REw5IiqvprHp+bdz1r0qv2EPKOwytTZPzRmdzhmJkYGey2Xa0uOZCSwxOgHN2kqJbqoRQX+nykobdkoMjR0kaZml/eM3jCo9wdqw7XB+Q04vxcJrL8d7TaV5SUjQepVmn08aQI1RYfeAelCyo54CnGo+nmBSjbt7SVpUkdR2Gb30dUauu09TT89Y4CsC2JCBZDvJoe/cNZWwEhZmjaG1QLZDvpCq7+6KjIljLJ0YJ1NtVeQBZXbdMUgVSFcWO06+QUTHKtjE0uXGRZZlJvO91RrJcqpAZ/ASpAg0qc0jkw7MqpRGqQoGJP3g9WGFKV4i2xKDd/dLVFJj7RWtyCIDNVAC7eBCOIIUOaADEXOpVGVODlogtoGB6Ox8o3UaiRG4XBEkBSy+l2wGg6fQOkghsIp8nY/+gAsVAN42Mqqhnx7okYlJSq+3G/ig9ia8JGcsiDZpMJaq9EGmqBOkLIiJKnZxWq8ArYiycDVrQuSI2EI8vNqyRVGPNakr9hGl1PIrXA1PKUcue9hNWLLTVK5WOcVpIfsCuTF3UXH3SZU6MzADNHKznwHhxxpRW54xGoTCd5PkwTla4IUObEBYFd/AWWgd5Ht7lFybwrwBe6hKiauW0GbM8hkzKI2KeQHj71Fa/a1uTFbz927d+/3Wocm5pY3tnk6UHFA7DQU+8n6BEoNYFt0nYdCjqwMmYq7cwEGP7xVIzrJgwIK72hbeX5agpwQw0jTFZY3Wp7MecKskHXw6EBXc5S8uilSU50EFE/gswTMJL20w05/pibSqRCbxhBKoVtOYTW6Ik1f0zEPw6ZKqxuZYZpRQ8YC8kSY1gWsgIuswwjXR9ailG5cjcjoMNeCfbRnqdrQUKZPZ9S4syOPOIrc1Eoe9nijm/1JQ1VBo22J6mjSnE5cWqOITzWrZJKAe4Q7EAZlSCMNNOGOUCU2ijkkShBWkVPTMx/Ef0E7JyZZiGDnRj0nEwvK9GnkIioCu3GCqhbWjKzEi7aINsKHKroXd7HmZ56oJmcYJHRdLhMNVPoUoSKgCpHZNKpa7CEFrv3eQlF1ZMNoAPfHDRFR2ASQYbVMMihsuPri5CmgQo7qWPGSdm+FInjQWFRJrhxBbdP2FBFXwhK8C5bJGNDBCllThMxGESL/Hm2m09WBUlQ3+Vbx4/qNmPygr1hElycIMpbEgrswVCcjEJGI6jDdQxMaIogzZ6oxaIilEF91wPDXxOM6D/bguowB3AAa6vRpLwf7Nm8zKL1NmxxTUeiQRD2rHmEqWuViwfUJEAEjCxJGETAq1J9NgxttQwxX2iwivlMThkKOkpBqP4g9WSwSRkFWcph4Y/PsKPYJcCg2e5l8u+Li5XBBzm0o5CgNVM8EqZwS0MwKYpTL6700dXN02c5oE6joA6gjKc1RsKFJUxQhRylZi+48schchG+gJBbUhNFns5HpU9BKauVpV5vBB2rqgnUyjzgRoTsl4CkQ7buWQaZULOgSIMJVe6BPn86lQSGcIQW1t+5MgUpMhFC1dEqfJcOKGL+lz4JEaijQLgqQHs1apD4QILdBR9K4bugMi1RQO2DVJxbaJZD5NAbUboPwDXugT59Gm4GCnO0K+rPFu3WyFAdk30iFlL/g0nuxyHgHf+wwPZoJAZa9tiqD9OkAZ+Lp+2gMANmaQi9tyFEq63VWI5X7RwiUUMNdD7N9VEyeG9q1+3HFrTQHSCYSgAcdufPFheqQ97BCLBRDAnO/pxSVYR1SUKAcAl6odNKb4NDO5s7vgaoNJUMbD9EpXge64TkYU1FSOCdgeEtlDF6Okne4AQ99+g6yrEINTmmexc4ER2+3VjxaeBBfGR0n9nwj9uE8LNKn/gi1EgAte350g13IUaHi2MG17UK4j4h5BhGhBNQ0lGMzrHw7EmKYEfuAKCahvHCUWcjRMDg1UJfFiiovPNYJ4nHoLUyoVY7f5K7gq0tmqf7Zzn8Nw90uYQSfIm6j8qRHvnryS3uhgsXfq2BjOyymOSHvwQQxW5B9VxiHKAqqQjU0lAaw7NZRzDQaXzELB2TdVqvlaN2OVkSRzFyWyE9RgMXfno55R2k/XW3OkIrqMQNYPHqKoQhhcaSwsc/Ci311R1QUf6ubiiBWkElcD3RGQEhkqo6sCOSHSsxTftoyyFIKuG72s5DnxmKR0UGeCPeYpbYoE36rIqu04y9c1kXkWFLTLk4RzHU3GAsOH84rMNaaB9+CVzZnELrUSmMR1oSQ9HAUOvRPJMEyBpBf2ng31mduqin98YReX2gorWm5PbSIVGGb5TJxyZjBrrJowONecXsDmHLYwOVCN6LzNH9kLyG71UgzFJ1I5jPYAH9d0L/p9W76grsUdTcdotfd1AQExrJtVnK3EX/YEuhTsyyfq1MTxvGIo0U0eSZ+5WFCN8+WgPmLPjv2xfRgGDlpjKCYS6Ph2PpeGIYcc1ZEw54nhSDIFFM2r/yjYTlzlB2EyDX1uVfcM6BYhhxTnGLhKJBJQYreMmSl7uvx1s2DNvV9BQWqUQw8pa1yfw8sQ46cRSQmCmTSEOM7VvBThER7fRDYHmx0pm8rj8D/Exn8IU+mIcfDDjEI9UvnAJTByehtXVmkxdxLnAz3DQ1locEG6hU2mUWoCpFWjg2FmeO+nCSTjuTZQvTsTlSQdYPOTmjQyI+0nVI9QdDJUTZ0FEEfA+smpWkuwpTgoEFix2VNS5REZpvBpWrY01D3dQZB91IPvMtR67uqALxGT7HZgJsmfOz+NlqjkklNjnTR2B6BqSaMYi13/ePmDjNZPvLauWCUIBG/s1JGi/L6yi55lGdrOFarz2hx+FiwbquS5BlurqDN4cddmb9fjnSS9XennjVoWEWaS+vq90qtMZ3FGBypMV2/9rVcby5nejhEY7j2xBWgIbo+ek2vkElVNCVtQ4sbIX5vH4Oe+SetpRk0ClIRox7MpC29NuBwB6IIl23d0dtQoJJ4p5WZRZWNNzo6Oy3my/VlBekKWYwWLiXPWN961zZqn51/+/bt7MyotbOl4liK7FtL5MpkTXpGRoYmOYGTffPJd//572fkioTEAwcSExTctxbK9KNn6q5aeh8Pj01OT0++fG59YG4+e1Kb+E201NMNl+68+PvTZx5RArHlGr934fi3zUuJ+saBNz6eLrf+8WWz9ptFWeivjn1iUh8YeV0t/xYh9dzjjwIzWTvDgPRCHRdXyWye2RFYSh89Pzu87+8djZ9oGmcjAlt5Q89XZ+dcv2fGyZ2+bIx9Od0WPWtf12A66g7Gw091bgjsJUxP/579b+dFeUK8I+clL4ghLHpDOK5kLZbHNRS9gijCM+iPbpCwHDwPi7g4xiEXaTJ2fGuu2clh68Ou9lu/X2kxXb3Z8cA2vrARQfCZiR32kFQl7O46Hr848EdgZ+vD67GBzqt1P5/Oz0o9AMUo5ImHii70r4J4mPQoyUws0Fy1xC8jSl3yc1F2Km3Fl/zow88Ai4xUUuMnchm05bgsnkuCJUJmnFVrfwEeSfShUx/Pw286F5k/mLX25DRwu6w+OKmI28ht5E/eZDjdVsgl+PRHSdyOu1nIVfpnWap1sw90mZ6eVcdnbpHvf6ZbkKJuGTa6Jn/NiseYicwwfgSXYRoRuXxjPi6Pu9wh0st6/9b2YmJy7r6yg/EM9RnTzXNZ+LfwTezTES1rGN/TP96UHa/IaZ70C0J4toLsxRBv/q3TInSlZAaXgHDdMSbFIUfSeMfF73FVCokG0HviI5xSRbFbv3hOKPGNNedy8QQup/HlFmlUO0gU+0k8FGekEy69x4aQ3vdWpMYNbVv2wAW4h1bSBDXxBMLnRHv0wnN0cuKz03z6QBzwrItu2gMUT1HiiOHJ5Rzx0js3KTKLGy9Nx5WxHHlu4/NPmPToadKQO8lPxxDz4RXjFEF2fu3pr/mKGH1Fd976AXVLbzWSJujkFunf50XtY7r5E1U0fXUwBl+Q68794UKm/VzniOu7hSe1Ryfyzljyii5FG1l92qxPjJ0ocuv6sVeE8FM9uYGPBQIPRPf4Um+u0uZ0Pr68WayJiQamvmlwGb8G1/4FBGeySTaP/4wEenz6KX2Nhc/RValTxDTSS25R1ShFXhmhZlaHCIwlS6HXyb8uCPSy43psOp0am0g8Wtfz2k81ZB//nQ4q5x6SPrkkkb7n3vGyKa9wPqw7nhxjNK2uon1sLUJZ0/DSCPs1WQsEXh+SzH555gWjQqnIx+muc0djxEsKbdnN5++D1AP13oTZM84ShjhyVULDcPDSa14QmL1070JRqnx/b1K5Fbeeuz4zGCJ/33HUGiU5PQvSqnnVmVdZVlp4X1uv/pybtD8LqU9e6BpfZXOXRiYrlbi46yLxT4mJ/qFXYCrB1cmHzWdy9tFb5an6KvPgmy1mRYWLJuw+e57w6dlM6eky42O/wFoCH6Z7r/6iT1dKXVFoDXXtT994WVYUrnXmosfWRrBlLknSCvnlRVAQQXY8b4bvmSr0WQc46a31g7rT5272Tbp8EcaVmH0n8SNwdHUvwxJNlSSfe7UjiCQ73sXJgfbG8iKdWgpGvlKTfbLyt87HM8t7P8sS/+MSmo6b9m7Pn4qlG/A8P74jAsR6tY1l54u+9t+qjfrs9CTWZ7QUB1J1x43Vv7X3vZj9sBUSqeP+p+VUoYKk8b2fMUvZctGcH/ssiC+RgPfDm/8MD9wzX7l0rtx48niuLis9VZ18IDExQflFEhITDxxUp6Zn5eTrDWfO1rXc6up7Pvlm2ROIiNpb39MKykCL0be3WCld2hvFwaphvyAh4SM7gS3P2rJr4bVzZnr81auXL168GHs1Pj3jfLPgWv3o9X8O8dLo4IatjDZMxXXtzRQXS982LrN6hVgra73F9OaHdmFPcqRpX3hmhnvLfAyFX+zQs9CkF8Jf67Q7+6R+n8v/lzMUI/k83ZLNxiwcFr7i6T4KYaWff74RC7/bWskqtGzY+vobdPsrBWnoXAjHNILOW3oFs/u4k/+H6XzZfhPtheeemKVtP/SfZakDMr9692T+/syD33IEYhDel7/ls7W+i3xfZvp5jmyfSmrZvYWdmIJv+tZJ5jnJzOkdd2e6bB9LVlXvYihWXLG3F6tFia2W7/sKVU5b3bMQ3P/qYvzfxbG8WpzLrOhy+vYv4Q9PTUVxoDxSU/z78Gp4H7LlfHAuN26clVHmVt+xe/h9hH/B2nI6Ne4UhOsvPHR8iuwD49L3t+2q8ZA8XhXV6893ji0HpMvO2kxvU/EP8e5cR2L2GVPvf1Y/S+69H53Wm5VHD8ripSTnnmm+92LBIwnbPrzlGu+5UnFUI4/DT2v6QV/xW9dTx/uNHV4UQr7V2eEHV84WZcX554nJD2qLyi/dejA4/vr9J18wwlMSCQU2Vhdmnve2N1WeztEovimeWpf0Q27RmerGm5Ye24tJ59+u1TXPxpbf7/dteD+uut44x59bH7RfufBL8VGtWin75pPv/vPdf777z3f/+e4//988MgBWUDggLAoAANBGAJ0BKkABQAE+dTaXSSSioiEkMZqIkA6JY27haY0A801gXgD9K6VKIB+AH4zJ5GUj8Z+XngVcl9Z/jf21/Jb5/rh/m/wNymllegjzl8gHzT/1H/F9mf6l/yvuC/pz/Zv63+PvdC8wH8v/p3/d/ynvL/8f9qvdh/aPUA/vH/H9Zr1JP6f6gHlkf+n/Y/+z5Lf2+/eP4E/5r/mP/l+/XwAf//1APQA///tf9AP4B+AH0z9/hHqfBlSKtjpUwtVCJPgypFWx0qYWqfBlSKtjpUwtU+DKkVbHSphap8GVIqlWVS4XeKgvfRRJPJh58be+pXni840PQi/SNtDpJAom68dYeIaea/mUZlYGfdONYRxb1JvdtcNZPFJeBaTbmWXNVE/zjV5N7zHm1t6F0oVt4e+SY9iUhI7MqIK7g+yQpSU3/yNYoH7I6NOENQ9kxqQqEP2JjCnx9IrAfGaEs+ZxjO7cDXNTP1etEKL4dEQgLlOpY7ErviWH+2fOfVOEOrORpILmPnrny+irp7Ufam9KvZyLg8MjWP80/sFhlOgJOpeDCOlTCzSoGMHxXkYwxL2Wu+I7wzRaWxltnUirY6VAqFL13Zyqu9reD/FD6JkYKKBHsoutGs75ibTsnY9KN86dgPAbjrx7nVcPRgiwuCuCT+jSPLpqZTJIo1cDeREz79KkTxfl9M+Gmf02x3JAYfBzcGJjVGYVbHSphap8GVIq2OlTC1T4MqRVsdKmFqnwZUirY6VMLVPgypFWx0qYWpkAAP7Jv0ItlClqSWeQGZHAAM/hwAAAAAAANuw1G5qmwdqN2hItqFv1+GHsPdAHRLNvy+l4sWhBzDeP2bPkP9EHUVOwKb4zbHm+0ivfsn63hnJVSxJ50nAzk35/vMVbNOELymCxf3MoSN/w4HtJ1Vel6xABUok9Yhh6JI4bd1yW8ajL2jUuMVKXmpOaDak3W64Xvd7OOqc4rPe23PqnLv+8AqlBRFUJlJzS6dl1iGzlVYn1yXUrrmE3u55LtlD+F4h4UB0LWf0irYnYzulYNLKVa8ojP/MOSxMKK704OfgKb7sfq+f2+LG8kKCKLvdvrDNL+LwOzelD7R+g29mc+oMLXxZHpJ5pcArB7ygVR7qDs4mJd/Qfqs+C7qEw+du60XXa4jCtiw8wnw+zWahyD3GBMtYT96MeaDAD0D+WTH+GLzycDAqnl2u6z4Cix9FqQ038iv8GV0yXvd+KRQ89RYE12mUFhNJWgWDHf3QrEkuNaA5GTtiqCL4l7Ru9SrPFqYcfeUhoLDeH3YjGA6i4PcoJBZxpyoTkL44oe6C7p3xD9KBiOa3Li0BGCSJ+rV44hGvSDDSFCG+/ylsCQKT9APXX15Vgy/cnPStuPmJB6aXmqHJ9PpfqzkzSkRWpVnMhxroX+pW+DWdju6e1lLOzQZzCinSwMHdJE6KrfzaQbBITomx8qlJFcBFRLzEaMbPFHm9i5IdY8mWJqR/dtFvMbRFnuo9axYLc6Ms/AkvWqY3Kt4DD2fHIVneD+Zaug0C3thUgoE+o3/+Q/2Y//zmyi6PXpDNbr4YArj7M0YicKXOWp1y4X02zw74XEx+LX8cYUNG+euwDkWNW2EysX9PRUuGipQ+f9EuIXBKy3eejnj93Bmg49pWpfm88CX5WSiMW0D5dU6BgE1UPcOlcxy+Riu3V/a71b9EvlTa3GICN0V/ipYYyRygqthxN1oJN/F5mxHuIskZKUIT7ktkrN7FRfvVAYHaT91qb6Nq4Mq9jEVWJ2gu7aJCo5D3pqETFRtojWs0We7gjYWYTECCEkOo6y3Xjy3ZCIDeS6K7tPnTQOZlCdgfeZ8xkn+MLZgVxIKRhfK2VA7tm9nGf+BVRfWeWXmzglvBK87+A9l22YtGkOVHbuVBVVVw2RWz27AYTRJ6kQ9uLkxeiYI/tBNghNqtGgjvh5jgjstuSWOVPIvgYHTKVkaNeYPlLA8bnTowlCnxmHnz9GYx9CFo7IW9LGu6EYFm+4WhnOlygzDnBvmtZFSKsHIfi4OtFxMSIYXaGOIRnMlLRprDXytfRmbgNPQJ75dTYITjhzpqGMnuciOB8sKnSqQn0/MlMAw6aQ6sAAAAKcmkEyA3G4D/QvNCRFVFbp1/b0gE+dMj6PnS0I1jeMwf/mW3UyAY2yuz2uEZKmd6JDdH03TZIGCB92PfIIQwMPRsTn1/QT5UjPkFT/Q2JYvye3mLkx+rVObdvFIXJ8taWmDQBIZE+nm8p/tFcFyRO9Bv4SCjvACh0/9XHn7I2eYgN1KwANX9Gb9duLCaKsYVqHdKzYn6JRDyi3SaswdZPGCdZjIdamDE7JCVsQ1TFTOZJuadfLSPsPaTIoqpJJe+q7knmsbd2DkEXKBspFZJCIRuTsGcUdaMss+/6bckzxG5HUxIlIHNkOEZqtjWSCzHwhvTDlFr9wK0PhPUbu6P4MM1RcTbBlFEMZvpe5nxVunGtQ8F4EPwANUSA6PLjb7/zLboPFnolmZ1F1b70XBRIKsMUACj5uGFkOILSDXDb4mekPV8iAC3uoryuGhPhns3twdsJntgRma4IdyyXrHPMPGdunzjoIs7VvcBYWgcO63jPiES9cAiP6m4FtXCR4FoF7FJ+MkLg2Xos5Fw+MU9oGk3G67CtKjwmvXgY898XXgVkAp6OfGnFeXptTmiTbaxn05Biy7QvvX2sJyRIslC1KhA+cW+d0UGTiq5t54ncSVzN5R8IufkaFtVFm0vQ18lggcwiaiJBi0uNw+708WejQ54bwwsvmu9te31CdTjrKCPLFn7P7aYGZsRjcu5wp9qnSOvh6WUT7vfAyQsDdGnUlTnEmL+F0F88QxfJyyyp+9xnXD0McRDWv6FPf4SfwhjQAXBr1I2/I1O8fLPjbs0J7CH9zKTk9jDsha7E67V73htuecev/mb6XNH/KbSHyc8pMWijacnGPM1tAkQ//Rq9mGLIrQmP1sFAenvaedDQ6XOUQFbEq7YLyHExHwzus35SyNvcYEhATuPzVTQmx9tKWMXS0fK6Ppn3+j5NlMI5yDAnqQIsAYOYH5HC23+XA6LYNMhHbqszvThNNygGZ5s3LAPx9Yn6LPKpgmvFutDeQK08KT2nQ+KrNMlxbzPAXrtFfGZhpa3jPgsPsjPfGviDXKh5t4DVlxBAuaDkgawUe9Fsk5G9+V1KrHM4CC8N0mNbEORQI+lQOmnUIu7AcfRKmAsZyYoNWwpmfy/+0LGI7aqL8J/x53p7elRtaOiot2ZyAR+zuYCzF1UeCj/Kdxpc2RI0dZeju3PVj4VSdpRACHPrCyFPVtXDxlEGPkS0KpGNONAdliCe0qw3r9om+41PnKbFLyPDvoLtW6BKo1AWZHQJsAmsvKOQS1Ww2wEreaJ9wKi77WJgC7tOHct3VbM2AMJHfdNzpAiGEd3JLevyyuneU647fO9Yyv6zQXnl7YgOTIKAAAAAAAAAAAAAAAAAAEVYSUa6AAAARXhpZgAASUkqAAgAAAAGABIBAwABAAAAAQAAABoBBQABAAAAVgAAABsBBQABAAAAXgAAACgBAwABAAAAAgAAABMCAwABAAAAAQAAAGmHBAABAAAAZgAAAAAAAABIAAAAAQAAAEgAAAABAAAABgAAkAcABAAAADAyMTABkQcABAAAAAECAwAAoAcABAAAADAxMDABoAMAAQAAAP//AAACoAQAAQAAAEABAAADoAQAAQAAAEABAAAAAAAA;" parent="1" vertex="1">
          <mxGeometry x="367" y="808.6" width="60" height="60" as="geometry" />
        </mxCell>
        <mxCell id="43" value="" style="shape=image;verticalLabelPosition=bottom;labelBackgroundColor=default;verticalAlign=top;aspect=fixed;imageAspect=0;image=data:image/webp,UklGRmgsAABXRUJQVlA4WAoAAAAYAAAA8wEAGAEAQUxQSBUYAAAB8Idt2zI7zf+d13U9s5KVEMWTIMUlgrtL0M9bHAJtkeCuKS0V3CUlLe7uLqG4u4YYTgxJIJ6seW45/xhZ88yaxfbMxxIRE4BF/l/k/0X+//+JF1EzSyqamYo0tzQxRU3VEpWmlCaKUltqre32P+6sCy4dOfLSC846cdj2ay1TQKkm2mRSEwCFNfe74NHPfnJsp58+9vGLDxjYBYCYNo3EBNBVDrtzXJFlg/felfXeB5ZNJ9515GoKSCLNIDNABp311kJG0jvvY2Q7YwzeeTJy4dv/WEcBs2aPKbDMcW+lJL0LkRnG4Hwk3Tsn9QPUmjmmwLrX/8IYvY+sw+h9jJx5ywaAWrNGFdjmSUd6H1m30XvSj95RodqMERNs9lxkcIF1Hl0gX9wKMGm6mGK1+z2Di+yA0QXGR9eCWnNFDN3PnkfvIzto9IELL+oBkyaKKrYfx+AjO3D0gV/sBNWmiaH7SE8X2cGjZ7y2B6w5IoZ1PqPzbIDecdyGSKQJoorhc+kiG2J0XHgcVJseKnY1g2fD9J43dIE1OQyLP0sX2UCj48tLw5oahuU/oWODdRy3MpImhmGNb+jYcB0nDYE1LQxDptCxAXv+vBGSJoVh4I90bMieMzaENSUUq3xLzwbtOWUgrAmhWHYsHRu251fLQ5sOgtZX6NjAHd/tAWk2KG6hY0N3vB/aZEgwgo4N3vFsWFPBsJ2PsdHFwN1hTQTBkl8zsH5j8FWGWD8MnLIctHmguIeOdRq9C2xncD7WCR0fgzQNDH+iZ316T5LzJ7x4x5X/HDHin1fc9uL4+STpfX3Q8xhYk0AwYCpDPUQXyQWvn7/7il1RZZcVdj33lXlkdLEeIn9ZCdocMNxMx+yjj/RvHr8ySsUqKkpXPPoVx+hjdvS8r0lgGMrI7H3gwts3UUASU0GVopYIgPVvms/gs2PgHrBmAPAWfWbBMb19TYgkippqIoJVby7ShTr4uAsk/zMcTM+sg+fbm0DMkKGaYIPXGUJW9DwBlvsJeoxjyMpz4RkKU2SsBjlpPn1Wgd/2heR9huPpmLHj+A2ghjo0w+DP6TKi4+mwnE/QdRxDRo6P94EJ6lISLPYAXcwm8OsekHzPMIye2QZeJ2KoWxOMoo+Z0PMoWL4HvJpV4GVIEtSxKi6gzybwfUGub9iCMWbieT8gUJO6gSS4hC6TGLkTLN+7jp4Z//rZzcP6AzCtF4jiJros6HkPNMcTLPUDY1Zk5OwnD1kColonECm8RJ9F5Mzlofmd4WB6Zh2D84z8+d9DANX6gOJ30xgyoOexsPxO8WQdlEbvSff4poBJXSDBXlm9AMntBMvOZKwLksFFhkcHQq0uYLiRPoPIBatA87oE+9OzfqMPbLu0N0zqQdBvCkPt6Hk4CjmdJrilrsjoA7/aGaZ1gATH0WfyIBLN5QzJ2Z6xrsjoIq/qCqsDQevnDLWLjBcVYDmcYZnnGFj/wfHtVZBkB8MR9LUjA18eAMvdEmz4LV3sAIyOP22HJDtBz68ZMoiOUzaD5WwJdptDzw7q2XYQksxgOI8uA9Jz3h5IcrUEB/ro2WFD4ImwzBQDHWMW9IHDkeRoCQ7yMbADB8+TYFlB8Bp9JgyBw5HkZoa9Qgjs0NHzCCRZGc7MiiFwGJKczLDlAgZ28Bj9HrCMFBuRMRuGmA6F5WKKlafRs8MHzlwHmo2g+7cMGTHw5zWhOZig9S06NkDPr5aCZALFk/RZ0fOjnpD8y3AtHRuh44s9szJcRJcZHW+F5l6GfenZCFM+0w2CbBMcTJ8dPQ+G5VyCZScxNIKUz7RCkbFhO8aYXeBPK0DzLcPNdGyAjs+0QpG1YqBjHdDxrpzLsCMjG6Djs92gqIPfLawLBu4Oy7MEr9M3AMdnW6HIXrDs7Hp5zyD5lWE/Bnb8lM92g6IulphRH/QcDsutBIX36iSWrVnKZ1uhqI8lZzDUReDn3SB5lWE/emYfnGfZ4HyshePoblDUyVIzGb3zMTN6HgrLqwQv1oEPJOPsadNmB5LRx3Y5ju4GRb0sMX5+IBl8HbwNSD6l2IiMGfnAOG7UAest27v3skP2ufyzwOBjdY6jW6GoW+nVb939rvo8MviMYuTW0HzKcBUdM42e/vHtWlBlYYt7ivSxGsdnu0FR74WtHnT0MRM63gDLpQTdv2bIJDq+twUElqiIiFoigvVfpo+VUo5uhaKeRTRJRLDJG/Qxk8CpfSB5lGEHhphFDLykBWqCKsUU8tcYQznH57pBUf9iCjuXIWbBwN/D8qmr6JlhjH44zNBuNew5n6HE8bnuUHRMMwwrxpiF5w25lMA+YcggBv4JBUENpYDdizGSjs+1QtFRJcG+LsYMAie0QvInxRopYwaeZyJBjQs4koGOo7tD0YELOIEhg0iuC82fDAfRs/aej0JRc8PNXMjR3aDo0Ia76GtHzyNh+VOCK+lqF/nrKlkolvmWz3aDomMrBkxjrJ3jDXmU4L/0tfM8GwkyTDDi7a5QdPQEZ9DXzvMNQPImQZcvGWoWOb0/JAtgsZ4QdHjBElMZaxY4tUceNWAuY808b4IhWxFBAzRcTV+zyOJq0LxJsUHMIPB/MoOgMWzHGGsWuTUsbzLswshaR87qD8mqMQr6/MRQKwbunT8lGEZfs8AP0UkKXqOvmedwJPnT4Rl4PgztHAy309XM8bQ86kS6mjneAOscElyVyVl51KmZjOo8Ls7bTsjkps7C8K+87TD6mnk+Cu0cFHdlckoetX8GgR+j03yTvmaeh+VPhp0YaxY5Z0VoZyBYcgZDzQL3hOVNivUiY63ouR+sMzDsyhBrFckt8ydBv7mZ3NtZXE/P2rWtAs2fChMYahY5e2Vo4xP0+5mxZoGTukPyJgiepq8ZPa+ANb4EZ9Oz5p6vIIdOcAld7SIXDII2OsVqvzLWzvEaJPmTYV+G2tHzpUSksYniSXrW3vNQWP6kWGUhY+3oeRkSaWgJ/k7P2kf6gdD8CcC7DBnQ8xQk2rgkwREMMYPAMQVIDmW4iD6LGHgmJJHGJKY4gSEyQ89/w5BLbcUYM2D0vLs31KTxiBm6X8sQmWEM3DWfEhTGMWTB6Pjt/gpoYtpALVEA/2scXWSWgd8tBsmjYLiQLhPSR777p8XRcHvt+wqjZ7aOo2DIpRWDUsZsGDz584OnDh28SqNcedAOx98zlQye2UZyE2g+BcWT9BmR3pNkOr9hpiTpPbP2fAWCnNqwC0NmZPAusIEG5wOz9zwAlldB8BJ9diRjQ2U9Br5XgORWht0Y6qLTDRwGQ34tGE3/28PzdQhybMUmRcbfHJE7wPIsGK6k+63heD0Mubag93iG3xaB3y0Nybdg2JEh/paInnvBkHcbzqf7LeE4CobcW8RG0/12cHytKyT/gmKZL+h/K3hOWgGKPNwwZAbDb4PAeZvCkI8btpvH8FsgxOJuMOTlhqHz6Tu/wHQfGPLzBEPn0nV2ngv3RII83bDpj3SxU3OcuT0S5OsJVvqALnZe0XHc2kiQtxu638XgOyvv+WgfGPJ3VRwxlz50RsFzwSkQRR4vhjVeZvShswku8O11YIqc3iCHTWVwoTOJLnD6cQlMkNurYolLZjP6EDuHGHzkvJHLQA25vglWvHIGY3AhNroYXIicdc0qEBPk/KqCpU8dw8jgfYgNK3gfGDnxzP4QVTQB1YCW7a75OpKkd86HBuud85Ekv79xp1bAFE1CMQG6b/n3536MbNBx2ovnbrsYAFM0E80AoM96fzzn9tEfTZw8tS6nTK3HKV98+N+7zj14wz4AYImg2ShmgrLS0qNnw+zRIigrZoImpWiSmKDBiiWJCpqe0mCxyP+L/L/I/4v8v8j/TUARVVVppokZymuiDUVVtVkhBsD6rb3O4BW7AjBtIE1MU/TY77Yxs4ounfv1Y8f2h1jDaFlppZVWbq0X0aRUpQoRkQ4lIjmGYbERkxhZPnLWqAEwaQiKQfPa5nMHWD2YobJphRxbEmw9gdEXiz6SIS26yOl/QKMY7Ok5tB5UgF6bHXTiiBP2W7crYFImKRSsI2mhUMgrxHB8oHeBpF9QJBmdjxyVQBrCIEfHHevAINvfNZVlw8TLV4UKBPrg+G8ugHUUw/Cvx7zeG5JLGM6k9z7y8/N2XXuV1bc68fmUocj3ejQKT8+h2RkGPk/GUCZGLrigFQroJ+QdHekv5C9L5BOGY+iD53fDCigr2OB58o1eEHQehkPmM/XkrG8nfj+XdI6vLQ2FfkTe3JFGMP64eC5h2DqN0XH04lAzVdVEgXPe7ANF52H4M32RM68ZulxrofuKez6UxjZOWBqin5C3dKQ/kz/nEoIuH9N7PpzABBVNrIsoOg/DcDrHewZAUCrY9HPyhZ5AXmU4nj7wox5QVCsqgnaqqkr7RFVV2qeqKjUTVdV2KTaYT89TIWYiImqGXh88l0DaJyJSHyIieYagyxh6ui1gaKegajFBqZhUpYayatWZotREzMwUg6syRalaO4CXWOQZSBSVDUv2hqIdYgoAalJBzbQKM9MKagJALcktDNszeN4JQ5Yq0KXX2WzIUgKxSqJAl99ttMkaPQDVSqrAkutstkYrRAFAMagKMaDX2puttySgUo1hV6Z8CCaoVkQFUp0JUOjduwCIlau5AtKjTxeggBE5RYKL6CJ3qEK0nSWGvqe++Wtk/OXVY3pAy4li7avHLSDd9w8OFWg5Fd139IzI9KuLe65x67U3n98VgyuJYPuHpnrGGaP3UtEqFA8yFNeGonoRtMOw2MEPjZk0aeyjh/eFCSDY8aijdq2k+x1xzOYQQAzL/fONbyaPf+yAVvwlp1A8x5RTekAq1FKxxxRG+jQw8uudYCWCwoVFxuhcZOQzy0FLFMu/wMjgYuSYvzDwqx5VKHrfzciQOkY+tSS0gmCZH8nHoKhhVYbdv2YkycipB8AAxdPky5ASQZfvyBtggOHomYwkIz/sd1Q+IWj5nClfhqCsoO96g4dUHrzuqoBhBKMrRpKx6MmjYYCg+1P0aUqSvug5aSAUUAz6jq7oScYiU5dyfPdKCZb8gD71JFlM+cESkHKGHZjySCTZKE5lTMswDfwHFIpHyOcqFcaT/4FBcSF9ytLAcefkFT0nMeX90HKGP9GzcuA3XQXD6X3ggvdGf9jG4AMPgEHwINMQ+NMr//2SMTh+uzxE0O8buhDjxNFvzKELDJxYhWE00xA59sEnf2BM+UQ1x9FxY2gmhoPpHd89brttj36dzvEkmOIx8oVKLV+Q18IMpzD1/O9hW+9wxjiG+SGn6D2VKe+p5o90sSIjf+2HtWYzBN6+qkDXeojB88flkOBYusg5p/QFuuw6jiHloxDFA0wDxwxtAQZcy/bgeKaB0/ZNgMWvYnQcDiuT4BzG+ctnU8AKv9JzhKD0+DRw3iAkNSlg0DzGtuEQCFr+Qx9ziu5fMeVj1XlWjIGzVsCtdIF/h4hAcCmD4xVAr2/oOWcbqIig97sMgdsB2zAEvtMXIqL4B0N1i02g4+RVYQVB4XU6jmuFlLuM/GUpSBYtGMkiT0OSmFmCw5nyNhRq0oKbmfJgJGaWKG6jyynwLlN+ioqGgzh3Qdn5Cxk4c/E+v9LxKZgKxERfpeM3fbA/vefxaFFAChg0l463ALfSceHaKAigipeYVrEzdmEI3AtdgH4jxqbBOf4RVu58xnkDoFmg1/fk6zABADE8Sf60LGqCpX4gn0IiAGDo/zNzCRjupuOC1aFlgJ6rr1p2jWXOpOM07MQQuDMMpQn2pY/cCtcx5Xe9IChNcBtTTrQuE1jkHUhQmuAAuip2wTkscnwLdJObZjLGyLbnt4SWGE6m57oZbU7HI2Aom2A/ptytRkPpOAyGsgluzy2OpPc8FUmFyglGssj3cBJT/rQMpIxgxfl0PBQvs8iHoChrOIwpZy291AI6HgYro1hxIavYGXexyPuSQ98MDC5y2pWDUdGwO1MeBMvkUIawDrScYqW2yFNqdCxDuhq0nOH4nEKx0mx6TugOKSda1qTr5yzyZpzNIid0q6LHFKY8ER+yyP/AKu1Cz3TFlcnAXSoI+vxQ3UN0/OoL0gXGd4b3AVTLKX43O/K2jI4jZ65QSdD3R/KfNTqL/HUpSKVhOQUUd9F5no1CuYoJfs/gOQxnschvelaxxHQ6Hot3WORN1exNxwXLLR/o+fsqlpxR3QP0ZHSRs27d0iCmqCx4kfx1ALQ9JtUcS85ZqZolppN/K/N8pcLEMn8mZy1TzUH5xfopY4x7oiDVJOg1ho7f98XBdHRrQcsYNic998QjLPItaKXzmXJqj17TmfKvSMooNmaoYhdcTc8QOPaMfhBJTKsxHMo2jkTSDoUIKh1Az01h5RSDoueRZV6s1O3bMofQcz1opb/mFVBcyjRy7u6wRMqIJej+LEPKfwBDPB3/gZYyLRhJx3mr4Uw6hk2RlChaxzLlS8BrTPlBIlJSwMVMqzqEPvCNnVoBVVEzWCVB6+f0cQ8UpAo17NEPWmlI9Pw7knIFnEDHLcp8hLKKtYuhZGM6noSk0ujcQtDlNboY0z8bIGamEAz5gN5zTE8I3qXn7PWQmFmCrYt0fA4YnNLz1S6wUpxL73gycBpd4AgkZpZg0Bz6KnbCCjPp+IqgS8HMcMKLK0AqwPA/dJyzM8y0jJriGL6wGCpo8jH53ZKwEsNiY8kvuwE3kzMHQAEU8He28VpI1wnk2MVgJQVsFmNeAUW/L5gGz4/+tBRKu258wwJ6z3mbQg0H0wV+vwUEgh2mM3j+HgU8SBf4xBIQAH9nDJy0JLDUFAaGkwEIBo5nCFUMBUYxDXykFwSC41POOLylEhSXsi0WTy8AoqoQ9LmRRb6aVGjBKWzjAwq1RIFb2cZ/oAtOYRtPRWJJgjVnMOW1aMFZbOP1EE0SRd+P6XILKFYcQ+dD5C+v3j7quie/DIzesW13GAR4kmlg2z1/2uXQhxxjyrugilWn03tOvWSv3U77gCE4/hFm+BNdCHz9hN32vWYOHdux9Hd0gd+du+fuJ7/FkMZ0Y2gFiNzBouPHw5cTAMmaf53C1HEkKiTo9j6LfH4NiGDFJ1jk+N4wDHKR8/eDKAaPZXC8Fgl6T2CRD/SDCDb5lCHmF1As8TijTx3LxzT1nLY1DIBgiU+ZusDS4Bxf7wmBYdcinYss9c7zfCiguIjOeZZ6xwqOjjuigC1nM/WRpT6NPA6KanQkQzFyzsdPPPTMuDaGlGEEBPpxiSkGTmcbF4y+4rKn57LIeZtBobibxRjevvrix+Zw+iTyGphhq4UsctZjl171asrwtedPuQVU5IhpjDFtKy0GMt7XH4ZSxTIvMoa2tmJbW4h8tBcUgGGHaYxuYbHYVoz0p0MBQPG3yFBsK7a10b/iIr/ojiGenkNhhi0mMbqFxWJbMbLtUCiqFcW+kxhDZGkIkZ9sBRPoJ+RtMCg2mEQfSDJ4Tt8WBggGfEmXkozksAfJ62Aw7DKbLpBk4N0HkdPzC4hh8VM/dCwb+fOdm0EU5RV27NeMJCMnHKoiKDUs859ZjCTp/rsJDGUNW7/NSEbOP2Ibek7ohoEz58xMt4NBsfSoWYwk6Z8ZBEP1Yuh7+meBpZHFN/7QFQpA31gYr4UBimWum8tIRi64YzkYAChWep6RjBy7I55Iw5UwwLDms5Fk5KxzsG+c803f/AJiAht4yMW33HfnqNOH9gVUUVkU3Xc6+5b7bv779q1QQXkV9PvD5Xfe+5/jBwkMFQqwzc+69d7rjlkRe9HxI0NL//79B3QFABX0+8Pld9577UlDBIp2m6BlgyOvvP2+Wy/+0xoKNZQuNWBAH5SqYPlDR95999VHrARRlBXYlmffdu/IPVohSwwY0BulCtnwrFvv/ffh/SHdB/RfVpFnigmqNEP1hopigspqqKiGsqKAKMomOIFtfAGKatVQURU1FEOVYoJ2q6GiKiqqoqwYqlVFeRPkoKJJYqqWmKDdYompJSaoXpJE1RJFRcFK/xqFloKpJQU8wTb+Cyal5QBJElVLFDUWTRJTSxJFZRGRcoAmpmqJoGpLTBMTQESkHKCJqSUCiIjkHR1esdJj88lhSEqxbaTj3jA0twX9p7PIhX+EQLDVFHp+0wvS5IJhGH2I8cUzhp/+ZJEh5XEwNL0V59E7z9KQOt4HQRNc8efIUGxra2sLkTe2NMdg2PpVx1L3zh5QQVNcFDroyPMvPe+IwQYVNMtVUV4MzXS1JElMscj/i/y/yP//f/UAVlA4IGoTAADwaQCdASr0ARkBPnU6mUkko6KhJBbo2JAOiWVu/ELZcecysP0msKdS/sX7Hf1rnvdtu9HOHIN9Svbb9z/aPy1+bn+t9Qn3je4B/Cf5J+rPWL/r/oA/nf+l/cb3jPQV/bvUA/pH+j///tRf9T2GP3Q9gD9ofVu/437V/A/+237Y/AT+x//59gD0AP+t1j/Wb+j/jZ4Nf6D8euym+JezPMMkJ29exWVP6p/uPQCgKZOL/F8Bv6t/tPYA/jn9+9WX/I8Xf1n7Af83/u3ppetX9yf/t7in6xf/QWwhVEHwajDLx9QPg1GGXj6gfBqMMu/+BSU2unqWooNRhl4+oHwajDLx9NPWj/+uKACigldFrRPguh4oYVAeIMMvH1A+DUYZePp/1L2DXysClXQlM33sATe0+CV2Xrg1GGXj6gfBqMMVZxVtRpfnr4JNRaEVDVcxj/7Bb7Q+9FR+e7vU3Nqmw/jfmZePqB8Gowy8fIPKdCjMTWfW+44xfkUtZtOSLmD0PXPHkWyt4+oHwajDLx8dW+RscMFFm2QkH/sFRBpzWJh4gYJrfoVqoRsMrNh73TGVRB8Gowy8fT/7NuNbBat/UQpH/dQHUViK4PPlWkbwPg1GGXj6gfA632/6SMo1lEEXLm5V0KyPKvDcbbxgIk9OgRnwajDLx9QPgh4ZUVwHqdQbXzF9geMBEXduNxzQFUQfBqMMvH1AL9Jsjg8un1QKu3tXQt4nMoZmTU28F83NyXTvpZqB8Gowy8fUD4NRhl4+qZwz4NRhl4+oHwZwwpFMvyGFo3mZePqB8Gowy8fUDopAQiKoFMHF0noPGsxpbtQ2SeiggPf2/n8Vskui4zQBslTv7CuGjOD/DHjwOZCPFam+TFlIAiz/3fO23zhfR8EvbVxuN1JRB8Gowy1jYFeUOXAAXJmbc3K/dOsIQRTUZqnCr4POuyBol64bmMhej5n2AKiVZNKb3oMBF52OX0k9ukrDwmnIZUSIxzChuk4hUbqSiD4NRhltA7cj2+T4SM78QRO+yfPi78GbMPnD9byWTDuDo/CPl6xsWxiA27YeClrhmiNyjbxczqqHnSmG3TfTjP2Du71KE+oHwajDLx9QOnqI10GsBNBCqIPg1GGXj6gfBqMMvH1A+DMgAP7/p2QAAAb2AhBDk0pGkhp/zSS3EsslpgcRABg7hCdu8U1PPIZlbTekXD1HIzyq7k709oK08j4Wt5TlJJYGNE8QW/hw5OOdAATmgc11zXYcqCaDfzZKPBQdpFzqL1E9ZtjuWLpF/mKAZ4VCu+nv8mU8P8jhrZYff2MYh2aWWxjuwMajj0XQvSRhqHPEnjFkAy4GDDsfHD1sqYNhZRbRR74167q6P+dEe2T+KMovJ2P+0xHYWk+pocOfBKqcg4Hjnqbagi4+Jiz52gFQVwQdTowUs+Ji/LGfvQ7kgu6WlvqE9PaD+vFpNpAOVhk/Ij0RL4mFxs/K9YPXArIdZVZCI15OvY6sAUpHyuLV7IEmVSgJ0rSwh0oXj8B0N8UTNahTsWb8E5GntLC3IiYG54NLyxl47/rEMMIhVlKUaiuo5LtNeTrAAN5+YpBgrvqu+ebmde3vQhW+fdO2KZA2RBcL3VuGzfpruPkDGvC9RtC7qI5ucgR8QmNuFiMHmoktmN4/ZEiEdo0jmEF2DFweQiI4k2Xnz0hdu2nBhLx+nSVaQpmz0PjQvHO+fxfEEcc7usWOI1FE35wAOHDYOHrCPNqb5ByRJ8K0Ae2nveuM8CxmRXfsSe0PY56ux0AnV+YLK04T4W6NewhOy9KgJxjBhErE/oKOAGE0E7Svn48+oEU/G3b8Kdcv0Nbzta9bymjUTYSWtHB/TtCetPIp3Tvpiy2BQu0jPzD49Y8ceSv/WD9WnvNlDj04wJ0QVT/vGOvaGTIm7BzJDYOomKAWo3O5HH6vCsKfjmrdAU80BY8wcpnh+0A8V0u2kY6HHeE5StBtcxD+T8y3Hmx0/aCmlsI6BoYfbc+c8n2E/kHt4D/0mPfONTqc4MswxkO7rwfAwAccFaleBhptTGSjz2ejAi8x7qx/2tz/wmK9o9ExPYkch30lgj1zaolJtuahl4MtUFRITOZLRsvw9ygmWCUAc0kZ8bF7gnBQxnTr6IMM4bo2FSh+PUZ+yeWZKTV7b7m8G3AFJrOagKtKiOOqU0VubCEndXJqmmE27QCWNKLDmkVeKwEW3mvKkjwsOtZcKHPfIz1HJYBEiUKtcQY9BlrlR75PY3S/9bfe70pC2+x4q/Ph8WUfvv2+9rRMZfj8gdBshhtQbTXBqK8LvBbFFw6zPcDe9k4qEZ4ADe1F8bRY6A+rXHhoGb93o3FiAaDf9Y6mZFyWyP/cRVL3JGp3M/ldTLRwcbjmxaPrnFbOgleVvZQ+hYY1MVubCO+ILogSCrmrAkDbK5E3bc3DZfPlFAM+luwsXKFy546tyPcO6jq2uQm90jAUB/62pHbL0lo3levFbrFM6P32trq+dppaYGC8gU8Ow11N74KbST/cg88MDGYKyfAWSbqCjy3nMUGFJ5+7GeP71ywAbY9ttzaWJhAsAMy5SDnRvWIF4KhEC2yRvSbyAe49fpPS7C+gzRzz8F8gwGPqxhxe3YI/TCcgfbej2rD9MhTmj4MwkIkLgq2v+VBMuHGjXkiOaX98O4Z4Gfh6NvGQ6t7+AQs+rOQtXYy+3GC9KsviZlRClCthsVmY9vELOX8Bk6Hzk5ezoncnYRYKWBUWU3tkHjttdR8IfTfWWfJGwg+pnV7t+x7SaW6i2AsXa6el4J1ZDYNcEcybAx/1B/DORov4ehotMmIupzVO65BtXwhf0LbRMRm+ViTsneH5cIp0oOSP7U33rPRI17/rwykRun/Debe4ywNMeZ+WE/A/HSpkv7UwUmXBwnzCRbGKYcRONaI1pHlPxSy4yTyGlUEfqEFAAJXvTNQ8T//7pSJTB1da0tPnT226furwdUbTCXbqNwBVX2nBlAz73GScthQmBNKr2ae2YH4hDipb8Owdw8Th7KsIml4FkZrJrzn+5Aki5UW32UFiNx4+uRaQZnh2Nm9A9pby2XOBGVxFMjyWUsxWSYdCwxygtTKMj5t0CCZyo5zJOM/k6eA8cRvkpuXXqF/8NCaX8OG0F6C0gs0QGgtgSKEv4QQ/ozzsqKsALwz16QGUL9UkzENzqo8gw/vXU0Cm4XuW5STHTXOKXfnQG+T0C48o9GF70T+UkspXE79fGDrnjPx7dIdjrSBXwt4zwkq3pRRQ2OQAcYuiBX44p5EGec3HTdVoftld6RXwaj86RadeHT3orFlglb5fZO+dlE6M92oWz/gp5QxFonVTaOIioLX5Xw42HYXmWvnhDzb3shRbO5T4Xs5ez5dlhDQ0FMxydGVaYs+uHCPwcugmVICSJzCX2WvNRVMc/n4ZoLAIU6pxbaEAr0xA+VDjEKYmrbq74cRbYsEwDr+drWCeC/ZVPN6YN34ieDKUysq6Rtn6XAuC6Tvu1jqOLMDbuPLYjtda8xIg8aCxytdjpA3RzVBa0nw6DhZZ+OO9t0+2pOXRTJ8fLU4dTKdeYo14nGbK/Yzvf4U63obQoXUFbl4QuXenJKnOgcPg5wS/yUDdw5OLSBZRcUVlLwpoTr9Z8YbzZI9xrHJA7lb2LjEUq3hDx2/gmNMwEQq2GzUDWi25Cd0p127z8RC2PruK9+ccQ6ATtv9Qb+mOmbx5R1DxeM/El6WwS1H16AM40QrE+9CMMGG0JCMuTkILUKYa5up4w7jait8AKJ3AltsDB1wXs4OLocbHsGvsQE8L+1Y+veaFgj7Apv/uDPHM4HBA1D5oyR27Jc8uL6jwveddtbmTnE/pB8v0Gx9Lr+Qra/bmr65NuNdQMjLGcPhTppeG9BvujV3IBEa4+dxPIJvyRFR7OWOF+gAu5Q0xCkIgBzA0Rucq17qQIi9EDbjxPbf4xzQBQxx2IviISanx+zurbp61n+3Pi8cwgMhZkm6zBTtbLGmXf255CTP45xlqENfXpo75ysHQoeXpNW1+1D2PJJ1AAUs5ktw2DLuaed2dlloX8hxqvCm76VyKACfUPjq4KEGqxz/v3G0novxSATmXsgzV8ffoOWDnVuF9mhr9fY+wEo0d2RyEn+liOSOeuIeUG3igXwp5jSYJfJJrj0Cx9L01JcUAL5YXlTEEND/PkrHXcupA669AQxnzHLmGkC4NnejiDDYLqg4XCkRqIV4NNfhNG6KHN5v8LguiwNrKPkcTIEisUCgQ9HBBYqU/qJtEXA/mMJVZ8BhVIJcE7iUZfwJefVviXKnUh11Y0IYf+yjkclVV+GjpGLSAAAAADHAAA5rjtRhdEunRuE6q8b9F612DmVfi4lQJ+6pPq0AwUFZfKABn7FPjykLn8uHLuiaWSfP6dlQXU4H2nHg/HRxa/SOfrWhOVoI2venIcNwswwX8DS9LpIkf5Za/xMTctCaOgK/lyA5BpJjvvZ808bjnO9kS+38YCn0tMiCNLkc5b62XEQ11iK+mhXKRB2zRZ6jOG5C5pc+R+3Dnee/Jk5dlBGRHvBjzjkbeRWWJqYAlKzn3Xpsq8h/crHf1ZL7Nx00xKaYktiYTMAij8+7MhViudZVcAmAWiWt7YEa5rnn3yX9nWDHbfOO+EHPtxMnTjwnvmPJhTb9GhcUPXHJjys/M6ZILo1d6vS3iFCybL2RqgTG3/KqxJfXBTQeHYM5erLiy95XdbqsjcZe8lc1OLLZlXbHblTC2vpQRQ7btPtmzUgVaxVewWnRbS63ir/VQcPzgoNRa9yIrP+sahABYckxoAOxC7iYUFDb9CZpg4dt9cs2E9crxaNJeYL4AABwF3tN7rQnrg/hj0EUPrGyb8/rFG3WGYNHNCeHRGAdEwz4xQ2mk8nvBDWO3Ta/0vU+INSLRA5bUPVUYaj9pG6BpoJbS6lbyVvGWvhN209I3itIxKlGpxNcLNC0HZUZfB8+t1n7Y+GoY+lilwVy9NViPJv4lVbcRon6wkyicdWwR3IbxJFrIfjx3UoivR1/N5tA114AhrlrcmGct51V5YIzr0E2WKyC6clRO1T0ZslOt49wZg4F5DyeJCn1IOdNlDQX4vWrG2KHnKkVxDYHFtBq+8ssk9VzXdIRIRDNrYa0zzTsM942Gn3R3KBns/qTcEus0oTcplGO1ScOQO1TQC7/q1AesG2CDACR44CL/9ssH7DBUHrYb87WX13L0Ljk4YkgwqEMdyre6rw/KT8o+B9Ke3Iv99HJJHrhEJCUZBI2TTLpZlCkZyobGX6dKZ4vcABFn4iCqNWZ0kRNLpKBErcpzGVCTjCSKftOFFNXclS0XD1VhnEwmk7rWpZR+8toeKSjoEogAsPIbWy+xtyvvf9OSYnWF8DjlfHu2pbf/J9RhGoeaNACGSKVuANWEAbc3JPaFmgDZKvvr7SYGiiG3SbvqQH1045b04ZRdcgTLF1Ym/4gHPtCPAITNLPmlP2fvC/Gt/RVQKYtjUFIXeS31jEoy33mJtqXnrSm5mc9oYwwrF9wSziRzvoH7WkdofSE4dzoS3XxzQpVtSx8d9A1EYVeQEU0N1m8Rz6jzUhjUyiGIfU34jQAW/YHp4vFWiotQluK01n0xvgtc75ne1iYZsz3O1BvWB0a1tBQ1McDD4A++fSHnHfwa9pzD8o5gjmyFRVeXCEYIxjaH+/IW0oxONjHM4tVWcxSE4bec5qufkKutjdeYXmKQL4VlRhIZZCP9AkdxT3mEsG09RT532v3wvu00AQn89A618H7wJmVO1ITiUq1stL/3a9k3hmOb48sSG8gbUkW0GTvlOzNl3OH7EMZ6W2bhrGKewkvWUGDq2m4dFhzM+mxvSmqu2Vyh/y+alOGwlltuPWs10pd1z/mXSXe0i683NbEMYdLEsigk80o5bSWj45NZlKQSQxTsmCC9Lo6JpM69nGfs4snveQw29Xwn3qmg/Tln6wvj9aWFQh8p9gC69t/VE6Ov3KsA6XzO+9ErsNMBjP8ET/ACZIyIcpl0G4WIDMCtn8LFsotTPz+uLpltNCFozy6kJtCforxBNtkL6WHrJeBg8n8d41CLQieVHp1WiSu69pW1jDJKA/uBP4nBOVOgMccH1s7XfzdndH+VR3y7OHEi3iP+1yFwZbWLqxLmeyjgJrf507qNDPpBTaaZZBY8xYWvKnUYEv3uuAT9wA3mnIjbe/V1zDYrplpfrWVuHX5hlfU6Rkr+QLoL/afw+SL0Mb/90/Gv2AGxzugx01HzkDZHsUwJDNycP9WBYwjs8noiDyBgBYE6h1lT/R38Uvm4e9KtyPR5H1sH+AEJkLgP2xcO1q3ipvHn2VQIPwmCoGevq9LOGZH+LbteMa+Tjh3aebF9UviYHy7c/phNJRn7/hDHtfpPS6GjtzPJUg9mG/ttp1hZAIAJ5VKXo7BpyB/L8kmrVwx0V9qK0ZY0CiUM5UjZmvixehafs2YIG6U49XxXxM9UitMNb1U0pI3TxQSfUdlA65jM7aerwG+JEwbgMBpgDbTi18ID66s1H3AxgRAmtSvakrJ4LXnFpCDyx9VxmOemqwfl5cwXsJMYC1uQ3RgKawtV2w1NYSOS0ErL/p9LN9h2uZPniWfHgAG76DTQtAAAAAAAAAAAAEVYSUa6AAAARXhpZgAASUkqAAgAAAAGABIBAwABAAAAAQAAABoBBQABAAAAVgAAABsBBQABAAAAXgAAACgBAwABAAAAAgAAABMCAwABAAAAAQAAAGmHBAABAAAAZgAAAAAAAABIAAAAAQAAAEgAAAABAAAABgAAkAcABAAAADAyMTABkQcABAAAAAECAwAAoAcABAAAADAxMDABoAMAAQAAAP//AAACoAQAAQAAAPQBAAADoAQAAQAAABkBAAAAAAAA;" parent="1" vertex="1">
          <mxGeometry x="254" y="808.9" width="107" height="61.82" as="geometry" />
        </mxCell>
        <mxCell id="44" value="" style="shape=image;verticalLabelPosition=bottom;labelBackgroundColor=default;verticalAlign=top;aspect=fixed;imageAspect=0;image=data:image/webp,UklGRqwaAABXRUJQVlA4WAoAAAAYAAAA8wEATAEAQUxQSO4MAAAB8Idt2/Im2vYdqaS0tLTF3RnDXW7B3aUw7oON4G7jjrtDx10YxpAR3N0Jrm0JbSlNJcn+B8d5Xed5XmnuXvcjiYgJoJD/Q/4P+T/k/5D/Q/4P+T/k/5D/Q/4P+T/k/5D//9+rDz1gw3XaGWa/Dc5/luz2iPm44rTbEjcCY8hmr3kCSI+32f6VAuBNsteH5gHwlLHVwt/FvYuId06xw+J+xL3emoL++bXtr+rHwH5Gwu+xwfZqdRN8I0HxHKC7zfWIB/yvJBwO4EyUneV4FeK2oh0AMMbGiv0O4t0krOm/J7OcbVVhHwz2E70Gdrld1eI6DJ4KE53mfE3tqcc8MPoCCVtBuMVhQzle9cPo9SKiJSI8Yj8V+QTGx5HQmWbgclG7qfxuGM+IF/WD0ddspvoXYfJtEn9rKLuqrdT/LkzmlBMl5hjCF3bSCB/MLibxUJhsbRtFrYVpby0D28wcCLeJSvwF81+QuIbfDIbYQ3XOQ2JjAzNg+lZxO6hzOiT+TgZPmcNsG2hwPmS2N9ASEvPr2D0RCyD1gMPAIhnYYPMU3wS5A0jsTJWCHrZOzROQ6wo30Adyz0bZOB3ckDyYDH4jCePsmxfyIPlGEQOJObIyy9k04XMhfSIZHALpKwNQ63f5pMIs5y+QnhFvZIs8X+PA8xf465GFWGMh/10yWNUvD9sdgaaaX4DehVel0+XllDcyHSofDTRvQvxD4dVyyF9KRk8quVI0sIRdNJBfvrCqgVeer5aRFlD7emDpDKMTCqv+hPwvyehCRZ6qAeVzQ6cchVODoLC5kchURfgqkBT3GMI/C6WiLyjYSEZ7QXmbAPIi2OPc6kKpaVDYydBX6g6GB4693BNcVlwhVMUsBfvIaIJHHYYGjPpgMyPTGTxfCPUJFA40NBga3ioRKOZwv9Hn3PbCp5Z+Ba4IQ1t0wJwA4UzhRtAgDg8VNoXthsKhZLSaX4u8hwJDP7D5ZSjuLvdhYdMzUHgz2tA06LkxMPzE/UREn3I3IwuX4q6pmESGT2qCXoGgbD43iIi6cuhbuPQOFGYmGGoGXc84A8AEsBnRRBRxnVtXqFQ9R8X7ZHi+NhgfAE5wK+nemVx++SDJWbP9oKSkpNZlgptvoTCnvKHIFH0yylquFfg2TAMOk2SVqq5hNVHp6mwFzRKrs1UExYb+cM3tyzz/YzcZjd7e54PwzPx/BC/toHIFGe4JjVdZbjl3IYyhw9xph6Rl0DBHtBbsHml73ey3Zl4Fm8ZEjsuEcJ4px8BdMLuvb5ASfliF735jX+rka2qxohncW8SP4/BvSUu1WsPtlXYG7O8qSv4Fg6aa74bMTVWDkmFQ+Q0ZTvDohO0Oaz0J/kFBBS+3RtJiHZYFjpLHIC18ej7kpvcIQhJTlTQz9jz0fsxaf3K7SbyByyomZ6EGx2NEq7l9lonaBWlFvod07zPBx1yo3EzGP9HsSlEr1fBzLxt4gsNgOQvUeeqTeJWqs8rmQlrMn1Do7R9sPJinpLOJClf1wptWegNsXikDsVncTjnz1L1C5vZb4za18HO+q64UE5HrIU5dklSvbGLFJi9vEeHOg0HGr1B5wGGCmmTr5alqnbBL3DoymsyhtpQS1Q3XbmxwsOAnh5GVqlxq7tB2APAsbR1JRCUf32ZkNoS3hkeTuMkOAfaEBxU9oPQRMp3k1wpfWacT+IGGOgpmSpEed5q7VookHLCGpyUAbKhE4lKi1j7BptJkOHy2AEOCCecpJa5wczRdL7SxzGfc7SKGwq9wKU6N1oL1dSTDK1SdU5P/MYBlYSQx9hz4z51k9n3BJWcQMQZKh5NEx2d6HQy3SKKHW07G3+XQX5/Hwb9HxpdzB63hzwV+dpDM6eB/c5Lp8G0cnggeSqcruRktg6J3aoUhFhkO/t8mHhKs16ZmJrc7MoAAyCxLMmPTuMuJJLGlYHPwsBxKp5Dccpe0Skmwxh7unMME7eG8FTRx7gabWZNMLuMOSTuvbApJHQu+E0ndyPlKBQsNfUoyEyVRwyydMMsS9cC/QWZf5jBFk/fBP0mBJS1GiuMSt57k9uTwWJDg+AtKPyTpfX065d1vhdmC+0yVzOXOOrTo5OM+IdNLucPSLqiaSVJbgm8uKcbDLQoSBkJpbgV5NEknrLeAM4XbSea/59BGhzI3wLqKmVtisQflzOQOkOzfuN3BQfQFNStJZbJO6KpfP/DDJfQTJGvg+BVsXnOSdsQip0jueW6GtHe4tOBgGpT6HlAStU2nE5HareNyS0hwpnF349WNAT+JJC7ijkq7qGi2nArg20h7hfNHBQMVs9R8R2pLn9cII3Url899RzIXcBiqrEkutylMxkLumEUeltONy4mWlsShSjDwMdS2UER1MzW6XUqz8eD7SWkm2K0q7gzY1AokcwF3XNolRXXlTObS3pX+laBFENDSr+ZPUt7Dqw+WaHaCuxUlhU5wqKsoGay/F0mdx52wSLycjzkNOxd8jl1Q21UdjdXIW1+rluDXJiY6ZUwSzFbzOPgFJHcud9IisXLWadOl4Hsaag85NKCl+mCLQ6dlAtVpUSpqZHBHoyXN4U5Ju6IoRs4f2nQt8GKvKnqUdHT+pQ/6axSToQmSFDj3gM2uQ5Jnc6elXVZURM5ubboVeG9B7bkILaikS59zRfR5Arr+ouAD8MNJ9kzujLQrkmYInHIOa9O5oKvmUfQSafpQujaYrM9mbbyVpHX2c987pH3InbVIhJxtXMbevZs2qG1Y0H0NtSkxulAXrzZ3yutSza8NpsoqcwPslRIk/QPOJe2qpOmCMDnruU0U5LaB4mmk78vaIFmX16CvyyHH8StYX1uS/x53XrNpApL7CbcryAk/qOhOcY1okTb+5nqEXeC8LpU5HNrJGQv+bVL4LnfdGl5JC7iLQc4QKJ5FOkf8rgt2OLToAP57UjlX8LGUJrnczkgVb3Pp0q5JmsrlSRrD+WODmoQURbmVtKKEE7rgCS0+FSQpaSjITpAQdwZsRnVSOY3LkxWepSZHUlcO7YKaWVC8mjSvmabLlVgNErK5jGgldJDDMAnJ4B8npaM5VJbUFJKmcNmSKgreCWbuz1Pkf1A3ap2rCd7UYBj4VaR2lGCvuSfAJ5PapwQ9Jb0qazKXJYnOcOccQcxPUPw96f+sLp5q6nYL2isqncehvpmamdzZOEX/Frwu6YiiTFlLOXQKXrpCdUsL0Pua4CtldcBfDVdE3wvmmnDuAZvXjBQn+rmDctpD1iQuQ1ZXwdagJfK4qr/IimE/aII2qmYKZpLqPoK0KGMfgp9Iyk9zuF/KZlXpssKvcXg0WBkB1d0tQbEHNDkYribypqCRMmcKh4GGOvu5TWHqPhGskfEYpE1URG8KUirIi3YUZCXdqg47rEGVruuBIWr6gD9O6ucIfjNS5gbY1PKk/lGBt4m5+93yJqgqkcFhZ5ysZkeLFGSLoPpxsmqzbD1SEpT8IJiiQQOBr7Io7Few/l6kYdE7HC6UNFPxNJTdlkbTBdhdTUqxmV7EF2B1vaouRFiGBvm1wCwVZfM5fzUN6ACH6aKx4BeQlqsFOFrFWIsrAPzZksYrizoiQPoz4aYSX3UDKFOAbYLql8nCM/TIu1/BWPBbSceRgvNhXNNczjNisPx2RmrkCpAxKk5UdaEXABYdV+OWR409AuD4U/FG4pK+8eDeigVXX6hOjbGS4zMtsF7BMcFwLUrlcejAxJ2Bhh8boVkiIOOrEY/16PnE+E35uPdi3CFJ49TRQL8IyPnlnSeTkpKem7zssBfCgivKpWw6WbrIDi3QVVoL8HkltaDvBJ8yH0G32EMGzN5tTnskjdWAhvkMyK1QYE2E6qwS1qKyF7U4ESlriWAd6dlb4EkkoiehHVW5ISm3N9F2NbeUUFK2khuJBVW5TGWzyer17+iAUZKi0wUPaxJ5k8OLRCUyLUD3H5dyuy3JG6MF1T4gL/udBCqoV0N1XmXLUU+fDrdLyXkM/J0YTWi2YB9RDViB4pJ95n6vSlYj5+g0OelzK1KBXeLzL7/88pcNKl+jADhOByyRM/uky3XL7XYvI13ru91ud6rL5apF1dx6LjVDVPfrXGNbejvo3t/c7LdmnnW5Lrjd7rOqiOJHHDHl+fW5ovSfa8l2I5bvztLCW19KwVxswJJNF7yA5/Qv4+pQ4Hzw5S/2p+YA+e7Lx76c1i2G/kONrJ306joXNN7iCBYKbct3GJG8Nwfa97dt4v85eO7WTFj0Yoz9Elk76dV1Lj8sPcVWKd9hRPLeHATAu5XskfjGT87dkIrAudbuiKyd9Oo6lx8B1v9P+6J8hxHJez0IzHvDbIj4xk/O3ZCKgP6ErRBRO+nVL4/5EfivF7MJIh4a+NYPJ10BO8VtdoJNEPJ/yP8h/4f8H/J/yP8h/4f8H/J/yP8h/4f8H/L///sRVlA4INYMAAAwWQCdASr0AU0BPnU6mUmkoyIhIXG5CJAOiWVu/GQUJDQOXL8zxACgAPwA/QBPPQG/Zvyi/m3kkSm6V+TX5pfM1T/59/Pf7B/kf7F+3vw5/gHdPzl9M3xW+Qfmf+N/rv5ae7X+M+wD7jPcA/iH8o/Yb1VfUx/CvQB+uP/U/v3vY/3f9T/cB+yH7JfAB/Lv75///aa/1HsAf2P/vewB+2v//9lL/S/tV/5/kN/b790Pao//v/M9wD0AP/P1p/Y7+Z/gb+AH5p2ALmWut9gMoJwCmBPmeupeifskHTzXVho6k5O6IdScndEOpOTuiHUnJ3RDqTk7oh1Jyd0Q6k5O6IdScndEOpOTuiHUnJ3RDqTk7oh1Jyd0Q6k5O6IdScndEOpOTuiHUnJ3RDqTk7oh1Jyd0Q6k5O6HJXyc7sQ6k5O6IdScndEOWxBkyJV/PCFxb3Yh1Jyd0Q6k5O52x2oB3xcOHKI3fk53Yh1Jyd0Q6k5O52xxf8+fClxCwETRvBJ6Tk53Yh1Jyd0Q5fTlvReQqiY/hdwXPesztYsCAjwp2d+/Ho01odGF3pdM0zWCei6EOpAj3odZ30g1eDL3SVsMea4E2yWPLjgOSUuRef/Cz6AFhbkn65x9CV1d6EBjapdfLiqahmI4AWvQFraf48pUjoss36Bpz/dhxeg0vik6yrTN1LlcySmqA5Wn7VTC3JovtJAhT8iCXv8rsRmfifW+BjxGRbT/HVzXio9dj350pb3XZtmmClj+g/byebd/ffdNyzbayyBFqkxE84cP59wFjLn9VGCXAV0dc8SynWRYTcc9+xQS0+zXVhJPy8m7tZNSzawPqw0dScudrDR1Jyd0Q6k5O6IdScndEOpOTuiHUnJ3RDqTk7oh1Jyd0Q6k5O6IdScndEOpOTuiHUnJ3RDqTk7oh1Jyd0Q6k5O6IdScndEOpOTuiHUnJ3RDqTk7oh1Jyd0NwAD+/C2QAAAAAAAAAAAD58DDv/78J7Wy6D7b3tANg8blJUMMDT9FOKZ1OoAQPzLz/9lP/9j+//3uCX9J+hDnanimrIh7H9ARot8XAS9emNu6Fl+uy3/XZT0zsnf8Sfbmu5t4B9RemMN5M2efYL1QLUn80Orglvp3I3vTpsKNw0rkZnRcEDaZau+T73D6wdF+YYitaRPoao2oLxg4/yjhgAMMPlB50KnTrRex120kyP71ooyEYB4+znBGL9jkcKGfVPwTw/7RcQyhlHYw7nJNqbmklgPPQXjB+HUlq48TmdAx8Ny+sPkwV2NFFpAVbNmqNf43iUEOZ43C/o5OEHz3AV4+jcozxIf+yvmUoKt6FaEp0B8Pg3ioo6zbnURIBlmvSznIlAXLsmZQGGLwuII7jyf7fIVvKcn07Y8A0z27rJPDuxfo9IjCHGxp89u0i1Hl4vbUXASsUqdvKlt/ID+5wztJxn2nLYysf0lS4HiqTcYE24JximdYLU3Wj9AiDuQQOM+tLDZUb3u0QMhjR/xeUKsISgwyLA/iHtFpk7//fOlgAPeDmxP+mdJ78dgsoCZcQdFKR+xj0M5QpRMjAZqpBjDMldsilpXPSXhNGtVCxOMdj4/Dgpu8m/+iH+DneoIGkcfWtxTScz1MHc1+Dmh7zG2qIUFub0sOZCe8AfmelXAzvOZonNZcqUw8iuwAW+1IrNczMirYCe2jsW5/m7ciglRjIbIlGhk35qIQbXrz5q9zxZfaKTlKE8SOiCP+LB4hYZ+sZqHJCPC1r+4CFavOolxCTzS9VkoVdsijie4vmEW/iIas8FCrcrC1c6PyPF4KrnjMmeIABLy0pWL0y60jTjU49mnTYD6TCT/6wTjaF5oP7GJv+Izr6TRS2gvoMCwTMocmA6jEwr4E8dEZ7551NOthWBO4bOkLPdoPhOLc/F6cXZMyo4KyDH3O/S4khjfg2YUoV2tQ6857JbPlhhDKTZfc7a/Ok+8qq++0KQMaYit+6z/JlFOb0m6nM+s53frM340mz+nCO42IL+xgNXe5pw3VZGNcZgkY1Ac7OcpNDXxwRVD5lgzE2oQKXNGqF1W0mJEeixjEN8pS6zl9ueJNEXMaotRVfZDN7AL2jtStBcpS6zmU6Gnebdef8gGMSB97iLQ2US2LFKGEVV3SyEGnvyYbr//3znRazhNr8rwKJ+HhJvTi92cQg7724z9oawQxTDSWRWMJDPYgv7GA1d7lXTr513BTUDNRL+QCRZyvWF8xy5jPu+cPgWl/vCNcuCqVHVKd/qvQvxUobbhEyeyTma3ciHEeiXU4zlKdUw/gvdpf+Fc9IgEqDTBnAWSJremWaNZss69oz+wbA01wmHAdMAwXey3t5OsrUOKzv/pmYkAUoAjGbm+ESxMFnwiULgtcNcSAXkY7ougsu+b3ObBI0I7qlLwRvZPI0r33yTeFn2AbF/Xfbf0QIG1adtEZGky/+9ZD+hzxK+2k79l5uijzSWcVWm/u+enstfF4jxJHbAdUf5ncyFCfUpGQPVTg9bXVJqAy7xZDSHAtYXBRE2xvK7+UAhU2D9hsfJ4lH69GaSaRVgfUWiAcAWzC2Y1nRfa4xD/74aMFVO5fXTZDxXAMrsh7zfcXWJxaPgCKWNOv1f+6wvFlHcKDjNjhaHZWKHzboV8nnjZJ+aluNGUcM+zV36pWcr9KXykqwgjAlCXjjcXIvh9xeIAIGAgARtkAWFbgf2FErEGYFjmifR4UvZ7wBJVL7Ic9YeGiL6Gqe9Mk0xyIFnkHpXU4esmBfGDAvzdl5e1hV+PaTyrPHb1+0cJ5fCh0i29MVtKn76UGUZ3SzgcV1rqiqxiVwCToBmBDN6ULeXeHOq+LBgiyr+iCoWX/H4jbI0rG8hOn77njAoflFYyZHr52VxPMn/rorf0APr9FO9/uZstiwBvDIVaJhGzIP+1ARRGio/WfhqKpPe5AkTo2TmfyaIviV8/u4yMPJFa1QyO07ODVJvW7vLuRcOYKtffudlcrLBiZBEtvS9QR85wKwxHXbisgT0LuyyTjTa1elKumugk6voqHYF3KUGllNyC/tVL6KoVxUcU3ikegXMJPIKh51xui8BeiuRNFiimMHU1PFhDQp0FugZXPV845LLBQarUDx7ayf6Mdj4s5mw+zQt6aq1yJ3qCGOf6d8LryeJVmG9HC98XmlSyTF8FuK44YDSbGLIx8fH4fzz7Jc+MLTXwb5wb4sC8Lm12bgKpwnwfXhkzs7yP688CABqIW4HJBT7VEIg89SGmD8J5Edzbw7m6jG3AAeYFGNOwJh6YTWzO0dFuezNqjCVYeeSMTyz/t2aYuz+jQiusko1y5Peyv2NrBMM0msoO3Bxf/FLiVLZ+UHYfvcRaGzd0sWhGP8nuqRGEONjT54DOYBbYCm5LE0Jb0kRA8MB8/JEqqZZqk4DNiwIckoBhJEEC/Jl+WQOrKg/8ntJtdHrQdqhZsFM1z2bIcVlRmAm/tS0wksc98MMrn/FAr77t5qVN7dQrF5ldsikynLF/rC8IDOo1ozRruwheDhVqWOlso5Z2fqPve8fZgcQK85qFf2krb2dPHkiGaaJi023nUI6R1rJ+vvClnOkHkkF30nF602PUorRna4o7T1BNtm5vufCModWMbvlaKiVNyCVCMCtcyqAVEseSldI7wcllatrqwBJOZ6vrhETml8bow5Xs2pFDAlg1dxW45boYEGb/EZ5VsLTAJlGiAcpl4xR/h3mM68K5Q8gCLiy/ERC/QYIhc4FxwmlVv1ra+gH8ADoO0nBE6kIosj33VxP1nMGryxkj/iV0o7M0GBFWJbBVmIdx1hpKYsOUpQ3HxRg9szCBYrriFXeqodQEXxxMQMqMFwf9wQBrAiZcmnU5199+e/mTtqbArXPgnE/Y3AXLD/Z5BRP+eCOe11xE1/YHtIof/0YHsiWDjZm/u3Lvg8qL0A8tLqX6P+h8+kvggez+C8E57zVzxNDGDtYDLH8mh+sXLPwBQtBiyPWiWtpDjuteZ93t9+0Py0hl3DzO0adbSoBAMm2t+f/ZtEMu9m8JUnwGZvoIMY8ABOiAB6yLsi5VFV9fBBUoe6mNb+5r/ImN2DnL510CDdbm69849Yy23Sv+Q/MSposox2ybWTcTExBt9tXlqrGF3I0J0UnPxxErIE1WkqQ7mkDLY0wxVFmhRJGC4LpAADijwazQWzS8k1zdzrlSjHD589wa5fc7luQIgXv78f5Xnl80vjasb1q+NAXm73ff7sGqh8ofwuK9CfqEazr2/h+OQz8qGbzTil7PRVHDmzqoFGKY9fwmlYR+WDjTObIEuonqmMCkKTgYUv9ouL/YxBzAgZNiviUJw0e6E2injesG9px7fRUgy7fNhsIdMQeTs579Kow++QaIAAAAAAAAAAAAAAAAAAAAAAAAARVhJRroAAABFeGlmAABJSSoACAAAAAYAEgEDAAEAAAABAAAAGgEFAAEAAABWAAAAGwEFAAEAAABeAAAAKAEDAAEAAAACAAAAEwIDAAEAAAABAAAAaYcEAAEAAABmAAAAAAAAAEgAAAABAAAASAAAAAEAAAAGAACQBwAEAAAAMDIxMAGRBwAEAAAAAQIDAACgBwAEAAAAMDEwMAGgAwABAAAA//8AAAKgBAABAAAA9AEAAAOgBAABAAAATQEAAAAAAAA=;" parent="1" vertex="1">
          <mxGeometry x="166" y="808.6000000000001" width="100" height="55.599999999999994" as="geometry" />
        </mxCell>
        <mxCell id="45" style="edgeStyle=orthogonalEdgeStyle;html=1;curved=1;" parent="1" source="ei1fRvyxPQEVMclzIhYJ-11" target="44" edge="1">
          <mxGeometry relative="1" as="geometry" />
        </mxCell>
        <mxCell id="46" style="edgeStyle=orthogonalEdgeStyle;html=1;entryX=0.5;entryY=0;entryDx=0;entryDy=0;curved=1;" parent="1" source="ei1fRvyxPQEVMclzIhYJ-11" target="41" edge="1">
          <mxGeometry relative="1" as="geometry" />
        </mxCell>
        <mxCell id="47" style="edgeStyle=orthogonalEdgeStyle;html=1;entryX=0.5;entryY=0;entryDx=0;entryDy=0;curved=1;" parent="1" source="ei1fRvyxPQEVMclzIhYJ-11" target="43" edge="1">
          <mxGeometry relative="1" as="geometry" />
        </mxCell>
        <mxCell id="57" style="edgeStyle=orthogonalEdgeStyle;html=1;entryX=0.5;entryY=0;entryDx=0;entryDy=0;curved=1;" parent="1" source="51" target="ei1fRvyxPQEVMclzIhYJ-7" edge="1">
          <mxGeometry relative="1" as="geometry">
            <Array as="points">
              <mxPoint x="174" y="230" />
              <mxPoint x="305" y="230" />
            </Array>
          </mxGeometry>
        </mxCell>
        <mxCell id="51" value="GitLab" style="shape=rect;fillColor=#EE5396;aspect=fixed;resizable=0;labelPosition=center;verticalLabelPosition=bottom;align=center;verticalAlign=top;strokeColor=none;fontSize=14;" parent="1" vertex="1">
          <mxGeometry x="150" y="171" width="48" height="48" as="geometry" />
        </mxCell>
        <mxCell id="52" value="" style="fillColor=#ffffff;strokeColor=none;dashed=0;outlineConnect=0;html=1;labelPosition=center;verticalLabelPosition=bottom;verticalAlign=top;part=1;movable=0;resizable=0;rotatable=0;shape=mxgraph.ibm_cloud.logo--gitlab" parent="51" vertex="1">
          <mxGeometry width="24" height="24" relative="1" as="geometry">
            <mxPoint x="12" y="12" as="offset" />
          </mxGeometry>
        </mxCell>
        <mxCell id="56" style="edgeStyle=orthogonalEdgeStyle;html=1;curved=1;" parent="1" source="53" target="ei1fRvyxPQEVMclzIhYJ-7" edge="1">
          <mxGeometry relative="1" as="geometry">
            <Array as="points">
              <mxPoint x="87" y="270" />
              <mxPoint x="305" y="270" />
            </Array>
          </mxGeometry>
        </mxCell>
        <mxCell id="58" value="GitOps /&amp;nbsp;&lt;span style=&quot;color: rgb(0, 0, 0);&quot;&gt;WebHook&lt;/span&gt;" style="edgeLabel;html=1;align=center;verticalAlign=middle;resizable=0;points=[];" parent="56" vertex="1" connectable="0">
          <mxGeometry x="-0.2048" relative="1" as="geometry">
            <mxPoint x="19" y="-2" as="offset" />
          </mxGeometry>
        </mxCell>
        <mxCell id="53" value="GitHub" style="dashed=0;outlineConnect=0;html=1;align=center;labelPosition=center;verticalLabelPosition=bottom;verticalAlign=top;shape=mxgraph.weblogos.github" parent="1" vertex="1">
          <mxGeometry x="60" y="170" width="55" height="52" as="geometry" />
        </mxCell>
        <mxCell id="49" value="VMWARE vSPHERE" style="shadow=0;dashed=0;html=1;strokeColor=none;fillColor=#EF8F21;labelPosition=center;verticalLabelPosition=bottom;verticalAlign=top;align=center;outlineConnect=0;shape=mxgraph.veeam.vsphere" parent="1" vertex="1">
          <mxGeometry x="95.2" y="707.6" width="44.8" height="44.8" as="geometry" />
        </mxCell>
        <mxCell id="50" style="edgeStyle=none;html=1;" parent="1" source="ei1fRvyxPQEVMclzIhYJ-11" target="49" edge="1">
          <mxGeometry relative="1" as="geometry" />
        </mxCell>
        <mxCell id="66" value="" style="shape=image;verticalLabelPosition=bottom;labelBackgroundColor=default;verticalAlign=top;aspect=fixed;imageAspect=0;image=data:image/webp,UklGRoYQAABXRUJQVlA4WAoAAAAYAAAA3wEA7wAAQUxQSMEKAAABHAVt2zAtf9p3QxARE4CX9ILxwlZLSsz2r42jL44mhahRR5FGW2ZmZmbIMVcv57bycXnXx5xW8jFXq6fpkZmZmdtIWSoMaRRpJm3kb8ED+ftfr39LiYgJoIZs26tGejVOkTAikYQpbhGmzwgBlylhWsCwPVt1SwYhZApsE7adLdOFLNN7MQQCQpDZXgJB3BIhbBO2ui0wTYJTEBxEXCGc8/7wfO/3fR495mdETADq/q/7v+7/evMN8fqqkBau79lmxYWLvLdFusg946WLFSclXOTPOUO4yGvLpYte8xjhIsv2QOEiS6Z0kSdmSRc9t0m4yLbPE8JFPtwuXeSR6dLFN05KuMgWKy5c5LVV0kXuGSNdLOeTwkX+bMaEi7y0VLroucOEiyzbCeEin2Slizw6S7rYnTeEi0z8M8x4BxgR3zkzprkJe7ZHfEVeWqqzlFNh9EfPbdKVkfuFlACybCe0tOoq/ywC5JOsfkbv9igJ5NFZehlkd7FHMWC1kNZHzCyxl3JAtllxTcw5yV5LAvlwiw7ecz3KBblnfNASn7ezr9LAipMKVOYx+y4O5M85IzDTj7A/BYK8tjwY6cJbSgm95jHqxa129rNMkGV7oGJb7rHfpYIsmSpN2MMaygV5YpYqQ5wKZYae26SCkfuFtRUNsu3zRM2WX2WthYN8uL02o3d7lB7yyPT+G2R3UUEB4Rsn1U9miUpKCNlixfthzkkqGiV97OmLvLaqL02ux+gN0w5qjNwzvjeJz9upbqQEZJ5rjOV8qoftj6lyxISE1akv8smGP6V3U+2wZfX6nwo81d3psZkVYFjB0xd3/Wkd/7rYAmMFZFbS0V0WcwIsPBfVPJxFzjtgWmPZUlhZsFxRT4M6oCHv9+YFSNrd4aRERU82pp3IP2pmgFFu1NJRFhAxN8DaW9FKBAWGzA4M80WUkhWxyfQAjflKZHIvEtXU0cOnR5O30W2CgMn7opIAoeADfZfFFAEb7kUjYcIeMN0NVkcUsp/Qbb6AtFMNC/tP02OE/GnOJxvRcYLXjAHzTocE3hWEDDT+k4Sl5gzIFKULAz8vCxcwzPWEC1h8ITS5g4Mj48lkcuz8mz0uHrtTv5Xl3rO9yuHUtzGs3TEnq3Xd9tdPjn6YTCY/HDn/SlerHJ+TTXN0v35uLJlMJj88vNtn45nr1Hew2sPhqgVOXTvFE9xz7ovvr/w03E2zefsPDo+lJz9VlhoOMfNFGHK8/guS1YnnW0gK6n+vt+kLFc9VXUH9kI79lSuIXgCwrHkpPqUip5pWFhISKDxHcLySUpFc/LDXSupD/axeZ3wGP6tKoe6E3lIlkUdi0s3wHf6+jGwt6jAakLS7w85c5S7yZ7pE5Ku2TSIifkGLAIBduYOI+DAARFBwJWKT9ztj3ntFFDj1pAjVDgC+cQ0R06QZJ8C9kQzyTnsAYNXRK8j7k91wwPjmcNOeQqEz/QKwDbzjqPsL7UOwDkyj7i4ACIlCTDmlTeityqDguIMPveCJa1idI2HQF59BgT9Zu8c0FBirA8CG2yFm4T8oWAsJ6ImqqH+H9rvvd2RGAGCdOPzeJusTHV8Bhafb+PoOz6C+OpdUQMFXUKzmqweI51rCSksKhZdX8pWQrdlJMxVkjwDAAk0cvidrqGphDiUmrFwlJN5LqvXhugA0OtVwEkaJCT7yUhI5CQCQlVBwSPoAACzfoNQ3uchdBspZ6gOwMB5G5t2RgZ0ytomaqkpIwAFJbwJAN8ottkoIGgg99cI/bDyPxPzgNo/H03O6TDgqY7uoctVJxFI6dljZHXzQ7w+8N16hXK4KR6t/JwwqzE4AuEzKxt7Z9dKeeI6CuyW8bqSHm5kEIdUG+mvusKYtwgr7HYLSj1V5H/RYgOz5njBVpX+Y4AZqe4WQD7aA7tyXyoRfhJUOu8QUJs6f+0WA+s9nx4euUHbWl9P6+/+BWmopsW67gN3PQregW+FWqOb7ZhOIbiuyNIe0p5BdWAHEJzWW5hRTUBZANYeaCK+xAIB1iKMc72sHALCnCK/XF8N8oTcvuhBqaQ2yDwDRXmQ9KKQccYI+T6bXAuJjLFwpbZDwOpDHWNgjYuZkB+iTcspCYN5Lygw4gNlL2FNfgKTdrbFzC0GqgOcJmyjwPSssIrYQ2LR8yAoyFcI6aeMsrY0WJCgCxjzAJpTCdiBaZ1jTQSsQvYT99QaY3KyrYjaGGnuJ4CZ9yorwZbqBStGiLpC7k+CXlmZNAd1DOMqVfQyohL+BXmHFgbyyngEb7uioyx6EWgt4j+AixVknuYbsIKbcA7JDhMekXWF9z9FKGOb50AEmBfFci248dwRqL2BQ0ChrmOtJEHQLaqhX2i3WNxwthMs8O8F8LPYDGp2qVm6ugopSCuQKa8SMfGh+iidm+QHTDurjpWkgaIJnaei5TX5A5rkeuvJDoWgDaQ0c/iZ95VaBWWqyyLbPE35IWJ0a2DMByjYM51AJhTdL5MPtfsCwghewexuhcKPwZlFi80Qeme4HLDwXpHarAaHDncPZAb5xUn6IZUtBeeukoXaDGMbZArLFivsASbs7EAenQ3UpxYLQ84boqMwikNdW+QGjXPWKGagvZQVIrLUQUtXcFd3bzRu5Z4wfsPaWWp1WAiHlPGFkqQ30n6+hadYEx1zCqOliOZ/0g2G+UMcrDEcgBSiENfVjgpWxAruWMqxfONoJ58wX+bMZ8wEa8xVFzi1EQAXsJmyqH7+whsAQk6xiC20T4aAZIy8t9QMm71OhlI1BG0HCS/XjCitijBgLu2gHCCFzRs8d5gdsuFerLnsQgitgFSFVP6ZYJ43xCmHcQmm/TVhl0siynfBDg9VRE3c0gizAepeFIS5rZ6dB0qzPCJY9NbSOgCdtrI5JZN+1mjbySdYPSDvVfru5DsEWAAmCem4FYeGDe77I46hBxljlVXrO3RmsIesVAmZeWmUBmNc1mEdiFEwceXSWHzDvdP+8NA1oZ4CAiNnEhx9+mEhdqaDulEEOsrAYfXPXnqGfKkiWB+9QEFErFJHTa+5YLaT9gMzzvlXyQxF4Ea23SNya0xgPEsTWQPtdGn8CTB7ZZsX9MPDzzj7smQANioABGdhjjJaswWCnlNIK80c+3OIHDHO9XtzbCC0KsXwi4z1jwH6jwYgErQ+aAXLPeD9g8Tm/dqsB2gJ7QsIXBrFfMZotJqzSD00CK07KD/GFfxoxAroUA3NPqsKmDAK+PJc60lNTAAMFMRkfNA3kzznDR7uCAHxfqCKmow/PMwp4f6eVYl6AbG2B63Ce7++dNmgmyGvLteT6gB2mASzc/VmOoE1PnuvzAHGdwl7KsVthvsIFLQOTql423r8AAOApRX8pwRtg2wUA2B8+l66wCskDPguQVynsTo4+hTnA8brC7KW5FHZXQ6LXPEZDkl0rux4MBPzrVs6DutjR1Rt4cJ0bDG11b/L7/X6fC8y1OmTZHvhumTVWiSyZMeEi8+K1q+6/uv/q/jOnn3VIFxrzFeECJu+TLmDDPelCg9UhXEDaqQoXMO+0dAGZonRh4Odl4QKGuZ5wAYsvSBdi5gvhApJ2t3AB45ulC9hwW7oQz7UIF9DoVIULmHpQuoDMc+lCwuoULmBYwRMuYME56UIsWxQuIGl3CxcwyvWEC1h7S7pgmD8IF2CIV93/df/X/V+nOgBWUDgg3AQAAHA0AJ0BKuAB8AA+dTqaSb+joqEi2Nhz8A6JZ27jQ2Sy0ADOUhA11PqX5Vf0DomuCu93Qx2Jz0PMA/Qj/F/zbpAegD9PPXH9C3oAf4D0B/+B7C37b+wB5Tf7dfAj+2/7b/AV+x//51lw+C4oYAeyZ5r+3ockllA1AEHrAsoGoAg9YFlA1AEHrAsoGoAg9YEKN7S1sKeAciuyECqLC5ZQNQBB6wLKBpztFjMa6lcQtinfaG6LskXLKBqAIPWBZHMac3+ApAc3FxUL3RfQVN7OvD24kAtGPLKBqAIPWBZHL9D1/z1uHe8t+cp9dkv9V0J/MnqQYeyRcsoGoAg8wfjgVH6wvUKM8bDkTZUGHskXLKBqAIPWGmJg0anQmHT/ZloL0lNaaXZIuWUDUAQesCBRQMThe1WD6huAjzvV8GsSCRcsoGoAg9YFlAmDF/psInUAQesCygagCD1gQvXkHGEetTFhcsoGoAg9XyZrAqMwVSgIS7JFyygagCD1gWR/vLpF+5EoaMMPZIuWUDUAQesCygadOGjSD1gWUDUAQesCygagCD1gWUDUAQesCyMAAP78JNAAAcv8XcPMNUC/2l40LSPm++1/YJczi7x5Qn4xls3/iRY5fv98Or2kDLVGN1CuXqwH3nFUa41PtrWTKYAEiaXM+lOdyJYd/kFYmCrL62suaJqxyT4lW4IttMrmDv8/BcoLFCDXVuOEvYIgUeM4MzDStmgC4j32K/PnUMrXaTRdIx5VRX/S15Kuj4heFaJy5+VK+2CwY2fxH6/VF9QiHZ9Dkkcff5wzKS7Jq9up3ilQeQahn+Sn49RJ+C/szIuXzaeb3WGfb9Oe76er9asGryfF4oUbyHjkuFI0yE4PH8l0TMOcx2rzTqk0CFDYbDUwAxVm1fbfkS1vDegYvdMiG+1uUgsXZcPctIAlM/A+SDRJMTYXzbbJIrYSqPqwnFbbeouY5lHO7Q+rm6jgig71b+pThzfEvuZ4A4/VK7/6cOh+ifKt3+w4kG0Lk/c3/Cu2J1HlmRRPqbMDt/HOFc1Ie9zY5XyBaoVn6eMaMTAVMa1YsJtGgL0yEVyS86o1Cep8M6rjei2CnW9bWGtSqt9w0atC5NwXhb7vzSrqZhh7DcIdjJXCBABe3hf/0b1xQ2fUgXrRV1PAmiuRnevuy9SKT0RArk+6fwuzsmWbrpAv7egFwAABAaXGKOuhQnrGrYJ7SjQ4awVlhQsERqLLYBgEN2N71c1kdM2UTMMwJp9P2ebDXfWHEBBPAM8lhKF5rZpqZAyEDIrnL1Nnl5ZE5GIK+cCCtFouvmWuQDplra5O72prJiqhhvinGiTn2RC95mR48AAMeutApx65imBphJvQL/LrG2RtX3kXWWmY31inn+gHEw69M6pKVs8vI/55gQ+sX+JDLsDtEHQxFjWk4v1JLRB4DHf3cA+VQZ5bdgsMsyS0AAYEqO/R7AGlVP8Wp4HiQuOPdH+57/c+xJPPIvV2zp+aO//g8//BIf/6AO3T0iggMRwVi/qQAA+v6wHCSDB2ETAmhw29zJENIT0T86rjL3yXPFs26ggNvWrWHBHy8IDmrTowmEuEF/2ewlKlU/aKgCxiCYxWN0/KNjRQEEBXkSSfWaO6qRcdoyG/em8cJIaI4p+PJbigAAAAAAAARVhJRroAAABFeGlmAABJSSoACAAAAAYAEgEDAAEAAAABAAAAGgEFAAEAAABWAAAAGwEFAAEAAABeAAAAKAEDAAEAAAACAAAAEwIDAAEAAAABAAAAaYcEAAEAAABmAAAAAAAAAEgAAAABAAAASAAAAAEAAAAGAACQBwAEAAAAMDIxMAGRBwAEAAAAAQIDAACgBwAEAAAAMDEwMAGgAwABAAAA//8AAAKgBAABAAAA4AEAAAOgBAABAAAA8AAAAAAAAAA=;" parent="1" vertex="1">
          <mxGeometry x="78" y="570" width="120" height="60" as="geometry" />
        </mxCell>
        <mxCell id="68" style="edgeStyle=orthogonalEdgeStyle;html=1;exitX=0.5;exitY=0;exitDx=0;exitDy=0;exitPerimeter=0;entryX=0.5;entryY=1;entryDx=0;entryDy=0;curved=1;" parent="1" source="ei1fRvyxPQEVMclzIhYJ-11" target="66" edge="1">
          <mxGeometry relative="1" as="geometry" />
        </mxCell>
        <mxCell id="86" value="" style="shape=image;verticalLabelPosition=bottom;labelBackgroundColor=default;verticalAlign=top;aspect=fixed;imageAspect=0;image=data:image/webp,UklGRswXAABXRUJQVlA4WAoAAAAYAAAAXQEAXQEAQUxQSL0NAAABHAVt2zAtf9pvh0BETAAeUkasrtJCte1xG70RwmYuBCJoixCk9957NejCYEjTVl2lGAzpxZDeDenZlp5tKTKkZ5sxAoPA23fTE12kyGAkDMKQoiyDYNgmTfn+f7757xQRE+CL+P/bjf//e6QiLBERIlREiFGiSg5KmE3I6/1+t4RSFVJmk4McjKiQkxA61GyiVAgllFJKvXb12symVFWVEmaTg1JGRMymQrSiHYuIkNwP1vPxXKvTlbxPI2ICUPF/xf8V/1f8X/F/xf8VB77Vry//+2mMaTD+Yr/e0YsxPdN/878JnG3gX2eENYH77NsK3tZzLxNmjnaLeY3gbpx3j0PsqfqNdcvB3xjn7gcY5E8xbjE4PI9vtzQW+drYFgePaw2m/VbFJF8L02LgctRgWcrPJtxg2TzweVaRYa0+RuESv4woOD1ZZ9e34HWCW8VZzBqvM+sSuH2OV/pkdo0usOoc+H2KU4XRDBv2nFGnwPFjfHo+jGWDutn0EXh+iEvd/ZjWL8+kQ+B6E4+6+rKtV45Fu8H37RzqDDMu3MGgjeD8Rv48fot1oQx71oP367mT7sm8no/Jfb5xq+mN58q0b9xqenPT81KPN281v/kxueXg/nJyM2AxWmYfLFZnSrXC6rfU7gfYF0hTq7FSV+aQlWBHqaSlFmqLwf8GztzSPIB2izHvwQsu5suPfk+g/caWefCGca6kfB5B+5EpdfCKMZ609vAM/hRHjCi8Yx1HbsBD+pL80Gd4CUQNdjTDW7YIU2tXICOaPtlj1Bhk3gtFTIfiZY6FIqbDgzpLpcLhiNnwW21kzsFr3iCTz+ZMZ7vLFLI509kuo5SezZnP6lQKoz3HDIOKS56C97zEieeDPMhknREfwfrks+WYwJnN5wPGRTcyYQlvLp9xaHzz2XwuNXPHNtxwjg/dfW1IAtsCvwrEjEsBFSt3F2j7iJzrlxC2w0Nu/Gs27IOND4FN0SUwY1wSOJG78pF1F2wvOOTwORe6ejk1+Fn8pXLBRTMAaoV09vnWr+5hN7pA4n77j6bb02Wy7T+a/00v9bz9R/Ptz0nsBgmb2+d3jzEun3/czhBZx/0K8XmgFSRZh9fvtggsFiKy2chiISKb1283PZwiEUWVacwrcwhVpn2hjlJJn7/KrN/XSqEzTGHi12rj4uLLUdJCRHdf11uX52dbdkFkrXJ+WY0QBQ+O//LQc+CIJKe3zlqXjYPkGJH7r0rRlqrMULbyenr5ffPiNGsxu2HdFGpgsdaExUA5WG2hsBF2lQWeC00YbI4oeAlhTdF0u9CeOegu0PbRCnA4xs3+gHidyNvGZQVI0ybQhnDJ7PCRAHV2BQV6HLKtks5kMksrqsbz+tdioVQD6g7KAq215eJu0aIBBuctoDtN4R6agiPOfgq0tstVALM03oI2TRsA2n+V68CpYnb98gxYDdskBzNEY0RE4R7UIBWALSIiC2k6W7PuUBv9qCHhPjpRIvsJUBIdzlg1lQmiaA9tv9lhn/ulg0SErkt0pmgZqCd8pE0CJ0TkPDcqBtTsRPQc+FWQtRBp1oloUkU7YHq9ulyvAfYdLyaTyUdZVeBezOVyBVUTGQBoH2WcIiuR+ybqDiJ6xnRDJCoTUagzDNDkdvcDDmyQ1nOhCZxB3JkiSp72AGBfMezwBsLDJ5JzucVwYFPgv9SsAZcH+8c9ASnhTAXoh415DhyRTE2zbMyUOhSw3d1+06jsARki94WIiJwNDKLGLANNHzMDNN1EVAa2dawT0WRnOIQ7Xe09UHkNPLe5Ux1N4GHI65xuYhAxZg5ANRNfXCqWHf4rYGPqTrINZHUcRCYDa8C5Zwig0c3a/TQwQ8+Abr0JaLLotL6oQMsr0WRaPrLtg+1NUBlA5wrAFy95W+hxgHoN4FcahqHHLjYP9j8CtkRtYJbGqwBw9hndKSpAqD4lSgEV0SBKd/sa8vzaEXXukmOrC231LpH3An0ZbTUwFLDavdp8Dvji8ZBAiS3Me4jc6eLynH0iPucgx3RyuVhIB4nIH1+IWIhsswvzbnLNL8QUIqKp1EqxkHs4rRBRKF0o5mIKESmxhXkX8zqRXys8dNJwDKZdqxbuvAGs01Bd7swMK9Ey+6xomVKtlr51pKWHe5WHS+C+I22JZtOJVJl0otl04mqhVC7RbD6RdcKogUdCvSMSvwG33ho+2i030me4Vjw35xsyiLtRAh66+jf3+Wu8l0LMfT6Hp/b/6DaF0RyxeSZjfpPCPHJG0apB7RSYOTGfLr1+3+zgoVn5UtQSoyebr8kRez6MGZYDsAmzQh21fbCoZYh9BMfvbm+KNwJGeTc2xdtPTeHY/HytxA5ZCXbQyvd1Lg4+bVQKfG40QtRwkSY4P3HF/WXUDteZHJHwrXvkIgTGjrjzcWPcDa5iNTHFG5rPzZpGTdE1doDiMoc5Y/474ApkUqH8xt5ZqwusmQauukVnmES4x5WMKYDtR82qBLZgHjN0l9gIkvYzrmozwlrh6k6zKpoQmt3hcYgGlbluyIigym3RCDX+tSusBtE5DlkjnoJPjFI45wbpIBVPk9szYpe78I1UowsuUA+yu1zLq8/d5PZopMIp+d0K0ElxiOuLgc+MWMMK0ouD7sQPrqyvyHWmZKwOj9cf8HocY+awyj03FRwjs89KdYbKbxoh6zF3Ztdjq3LvbRrlTiy7/vr95/OL6x+Xzc+VndxdRca+EBfPK1LhRFyYuKNPmYvH43Ovud25uHjeZQaDnlNpiS8235Cn8h4or3C9sJ5Qh1slouBm9Rq6e9WMnbvTgVj1S+2CzerztmBwI2gG+IiKqO1+Und7DPJ6MmD7USKKweD3IU5lrn1Sv3IZfeNNow7HTaFfXmrzQNp+xh3oec3VXUQUVA1CM8T8uKGln2fHbgrYJ7MkiG9wbb+ct8VtExE560ahajeZVTLHXjmJRanNc1iUmwe/qLEcGoasyWRNArvl9S2ojze5Lbkyd+nX0KZxp8rt8LaMWjSLSKesjBpy9BdXd8goZ9w+CXOA+qXyerv4PL+8tv2+K9EL3w5P5Uu9Xr/i2nVxI2IW2Cqrq6D/lOtHZKZ7XFYUWo4F3TZirdPHHNK3Y8zpcrmUda6ouMRW0whn5KTPECCoMliRyYHthkT6xxtc6XaI17gCmW+jnBIQ0HrCHY9J7HNVm1FU4nZvU9HMQmkZvR4vAj3nriY4/wW3RoanuP0RBatl9DmEjPQZJLkE2MGMcYvckWVECabl83y0GI7P3A63yTVcP8HhqIIG+RyDoJtcwyVyfOZ2aITT7sume5AocQ5R0d0+9+gGFkYfLJbNIYjqbXGromdg2wE5ZSKy8IhNrI9A2i255PsJQ6+591aN5Zg7INnJYvW6DyNHGMTl0gRx05wa1ASuuZxMXoXRo4z2o0xyEYEmVQZpTRJsNyRRgPGjDGIy2QqBrRVuV7PDVW3cfzGa+VPy6HhLJHrOnXuIXA2uSPzeiIZ58miE0JE+gxhRdMDNcoErqb5wMBr5k7J4HBLLWeOKRAWwX9zcAvjdhzNR7d3noxHqDEmshuCbXNU2VuF2iM9yvxIf/yl2RoAeLXJIB0VLcN1gQOWSEmtcQmLRqCspy94IgKghhXqI7r1gkHoI9iogUWYG0ZtT/Zw9cdwfBXBDBrcCwtEe99ev3CFJrjOYlYjrCHB4KLCGVs4ge3PrZjarKIE4xM9w6g8uL/Ocy3HKqg5vi2ump8OJ4vsu5G+uqpgYror3Y7UEJjuMZG9aJsU1Qhp7KHcKHa46B/R60G9YgcNOyDM+GVudNaXJReFikKD1vb5TRSbSZ3C1t7H5+qwDWcHYiYyhhj2VQOe8qQKrpoRm0VI+GdCqvhLJOhuckQLauB13exLiX81pvC7YPEgx2tcVk6L1m4vfDvuprvdWU8I5sZI95OCs6zn3yE20b8xVN+bHTdGSri9ucxpdECoKSW7p+ZV0pvWpJwM5ShkweJ9c6N+UbV9PZ9KccEqkbyHLRT0pPbTcl+vsTgdU0bGI1nUM6uWojRwNUUZzwi1KkGdPB+ZMathzcYozpOF9X69J1qsBXTR73GfUaiFEZN1t1Gq12pdtxpI951onqzMu0ha/1Gq12pdHmp0vNWE9JkO2pdM+d1Ut+k0KH4lzCfJU7NIKGWgNZ9ZKpbV8PGgjrc0uVIj3JAqlUnElFfGOEWu1C61ERIqdtUoRKXeXVoul4vP0bMBGpj0oL4o+WSL/3x4S5RwUab+8GIXxqgT7xPgcyrRXVoTnw9QJdohwDAo13Emve5BKwUZ6h6BUQxlqXX3VChqpNUGx9nxMKxdRLVhOayuUazBNqSOkXlBPaT0UbOAWnXRQxWAxneVQstpvVO4H1QziVOqhaKt/pHFLUzWI0YhD2fraKPxYrW5QRyEGlZt0rs2vdKLO1UHttjiVhOKtMZwxoqoH3zrzLZTvrKITxVnqB5ecuAQFPFm3T5+sgnDOvnNQwuNf21UYrYbwuV2noIhHF+x5PkwV4Zg9H0EZD+q2Iz9IHeGQHfugkPvlrXX1UknYZ203lHKvLivZsFpCk5XNUMyRrLlMSDVhu7n1UM7hDjPpoHpCo5kGKOjQ43L3AyoKq8sthpIOpkvd0tQUlpeKQ1EH7v/vx2pVhcX/i0FZa7f+/jvpU1eI//13LRR29a02KO1YVG1V/F/xf8X/Ff9X/F/xf4WfAFZQOCAmCQAAkEYAnQEqXgFeAT51OppJJKOioSSXSQCQDollbuF1UPnU/+A/rH7YeRJl/yP9z/Yn8mfnHs/98/B/KsoH9ifdr8r/e/yl+FX+k/qvuw/znqGfpt+yXXY8w36e/9r+7+8l6PP2T/UD4AP5z/gv///Hv/P8QH/E9kP0AP3B9XD/a/sd/7fk3/bz9vfaP///WAf/frp+hX8T/Av8AP1P7dPQA/QAN9r5fvnY/fOx++dj987H752P3zsfvnY/fOx++dj987H752P3zsfvnY/fLwcmv12D2xT8vwO2Kfl+B2xT8927H75cAZoZ3DuHcOz+cOY++dJrhTEWx++Wvk1GXhLY/fOiq9ppgqRpEqaSqhoo4xiW6+puuT73752P1g/MxZ3K8KlNiNbWPKIUdlPwMpuMJrQoO1cRjprQdLggtx/1J2BeEB5j6JYmmqFUfXJncjBx2KrYM/df7jv3rEC1yBpXvTSkSPPuvkJUU9KOQp1DrQplMda+AzW2RU3kUMu8wVHoarZDET3UIQ/8OlTyjT+IWWzR7kH9VKZqXYnKY+yJPVIlcSIo4EWCRiCMuXRw75bUhI1PpTbJsbGd6TZjatXuc1Cya0cWoqVyHf5xSFRa/bEKxPtxX2/clC04zAZKOzvyNHtVr5fvnY/Udx56meOC9InMffOx++dj96y3bbxM/BUEXx7Va+X7506CImdFw6tfL987H752P3zsfvnY/fOx++dj987H752P3zsfvnY/fOx++dj987H752P3zogAAP7+nm1eQeVZrjxBfyL2SArsgDqy1MzgAAAAAASdVfAh80VOQeBlciZdBV5zjywtKWHW646Er9WR0JX6sjoSv2s1H8V2bDsv7DhynhseNSvU40FlknFUcN+K/6gu+oa+EX76mlaKDMAABYm6JPSuqqn595MxzFvQqG/bb7N25j7+44UqepZi7c6aRmQkP76pbVGjVOz60grIgf2C0yZj+ssrFjzDre5qB+VCvCNiw4qTPuJriViykbqSKOCqqi5zkJX5YxUN79mqHrcaLbjf/XZmp0ZagwBbza3dfiBdML0esxjtxFMc9jYdaAP+M/CBF6gggWDfheVTbwdKmMCN7l+o5EbI5P9I03Ea5cHf4MljggBr+I+RBa3wI/aEOO2vzyd/em9aMj+YcYWyBJsOFXjcvnA9hzWISfe2aEN9Yoq22i6D5786ahpDY3q/kuv/bbOv4XVr6V/HCG429Y9IBvtWMk/KhPPtPNEvovNgGpWLKvbffvBjvg+jPFIIqTUvJ4o2If/WfSKCdWCijs8QlvcAmfuHUM1Oljl2qOyI6vIQjVrTBwquN2V66KIPFPl5vM0JxnLLpz6T6ILk8qks2LPJwX5xpuCY+XSXspHDRIjrhMlYKrgQvd21PJAjvlPtdh4peMdQNidg8CTs6dDUmv6M1UulvG59lAjiZmISbcrQ981bzd3W7b3Bfn6eKJ8W2Xid2pLxvyzzZEnte3UlY4NNIqUv1CeZvVk+ESWrylmOvnsIRvmiKkz7ia4lYspG6kijgqqouSs3PK2KK2lnvTZRV7bQp2XiLqv2/8e3KY23oWoBPwzHN8xZGTaNMT66VOMAbz/YOi8MgmXkA8tEPCsqotnHvqs56i1jisRcPezsMHUwUMD5PvQjCnF2a6dZcAW07QIo8gBy5U6g6QThC4ERD7yoz4r5QRHF361ZE5Iijyeq+9BAXYcALkvHTeaYO/xC3TFHR9TF1mtKTbqL1DR9YSPeknwmEQiCO2J4rTzJ9NnEEXq3fvVRrgZ9T9PB8saJtkoTcJevVLX9WeZiJtqQo07KvzMZWJXHBkowdb//hd9e8GO+D6M8c1+OTN47euKPghPZBehTE95txFcJcJ6/4RVPafFrn+wMkTlDzdfYF1gCrpV55Z0R2DFLkhQALZgAZInxWOiLSc4QIdC7J+eF3J/SCOyeUYFE0M+rb2oDqQMrScLY9Trtj5kJCtKO581j0cHNaB8JZ6FjW0bAJ3mPod2ll8MkQeRZ/a+8NWEyJ83tykJRPNmtuFTSaTPZ8KJw1SJGVbDC9WSSF7vvZYog2OLhf+b/0S9CGWJfHm9j8FuduPMb3pD+GLn+nQBkoJCItuClOfF2T9xRvMoKKtH6ICyve88mcFvSEi9RhowJkJN//+G1BmOP8Jn/+921bNZ8EuL7KzLm2v1hcEGwW0JlrOMLCG+f8jMyK54uTO6hmp0yQ3Ay0ezxbvG+OTVaVuoSxlD2b63sti10mlXYBd5ZHTZRpPbJQ8nZE1pIgY4D5c44nyYE8Rdzti2EEpoU1+b3t4bns8ht30w98Dhn0rPmonGVUCbRcflgBW4DkqLigAT29PxxOHDGs9FY7+hmFsT3dwzsGyEBvG001aACFfjMn5QnHtmmmjPyH6LmYlc/2gEf4qd/jL+q6yP8FREnJTEot0flHWrR8fAHyQPo97GTCy73gF720iAiPcG4npHSubPK4ohUPnw0fUk96sniX9gPNTpv5J81j0cHNaFcFB4driMG4hGrWmDhwQPCbSogLhf+b/0S9CGWJfHm9j85uduPMb3pD+GLngJ0YeH5wbohpV1r22vWbLtelITx50sjUfcT1Nr0LuXd6W/byfasGGLjX5bBlWq9FYiyV7FLP39StcVYhUwtHSESD9M2hwFTePUw7viIme7MvE6CM2YnXyh2hcgA+XIa0m/6HBX5naApQWybUNK1kS0/C/jPSGcVPaWevtzFGZeHZ0TRRbSu0H/a0FhPxij9yGtgCJVkE7fN6SK1VHvmgjgJVcGbYRtz4ALk0o2Q3Zvcg+yJEpc5GNBGg90cQsIE1PEsE6mvJac7EyEa17TXol6rwpylqenFKBxv3frPdJ7a5YllfjJP/9QaWy047f/IEOtqZJie++TC0bBMQn8TgIFXvmydUSNjqTgzu5vGTMrHzuNCh2/tySAk7EpVuYACGpQWybUNK2NoZkervpMNmgBiam0TlPtT/eCxw3W5LD2W/7KdneUyXDCi7ZZ1xGAKWKibh8OKu2FAAHyVe77Yhkxvm11pSvIKR+Z9MrmF/G58kxPffJhaNgmIUTFRgbHb2aY3SzoUu5nrsgzugLbLOt/jxHAAAAAAAAAAAAAAAABFWElGugAAAEV4aWYAAElJKgAIAAAABgASAQMAAQAAAAEAAAAaAQUAAQAAAFYAAAAbAQUAAQAAAF4AAAAoAQMAAQAAAAIAAAATAgMAAQAAAAEAAABphwQAAQAAAGYAAAAAAAAASAAAAAEAAABIAAAAAQAAAAYAAJAHAAQAAAAwMjEwAZEHAAQAAAABAgMAAKAHAAQAAAAwMTAwAaADAAEAAAD//wAAAqAEAAEAAABeAQAAA6AEAAEAAABeAQAAAAAAAA==;" parent="1" vertex="1">
          <mxGeometry x="78" y="440" width="110" height="110" as="geometry" />
        </mxCell>
        <mxCell id="87" style="edgeStyle=orthogonalEdgeStyle;html=1;exitX=0;exitY=0.75;exitDx=0;exitDy=0;curved=1;dashed=1;dashPattern=1 4;" parent="1" source="ei1fRvyxPQEVMclzIhYJ-7" target="86" edge="1">
          <mxGeometry relative="1" as="geometry" />
        </mxCell>
        <mxCell id="88" value="" style="outlineConnect=0;dashed=0;verticalLabelPosition=bottom;verticalAlign=top;align=center;html=1;shape=mxgraph.aws3.data_encryption_key;fillColor=#7D7C7C;gradientColor=none;" parent="1" vertex="1">
          <mxGeometry x="134.5" y="322" width="20.5" height="24" as="geometry" />
        </mxCell>
        <mxCell id="121" style="edgeStyle=none;html=1;dashed=1;" parent="1" source="112" edge="1">
          <mxGeometry relative="1" as="geometry">
            <mxPoint x="1345" y="335" as="targetPoint" />
          </mxGeometry>
        </mxCell>
        <mxCell id="126" style="edgeStyle=none;html=1;" parent="1" source="112" target="125" edge="1">
          <mxGeometry relative="1" as="geometry" />
        </mxCell>
        <mxCell id="112" value="Prow Scheduler" style="html=1;whiteSpace=wrap;strokeColor=none;fillColor=#0079D6;labelPosition=center;verticalLabelPosition=middle;verticalAlign=top;align=center;fontSize=12;outlineConnect=0;spacingTop=-6;fontColor=#FFFFFF;sketch=0;shape=mxgraph.sitemap.services;" parent="1" vertex="1">
          <mxGeometry x="1075" y="300" width="120" height="70" as="geometry" />
        </mxCell>
        <mxCell id="113" style="edgeStyle=none;html=1;dashed=1;" parent="1" source="ei1fRvyxPQEVMclzIhYJ-13" target="112" edge="1">
          <mxGeometry relative="1" as="geometry" />
        </mxCell>
        <mxCell id="114" value="Node 1&lt;div&gt;Persys Agent on Docker&lt;br&gt;C++&lt;/div&gt;" style="image;aspect=fixed;html=1;points=[];align=center;fontSize=12;image=img/lib/azure2/compute/Host_Pools.svg;" parent="1" vertex="1">
          <mxGeometry x="1018" y="446.6" width="68" height="68" as="geometry" />
        </mxCell>
        <mxCell id="123" style="edgeStyle=none;html=1;dashed=1;" parent="1" source="115" edge="1">
          <mxGeometry relative="1" as="geometry">
            <mxPoint x="1345" y="480.6" as="targetPoint" />
          </mxGeometry>
        </mxCell>
        <mxCell id="115" value="Node 2&lt;div&gt;Persys Agent on Docker&lt;br&gt;C++&lt;/div&gt;" style="image;aspect=fixed;html=1;points=[];align=center;fontSize=12;image=img/lib/azure2/compute/Host_Pools.svg;" parent="1" vertex="1">
          <mxGeometry x="1175" y="446.6" width="68" height="68" as="geometry" />
        </mxCell>
        <mxCell id="116" value="" style="image;sketch=0;aspect=fixed;html=1;points=[];align=center;fontSize=12;image=img/lib/mscae/Docker.svg;" parent="1" vertex="1">
          <mxGeometry x="1085" y="490" width="30" height="24.6" as="geometry" />
        </mxCell>
        <mxCell id="117" value="" style="image;sketch=0;aspect=fixed;html=1;points=[];align=center;fontSize=12;image=img/lib/mscae/Docker.svg;" parent="1" vertex="1">
          <mxGeometry x="1243" y="490" width="30" height="24.6" as="geometry" />
        </mxCell>
        <mxCell id="118" style="edgeStyle=orthogonalEdgeStyle;html=1;entryX=0.426;entryY=-0.044;entryDx=0;entryDy=0;entryPerimeter=0;dashed=1;dashPattern=12 12;curved=1;" parent="1" source="112" target="115" edge="1">
          <mxGeometry relative="1" as="geometry" />
        </mxCell>
        <mxCell id="120" style="edgeStyle=orthogonalEdgeStyle;html=1;dashed=1;dashPattern=12 12;curved=1;exitX=0.5;exitY=1;exitDx=0;exitDy=0;exitPerimeter=0;" parent="1" source="112" edge="1">
          <mxGeometry relative="1" as="geometry">
            <mxPoint x="1051" y="444" as="targetPoint" />
          </mxGeometry>
        </mxCell>
        <mxCell id="122" value="&lt;b&gt;. . .&lt;/b&gt;" style="text;html=1;align=center;verticalAlign=middle;resizable=0;points=[];autosize=1;strokeColor=none;fillColor=none;" parent="1" vertex="1">
          <mxGeometry x="1355" y="317" width="40" height="30" as="geometry" />
        </mxCell>
        <mxCell id="124" value="&lt;b&gt;. . .&lt;/b&gt;" style="text;html=1;align=center;verticalAlign=middle;resizable=0;points=[];autosize=1;strokeColor=none;fillColor=none;" parent="1" vertex="1">
          <mxGeometry x="1355" y="462.6" width="40" height="30" as="geometry" />
        </mxCell>
        <mxCell id="125" value="ETCD" style="sketch=0;html=1;dashed=0;whitespace=wrap;fillColor=#2875E2;strokeColor=#ffffff;points=[[0.005,0.63,0],[0.1,0.2,0],[0.9,0.2,0],[0.5,0,0],[0.995,0.63,0],[0.72,0.99,0],[0.5,1,0],[0.28,0.99,0]];verticalLabelPosition=bottom;align=center;verticalAlign=top;shape=mxgraph.kubernetes.icon;prIcon=etcd" parent="1" vertex="1">
          <mxGeometry x="1110" y="180" width="50" height="48" as="geometry" />
        </mxCell>
        <mxCell id="128" value="mTLS" style="edgeLabel;html=1;align=center;verticalAlign=middle;resizable=0;points=[];" parent="1" vertex="1" connectable="0">
          <mxGeometry x="1211.657894736842" y="264" as="geometry" />
        </mxCell>
        <mxCell id="131" style="edgeStyle=orthogonalEdgeStyle;html=1;entryX=0.75;entryY=0;entryDx=0;entryDy=0;entryPerimeter=0;curved=1;" parent="1" source="129" target="112" edge="1">
          <mxGeometry relative="1" as="geometry" />
        </mxCell>
        <mxCell id="129" value="Persys Cli" style="label;fontStyle=0;strokeColor=none;fillColor=none;align=left;verticalAlign=top;overflow=hidden;spacingLeft=28;spacingRight=4;rotatable=0;points=[[0,0.5],[1,0.5]];portConstraint=eastwest;imageWidth=16;imageHeight=16;whiteSpace=wrap;html=1;image=img/clipart/Gear_128x128.png" parent="1" vertex="1">
          <mxGeometry x="1243" y="228" width="120" height="26" as="geometry" />
        </mxCell>
        <mxCell id="130" value="" style="outlineConnect=0;dashed=0;verticalLabelPosition=bottom;verticalAlign=top;align=center;html=1;shape=mxgraph.aws3.data_encryption_key;fillColor=#7D7C7C;gradientColor=none;" parent="1" vertex="1">
          <mxGeometry x="1165" y="254" width="20.5" height="24" as="geometry" />
        </mxCell>
        <mxCell id="135" value="HMAC Signature Verification" style="edgeLabel;html=1;align=center;verticalAlign=middle;resizable=0;points=[];" parent="1" vertex="1" connectable="0">
          <mxGeometry x="1127.0000000000005" y="428.9994736842106" as="geometry" />
        </mxCell>
        <mxCell id="136" value="" style="outlineConnect=0;dashed=0;verticalLabelPosition=bottom;verticalAlign=top;align=center;html=1;shape=mxgraph.aws3.data_encryption_key;fillColor=#7D7C7C;gradientColor=none;" parent="1" vertex="1">
          <mxGeometry x="1124.75" y="373" width="20.5" height="24" as="geometry" />
        </mxCell>
        <mxCell id="137" value="" style="whiteSpace=wrap;html=1;shape=mxgraph.basic.document;align=left;" parent="1" vertex="1">
          <mxGeometry x="986" y="585" width="414" height="155" as="geometry" />
        </mxCell>
      </root>
    </mxGraphModel>
  </diagram>
</mxfile>
